<svg width="50" height="50" viewBox="0 0 50 50" fill="none" xmlns="http://www.w3.org/2000/svg">
<g clip-path="url(#clip0_80_3460)">
<path d="M14.5859 46.5471C10.5309 44.5467 7.11291 41.4569 4.71476 37.6238C2.31661 33.7906 1.03303 29.3654 1.00781 24.8439C1.00781 11.4455 12.0312 0.781432 25.5859 0.781432C27.7381 0.72376 29.8887 0.944335 31.9844 1.43768" stroke="#0066FF" stroke-width="2"/>
<path d="M35.5625 3.125C40.4581 5.59439 44.3771 9.64373 46.685 14.6175C48.9929 19.5913 49.5546 25.1985 48.2793 30.5313C47.0039 35.8641 43.9661 40.6104 39.6577 44.0018C35.3492 47.3933 30.0222 49.2315 24.5391 49.2188C22.3903 49.1527 20.2587 48.8141 18.1953 48.2109" stroke="#0066FF" stroke-width="2"/>
<path d="M34.6172 2.32031L36.5234 8.51562" stroke="#0066FF" stroke-width="2"/>
<path d="M34.6172 2.32031L41.0547 1.34375" stroke="#0066FF" stroke-width="2"/>
<path d="M15.2344 47.3203L8.82031 47.7031" stroke="#0066FF" stroke-width="2"/>
<path d="M15.2344 47.3203L13.8828 40.8984" stroke="#0066FF" stroke-width="2"/>
<path d="M39.0703 39.8438C39.0703 39.8438 36.6484 41.1172 36.6406 41.1172C35.2578 40.3359 32.7344 38.9609 32.7344 38.9609V23.1406C25.0938 18.75 14.8437 12.5 14.8437 12.5L14.4297 9.1875L14.6094 9.0625C15.1328 8.73438 16.5625 7.90625 16.5625 7.86719C23.8594 12.0781 31.7813 16.3438 39.0703 20.5547V39.8438Z" fill="#1E38A3"/>
<path d="M36.6953 41.1406C35.6094 40.5234 33.1172 39.2891 33.1172 39.2891C33.1172 39.2891 33.2187 24.6016 33.0469 23.3906C29.3203 20.8438 14.4688 12.5859 14.4688 12.1953V9.17969C21.7656 13.3906 29.3906 17.6016 36.6953 21.8203V41.1406Z" fill="#021048"/>
<path d="M32.0312 42.125L10.9375 30.0859V10.9844L32.0312 23.1484V42.125Z" stroke="#0066FF" stroke-width="2"/>
<path d="M10.9375 17.1875L31.4922 28.9453" stroke="#0066FF" stroke-width="2"/>
</g>
<defs>
<clipPath id="clip0_80_3460">
<rect width="50" height="50" fill="white"/>
</clipPath>
</defs>
</svg>
