<svg xmlns:xlink="http://www.w3.org/1999/xlink" xmlns="http://www.w3.org/2000/svg" class="md" fill="none" viewBox="0 0 66 91" width="152"  height="152" >
	<g clip-path="url(#a)">
	  <path d="m10.5074 32.8311-.1307 42.0597s1.2877-1.3167 1.1569-1.3167c-.1308 0-11.347886 8.6647-11.4786684 8.8027V26.7573L41.8549.975708V12.8365L10.5074 32.8311Z" fill="#CADEFE"/>
	  <path d="m17.1572 38.0661-.1308 42.049s1.2877-1.3166 1.1569-1.3166c-.1308 0-11.34786 8.6752-11.46858 8.8133V32.0029L48.4946 6.22131V18.0715L17.1471 38.0554l.0101.0107Z" fill="#007BFC"/>
	  <path d="m15.3062 35.7724.0301 11.2875.1107 40.2545c0 .1805.0905.3504.2414.4354l4.1448 2.5484s.0604.0319.0906.0425c0 0 .0201 0 .0301.0106.1208.0318.2516.0212.3622-.0531l44.8281-27.3213c.1509-.0849.2415-.2548.2415-.4354L65.275 22.287l-.0302-11.2874v-.1274c0-.0213-.0201-.0425-.0302-.0638 0-.0212-.01-.0424-.0201-.053-.01-.0213-.0302-.0319-.0402-.0531-.0101-.0213-.0202-.0319-.0403-.0531-.01-.0107-.0301-.0213-.0503-.0425-.0201-.0106-.0302-.0319-.0503-.0425l-4.1448-2.54841c-.1509-.09557-.3319-.09557-.4828 0l-3.33 2.02811c-.8048-.9875-1.7102-1.82636-2.6961-2.43161-.5231-.31855-1.0261-.54154-1.5191-.6902-.4326-.12742-.8551-.19113-1.2575-.19113-.6338 0-1.2374.15927-1.7505.48845l-.0201.02123h-.0302v.02124h-.0201v.02124h-.0201l-.0201.02123h-.0201l-.0202.03186h-.0201v.02124l-.0201.02123h-.0201v.02124l-.0201.02124-.0202.02123-.0201.02124-.0201.02124-.0201.02123-.0201.02124-.0202.02124-.0201.02123-.0201.02124h-.0201l-.0101.02124-.0201.02124-.0201.02123h-.0101l-.0201.03186-.0201.02123h-.0101l-.0201.03186-.0704.07433-.0202.03185-.0201.02124-.0201.03186-.0201.02123-.0201.02124-.0202.03186-.0201.02123-.0201.03186v.02124l-.0201.01061-.0201.02124-.0101.02124-.0201.02123v.02124l-.0302.02124v.02124h-.0201l-.0201.02123-.0202.03186-.0201.02123-.0201.03186v.02124h-.0201l-.0201.03185-.0101.03186-.0201.03185v.02124l-.0201.01062-.0202.03185-.01.03186-.0201.03185-.0101.03186-.0201.03185-.0101.03186-.0201.03186v.02123l-.0201.02124v.03185l-.0201.01062-.0302.06371v.02124h-.0101l-.0201.04248v.02123l-.0201.05309v.06371h-.0201v.06372l-.0202.02123v.02124l-.0201.04247v.02124l-.0201.04247v.02124l-.0201.05309v.02124l-.0201.05309v.02124l-.0202.05309v.02124l-.0201.05309v.07433h-.0201v.07433h-.0101l-.01.06371v.02124l-.0101.06371v.07433h-.01v.07433h-.0101l-.0101.06371c0 .0637-.0201.1168-.0301.1699 0 .0637-.0202.1168-.0202.1593v.0212s0 .0425-.01.0637v.0956c0 .0849-.0201.1699-.0201.2548 0 .0637 0 .1274-.0101.1805 0 .1593-.0101.308-.0101.4673v.0212c0 .5734.0503 1.1574.1509 1.7414-.2917-.2336-.5935-.4353-.8953-.6265-.5131-.3185-1.0262-.5521-1.5191-.6902-.4326-.1274-.8551-.1911-1.2575-.1911-.6338 0-1.2274.1593-1.7505.4884h-.0201v.0213h-.0201v.0212h-.0202l-.0201.0319h-.0201l-.0201.0318h-.0201l-.0202.0319-.0201.0212-.0201.0213-.0201.0212-.0201.0212-.0202.0213h-.0201v.0212l-.0201.0212h-.0201v.0213l-.0201.0212-.0202.0213-.0201.0212-.0201.0212-.0201.0213-.0201.0212-.0302.0319-.0201.0212-.0302.0318-.0201.0213-.0202.0212-.0201.0319-.0201.0318-.0201.0213-.0201.0212-.0202.0319-.0301.0424-.0202.0319-.0201.0212-.0201.0213-.0201.0318-.0101.0319-.0201.0212-.0201.0319-.0201.0212-.0202.0319-.0201.0318-.01.0319-.0202.0318v.0213l-.0201.0212-.0201.0319v.0212h-.0201l-.0202.0318v.0213h-.01l-.0201.0318-.0101.0213-.0201.0424-.0101.0319-.0201.0319-.0101.0318-.0201.0319v.0212l-.0201.0106v.0319h-.0201v.0212h-.0101v.0319l-.0201.0212-.0201.0425v.0318l-.0201.0425v.0213l-.0101.0424v.0319l-.0201.0425v.0212h-.0101v.0425h-.0201v.0212l-.0201.0425v.0318l-.0201.0531v.0213l-.0202.0531v.0212l-.01.0531v.0212l-.0201.0531v.0743l-.0202.0107-.01.0637v.0743h-.0201v.0212l-.0101.0531v.0744h-.0101v.0743h-.01v.0849c0 .0531-.0201.0956-.0302.1593v.0212c-.0101.0531-.0201.1062-.0302.1487 0 0 0 .0637-.01.0956v.0849c0 .0956-.0202.1699-.0202.2655 0 .0531 0 .1062-.01.1593-.3622-.1912-.7143-.3398-1.0664-.4354-.4326-.1274-.8551-.1911-1.2575-.1911-.6338 0-1.2274.1592-1.7404.4778h-.0201l-.0101.0212h-.0201l-.0201.0319h-.0202l-.0201.0318h-.0201l-.0201.0319h-.0202v.0212l-.0201.0213-.0201.0212-.0201.0212-.0201.0213-.0202.0212h-.0201l-.01.0319-.0202.0212h-.0201v.0213l-.0201.0212-.0201.0212-.0201.0213-.0202.0212h-.0201l-.0201.0319h-.0201l-.0101.0212-.0201.0212-.0201.0213-.0201.0212-.0202.0212-.0201.0319-.0201.0212-.0201.0319-.0403.0425-.0201.0318-.0402.0531-.0201.0319-.0202.0318v.0213h-.0201l-.0201.0212-.0101.0318v.0213l-.0301.0106v.0212l-.0302.0213-.0201.0318-.0202.0319-.0201.0212-.0201.0319v.0212l-.0201.0106-.0201.0319-.0101.0318-.0201.0319-.0101.0212-.0201.0425v.0319l-.0201.0318-.0101.0319-.0201.0318-.0101.0319-.0201.0318v.0319l-.0201.0319v.0318l-.0201.0425v.0212h-.0101l-.0201.0425v.0319l-.0201.0424v.0319l-.0201.0425v.0212l-.0202.0531v.0212l-.01.0106v.0425l-.0201.0212-.0202.0531v.0213l-.0201.0531v.0212l-.0101.0425v.0849h-.0201l-.0201.0637v.0638l-.0201.0106-.0101.0743-.01.0637v.085l-.0202.0212v.0637l-.0201.0106-.01.0637v.0744l-.0101.0212s-.0201.0956-.0302.1487v.0212s-.0201.0956-.0201.138v.1593c0 .0956-.0201.1805-.0201.2655 0 .0637 0 .1274-.0101.1805v.0212c0 .1487-.01.2973-.01.446v.0212c0 .4035.0301.8177.0804 1.2424-.2615-.2018-.5432-.3929-.8148-.5628-.5131-.3185-1.0262-.5415-1.5191-.6902-.4326-.1274-.8551-.1911-1.2575-.1911-.6338 0-1.2274.1699-1.7404.4884l-.0202.0213h-.0201v.0106h-.0201v.0212h-.0201l-.0201.0213h-.0202l-.0201.0318-.0201.0213h-.0201v.0212l-.0201.0212-.0202.0213h-.0201v.0212l-.0302.0212-.0201.0213-.0201.0212h-.0201v.0213l-.0201.0212h-.0101l-.0201.0212-.0201.0213-.0202.0212-.0201.0212-.0201.0213h-.0101l-.0201.0318h-.0201l-.0101.0319-.0201.0212-.0201.0213-.0201.0212-.0201.0318-.0202.0319-.0201.0212-.0201.0213-.0201.0212-.0201.0213-.0202.0212-.0201.0318-.0201.0213-.0201.0318-.0202.0213-.0201.0318-.0201.0213-.0201.0318-.0201.0319-.0202.0318-.0201.0319-.01.0318v.0213l-.0302.0212-.0201.0425-.0101.0318-.0201.0319v.0212h-.0101l-.0201.0319v.0318l-.0201.0319-.0101.0319-.0201.0318-.0101.0319-.0201.0318v.0213l-.0201.0212v.0319h-.0201v.0212h-.0101l-.0201.0318v.0213h-.0101l-.0201.0425v.0318l-.0201.0531v.0212l-.0201.0425v.0213l-.0101.0424v.0213l-.01.0212-.0202.0425v.0212l-.0201.0425v.0743l-.0201.0212-.0101.0531v.0319l-.0201.0531v.0106l-.0201.0531v.0743h-.0101v.085h-.0201l-.01.0637v.0743h-.0101l-.0101.0743v.085h-.01v.0743h-.0101c0 .0531-.0201.1062-.0302.1593 0 .0637-.0201.1168-.0201.1593v.1911c0 .085-.0201.1699-.0201.2549 0 .053 0 .1168-.0101.1805 0 .1486-.01.2973-.01.4459v.0213c0 .1699 0 .3504.0201.5309-.5131-.3079-1.006-.5309-1.499-.6796-.4326-.1274-.8551-.1911-1.2575-.1911-.6338 0-1.2374.1593-1.7505.4884l-.0201.0107h-.0201v.0212h-.0201v.0212h-.0201l-.0202.0319h-.01l-.0201.0318-.0202.0213-.0402.0318h-.0101l-.0201.0319h-.0201v.0212l-.0201.0213-.0201.0212-.0302.0212-.0201.0213-.0202.0212-.0201.0212-.0201.0213-.0201.0212-.0201.0319h-.0202v.0212l-.0201.0212-.0201.0213h-.0101l-.0201.0318-.0201.0213-.0201.0318-.0201.0319-.0403.0531-.0201.0212-.0201.0319-.0201.0212-.0202.0212-.01.0319-.0202.0212-.0201.0319-.0201.0212-.0101.0319-.0201.0212-.0201.0319-.0201.0318-.0201.0319-.0202.0318-.0201.0319v.0212l-.0302.0213-.0201.0425-.01.0318-.0202.0319v.0212h-.0201l-.0201.0319v.0212h-.0201l-.0201.0318-.0101.0319-.0201.0319v.0318l-.0201.0319v.0212l-.0202.0212v.0319h-.0201v.0212h-.01l-.0202.0425v.0212l-.0201.0531v.0319l-.0201.0425v.0637l-.0201.0212-.0201.0531v.0743l-.0202.0213-.0201.0531v.0318h-.01v.0425h-.0101v.0212l-.0201.0531v.0213l-.0201.0531v.0212l-.0202.0531v.0212l-.01.0531v.0212l-.0201.0531v.0744l-.0202.0212-.01.0637-.0101.085v.0212l-.01.0637v.0743h-.0101c0 .0531-.0201.1062-.0302.1699v.0213s-.0201.0955-.0201.138v.1805c0 .085-.0201.1699-.0201.2655 0 .0531 0 .1168-.0101.1805v.0106c0 .1487-.01.2973-.01.446v.0212c0 .8177.1106 1.6671.3118 2.5166l-6.1467 3.7483c-.1107.0637-.1912.1805-.2214.308v.0318c0 .0319-.01.0637-.01.0956l-1.4587.0318Zm26.8405-16.6497c-.1107-.4035-.2012-.807-.2616-1.2105.3018.2548.5835.5415.8652.8388l-.6036.3717Zm-13.9736 8.516-5.6136 3.4191c-.1408-.6795-.2213-1.3485-.2213-1.9856v-.0213c0-.138 0-.2654.0101-.3928v-.1593c0-.0743.01-.1487.0201-.223v-.0637c0-.0319 0-.0531.01-.0743 0-.0637.0101-.1062.0202-.1381v-.0212s.0201-.085.0301-.1274l.0101-.0637.0101-.0638.01-.0637.0101-.0637v-.0637h.0101l.01-.0531.0101-.0637.01-.0531v-.0637h.0202l.0201-.0531.0201-.0531v-.0212l.0201-.0213v-.053l.0201-.0107.0202-.0424.0201-.0531v-.0531l.0201-.0106.0101-.0425v-.0213l.0201-.0318.0201-.0531v-.0425h.0101v-.0212l.0301-.0319v-.0212l.0302-.0319v-.0212l.0201-.0319v-.0212l.0302-.0318v-.0213l.0201-.0106v-.0212h.0101l.0201-.0319.0101-.0212.0201-.0425.0201-.0212h.0101l.01-.0319.0101-.0318v-.0213l.0302-.0106.0201-.0212.0101-.0213v-.0212l.0301-.0213v-.0212l.0302-.0212.0201-.0213.0202-.0212h.01l.0101-.0319.0201-.0212.0101-.0212h.0201l.0201-.0319h.0101v-.0212l.0201-.0213h.01l.0202-.0318h.01l.0201-.0319h.0101l.0201-.0318h.0101l.0201-.0319h.0201v-.0106h.0201l.0101-.0212.0201-.0213h.0201l.0101-.0212h.0101v-.0106h.0201l.01-.0213h.0202v-.0106h.0201c.3622-.2336.7746-.3504 1.2575-.3504.3119 0 .6439.0531.996.1593.4024.1168.845.3185 1.2977.5946.2113.1274.4125.2655.6137.4248.0704.3822.1509.7645.2616 1.1467l.1911-.0318Zm7.183-4.3748-5.6941 3.4722c-.2817-.2867-.5734-.5521-.8752-.7964-.0604-.4353-.1006-.8601-.1006-1.2636v-.0212c0-.138 0-.2655.01-.3929v-.1699c0-.0743.0101-.1486.0202-.2123v-.1487c0-.0531.01-.0956.0201-.138 0-.0531.01-.0956.0201-.1487l.0101-.0637v-.0637l.01-.0743v-.0531h.0201v-.0531h.0202l.01-.0531.0201-.0637.0202-.0637.01-.0531v-.0637l.0201-.0107.0202-.0531v-.0424l.0201-.0213v-.0318h.0201l.0101-.0531.01-.0531v-.0531l.0201-.0106v-.0319h.0101v-.0212h.0101v-.0319h.0201l.0201-.0318v-.0425h.0101v-.0212l.0301-.0319v-.0212l.0202-.0319v-.0425l.0301-.0212.0202-.0318v-.0319l.0301-.0106.0202-.0319v-.0212l.0301-.0212v-.0213l.0302-.0212v-.0213l.0302-.0212.0101-.0212.0201-.0213.01-.0212.0202-.0212v-.0213l.0201-.0212.01-.0213v-.0212l.0302-.0212.0201-.0213.0202-.0212h.01l.0101-.0319.0201-.0212.0101-.0212h.01v-.0213h.0101l.01-.0212.0202-.0212h.0201l.0201-.0319.0101-.0106.0201-.0213h.01v-.0106l.0202-.0212h.01l.0201-.0212h.0202v-.0107h.0201l.0101-.0212h.0201v-.0212h.0201l.01-.0213h.0101v-.0212h.0201l.0101-.0212h.0201v-.0213h.0101c.3621-.2336.7746-.3504 1.2575-.3504.3119 0 .6438.0531.9959.1593.4125.1168.8451.3185 1.2978.5946.5533.3398 1.0966.7752 1.6096 1.2848.0302.1062.0604.2124.0906.308l.2314-.0531Zm5.9355-3.6103-4.9396 3.005c-.0704-.0849-.1509-.1592-.2213-.2442-.1911-.7857-.2918-1.5715-.2918-2.3042v-.4141c0-.0637.0001-.1062.0101-.1593 0-.0849.0101-.1486.0201-.223v-.138c0-.0531.0101-.0956.0201-.1274v-.0213s.0101-.0849.0202-.1274v-.1274l.01-.0106v-.0531h.0101v-.0531h.01l.0101-.0637.0101-.0531v-.0531l.0201-.0106.0101-.0531.01-.0531v-.0637l.0201-.0106.0202-.0531.01-.0531v-.0637l.0201-.0107.0101-.0424v-.0107l.0201-.0424v-.0531h.0101l.01-.0425v-.0212l.0202-.0319.0201-.0531v-.0425h.01v-.0212l.0302-.0318v-.0213l.0201-.0318v-.0531l.0202-.0106.0201-.0319v-.0425l.0201-.0212.0201-.0319v-.0212l.0302-.0212v-.0213l.0302-.0212.01-.0213v-.0212h.0202v-.0212l.0301-.0213h.0101v-.0212l.0201-.0212v-.0213l.0302-.0212.0201-.0212v-.0213l.0302-.0106.0201-.0212.0201-.0213.0202-.0318.0201-.0213.0201-.0212h.0201l.0101-.0319h.01v-.0212h.0101v-.0212l.0201-.0213h.0201l.0202-.0318h.01v-.0106h.0201l.0101-.0213.0201-.0212h.0201l.0202-.0319h.0201l.0201-.0318h.0201l.0101-.0213h.01l.0202-.0212h.0201l.0201-.0212h.0201c.3622-.2336.7747-.3504 1.2575-.3504.3119 0 .6439.053.996.1592.4125.1168.8451.3186 1.2978.5947.01 0 .0301.0212.0402.0318.0604.8283.2113 1.6671.4628 2.506l.2314-.0319Zm7.3942-4.5022-5.0804 3.1006c-.5734-.6371-1.1871-1.2105-1.841-1.6671v-.0956c0-.138 0-.2654.01-.3929v-.1592c0-.0744.0101-.1487.0202-.223v-.1381c0-.0637.01-.1062.0201-.138 0-.0531.01-.1062.0201-.1487l.0101-.0637v-.0637l.01-.0106v-.0531h.0101l.01-.0637v-.0637h.0202l.01-.0425v-.0637h.0201v-.0531h.0202l.01-.0531.0201-.0531v-.0212l.0202-.0425v-.0531l.0201-.0212v-.0319l.0201-.0106.0101-.0425v-.0212l.0201-.0425v-.0212l.0201-.0319.0101-.0424v-.0213l.0201-.0318.0201-.0425v-.0425l.0201-.0212.0202-.0319v-.0212l.0201-.0319v-.0212l.0302-.0319v-.0212h.01l.0201-.0319v-.0212h.0101v-.0212l.0201-.0106.0201-.0319v-.0212l.0403-.0425v-.0213h.0201v-.0212l.0302-.0212.01-.0319h.0101l.0101-.0318.0201-.0213h.01l.0202-.0318.0201-.0213h.01l.0101-.0318.0101-.0213.0201-.0212.0201-.0319.0201-.0212h.0201l.0101-.0318.0201-.0213h.0101v-.0106l.0201-.0212h.0201l.0201-.0319h.0202l.0201-.0318h.0201l.0201-.0319h.0101l.0201-.0319h.0201l.0201-.0212h.0202v-.0106h.0201l.0201-.0319.0101-.0106h.01l.0201-.0212h.0202l.0201-.0213h.0201c.3622-.2336.7746-.3504 1.2575-.3504.3119 0 .6439.0531 1.006.1593.4025.1168.8451.3186 1.2978.5946.6841.4142 1.3481.9769 1.9617 1.6459l.1409-.0637Zm7.5049-4.5766-6.6498 4.0563c-.0604-.0637-.1207-.1274-.1811-.2018-.3018-.9981-.4628-1.9962-.4628-2.9307v-.5734c0-.0743.0101-.1486.0202-.2229v-.1381c0-.0637.01-.1062.0201-.1486v-.0213s.01-.0743.0201-.1274v-.0531h.0101v-.0637l.01-.0637.0101-.0531.01-.06371v-.0531l.0101-.01062v-.05309h.0201l.0201-.05309.0101-.05309v-.05309l.0201-.01062.0201-.0531.0101-.05309v-.05309h.0201l.0201-.05309.0202-.05309v-.04248l.0201-.02123.01-.03186v-.02124l.0202-.04247.01-.04247v-.0531l.0201-.02123.0202-.03186.0201-.04247.01-.02124v-.02124l.0202-.02123.0201-.03186.0101-.02124v-.02123l.0201-.02124.01-.02124.0202-.02123v-.02124l.0301-.02124.0202-.02123v-.02124h.01v-.04248l.0201-.01061h.0101v-.04248l.0302-.02123.01-.02124v-.02124l.0302-.02124.0201-.02123v-.02124h.0202l.0201-.02124.0302-.03185h.01l.0201-.03186h.0101v-.02123h.0201l.0101-.03186.0201-.02124h.0101v-.01061l.0201-.02124h.0201l.0201-.03186h.0101l.0201-.03185h.0101l.0201-.03186.0201-.02123h.0101l.0201-.02124h.0201l.0201-.03186h.0101l.0201-.02123.0201-.02124h.0201l.0202-.02124h.0201c.3621-.2336.7746-.35041 1.2575-.35041.3119 0 .6439.0531.996.15928.4124.1168.845.31855 1.2977.59463.825.49907 1.6197 1.22113 2.334 2.07061l.2314-.0319Z" fill="#393D45"/>
	  <path d="m64.3091 23.1577.1107 39.0866-43.8724 26.7372-.1006-39.0865 43.8623-26.7373Z" fill="#fff"/>
	  <path d="m55.5568 40.7525 4.6377-2.8245v5.3729l-4.3762 2.6759v-2.3892c0-.2761-.2112-.5097-.4829-.5097v-2.2723c.0705 0 .1509-.0213.2214-.0637v.0106Zm-3.3803 16.7879-4.3962 2.6759-.0202-5.373 4.3963-2.6758.0201 5.3729Zm-4.6779-11.882 4.6377-2.8245v5.3729l-4.3761 2.6759v-3.8333c0-.2761-.2113-.5097-.4829-.5097v-.8282c.0704 0 .1509-.0213.2314-.0637l-.0101.0106Z" fill="#fff"/>
	  <path d="m38.3294 45.4751-.0256 9.6718c-.0015.2669.1301.5188.3511.6457.221.1269.4871.1284.7096.0041l7.8921-4.7753c.0445-.0311.089-.0623.1337-.1091.0446-.0469.0744-.0938.1042-.1407 0 0 .0002-.0315.0151-.0471.015-.047.03-.0783.0451-.1253.0001-.0157.0001-.0314.0002-.0471.0004-.0628.0302-.1098.0306-.1726l.0256-9.6717s.0001-.0314.0002-.0471l.0005-.0785c.0001-.0157.0002-.0314.0003-.0628l.0002-.0314c.0001-.0157.0002-.0314-.0145-.0472.0001-.0157-.0145-.0472-.0291-.0787 0 0 .0002-.0314-.0146-.0315.0001-.0157-.0293-.0472-.044-.063.0001-.0157-.0294-.0316-.044-.0631 0 0-.0147-.0158-.0294-.0315-.0147-.0158-.0294-.0316-.0589-.0475 0 0-.0294-.0158-.0441-.0316l-.0148-.0001s-.0296-.0002-.0443-.016c-.0148-.0001-.0442-.0159-.0589-.0317l-.0444-.0003s-.0443-.0002-.0591-.0003c-.0296-.0002-.0444-.0003-.0739-.0004l-.0148-.0001-.0444-.0003c-.0295-.0001-.0591-.0003-.0739-.0004-.0148-.0001-.0295-.0001-.0443-.0002l-.0296-.0002s-.0296-.0002-.0444.0155c-.0296-.0002-.0445.0154-.0741.0309 0 0-.0148-.0001-.0297.0156l-7.8921 4.7752s-.089.0623-.1336.1092c0 0-.015.0313-.0298.0312-.0297.0312-.0447.0625-.0745.1095 0 0-.015.0313-.0299.0469-.0298.0469-.0449.1097-.06.1567-.0004.0628-.0154.1098-.0158.1726v.0157l-.118-.0478Zm1.4167.432 6.4828-3.9197-.0453 7.9445-6.4532 3.9199.0453-7.9445-.0296-.0002Zm-14.0179 7.5136-.0256 9.6717c-.0015.2669.1301.5189.3512.6458.221.1268.4871.1284.7096.004l7.8921-4.7752c.0445-.0312.089-.0623.1336-.1092.0446-.0468.0745-.0938.1043-.1407 0 0 .0002-.0314.0151-.047.015-.047.03-.0783.045-.1254l.0003-.0471c.0004-.0628.0302-.1097.0305-.1725l.0256-9.6717s.0002-.0315.0003-.0472c.0002-.0314.0003-.0471.0004-.0785l.0004-.0628.0002-.0314c.0001-.0157.0002-.0314-.0145-.0471.0001-.0157-.0146-.0472-.0292-.0787 0 0 .0002-.0314-.0146-.0315.0001-.0157-.0293-.0473-.0439-.0631 0-.0157-.0294-.0315-.044-.063l-.0294-.0316c-.0147-.0158-.0294-.0316-.0589-.0474 0 0-.0295-.0159-.0442-.0317l-.0147-.0001s-.0296-.0001-.0443-.0159c-.0148-.0001-.0443-.016-.059-.0318-.0147 0-.0295-.0001-.0443-.0002 0 0-.0444-.0003-.0591-.0003l-.074-.0005h-.0147l-.0444-.0003c-.0296-.0002-.0591-.0003-.0739-.0004l-.0444-.0003s-.0147-.0001-.0295-.0001c0 0-.0296-.0002-.0445.0154-.0295-.0002-.0444.0155-.0741.031 0 0-.0147-.0001-.0296.0155l-7.8921 4.7753s-.0891.0623-.1337.1091c0 0-.0149.0313-.0297.0312-.0298.0313-.0447.0626-.0746.1095 0 0-.0149.0313-.0298.047-.0298.0469-.045.1096-.06.1566-.0004.0628-.0154.1099-.0158.1727l-.0001.0157-.118-.0478Zm1.4168.432 6.4828-3.9197-.0453 7.9445-6.4533 3.9199.0453-7.9445-.0295-.0002ZM38.5358 59.45l-.0256 9.6717c-.0015.2669.1301.5189.3511.6458.2211.1268.4872.1284.7096.004l7.8921-4.7752c.0445-.0312.0891-.0623.1337-.1092.0446-.0468.0744-.0938.1043-.1407 0 0 .0001-.0314.015-.047.0151-.047.03-.0783.0451-.1254l.0003-.0471c.0003-.0628.0301-.1097.0305-.1725l.0256-9.6717s.0002-.0315.0003-.0472c.0001-.0314.0002-.0471.0004-.0785l.0004-.0628s0-.0157.0001-.0314.0002-.0314-.0145-.0471c.0001-.0157-.0145-.0472-.0291-.0787 0 0 .0002-.0314-.0146-.0315.0001-.0157-.0293-.0473-.044-.0631.0001-.0157-.0294-.0315-.044-.063l-.0294-.0316c-.0147-.0158-.0294-.0316-.0588-.0474 0 0-.0295-.0159-.0442-.0317l-.0148-.0001s-.0296-.0001-.0443-.0159c-.0147-.0001-.0442-.016-.0589-.0318-.0148 0-.0296-.0001-.0444-.0002 0 0-.0443-.0003-.0591-.0003-.0295-.0002-.0443-.0003-.0739-.0005h-.0148s-.0295-.0002-.0443-.0003c-.0296-.0002-.0592-.0003-.074-.0004-.0147-.0001-.0295-.0002-.0443-.0003 0 0-.0148-.0001-.0296-.0001 0 0-.0295-.0002-.0444.0154-.0296-.0002-.0444.0154-.0741.031 0 0-.0148-.0001-.0297.0155l-7.892 4.7753s-.0891.0623-.1337.1091c0 0-.015.0313-.0298.0312-.0297.0313-.0447.0626-.0745.1095 0 0-.015.0313-.0298.047-.0299.0469-.045.1096-.0601.1566-.0003.0628-.0154.1098-.0157.1727 0 0 0-.0001-.0001.0157l-.118-.0478Zm1.4167.432 6.4828-3.9197-.0453 7.9445-6.4532 3.9199.0453-7.9445-.0296-.0002Zm10.9269-22.3778-.0256 9.6717c-.0015.2669.1301.5189.3512.6458.221.1268.4871.1284.7095.004l7.8921-4.7752c.0446-.0312.0891-.0623.1337-.1092.0446-.0468.0745-.0938.1043-.1407 0 0 .0002-.0314.015-.047.0151-.047.0301-.0783.0451-.1254l.0003-.0471c.0003-.0628.0302-.1097.0305-.1725l.0256-9.6717s.0002-.0315.0003-.0472c.0002-.0314.0002-.0471.0004-.0785l.0004-.0628.0002-.0314c.0001-.0157.0001-.0314-.0146-.0471.0001-.0157-.0145-.0472-.0291-.0787 0 0 .0002-.0314-.0146-.0315.0001-.0157-.0293-.0473-.044-.0631.0001-.0157-.0294-.0315-.044-.063 0 0-.0147-.0158-.0293-.0316-.0147-.0158-.0294-.0316-.0589-.0474 0 0-.0295-.0159-.0442-.0317l-.0148-.0001s-.0295-.0001-.0442-.0159c-.0148-.0001-.0443-.016-.059-.0318-.0148 0-.0295-.0001-.0443-.0002 0 0-.0444-.0003-.0592-.0003-.0295-.0002-.0443-.0003-.0739-.0005l-.0148-.0001s-.0295-.0001-.0443-.0002c-.0296-.0002-.0591-.0003-.0739-.0004l-.0444-.0003s-.0148-.0001-.0295-.0001c0 0-.0296-.0002-.0445.0154-.0295-.0002-.0444.0154-.0741.031 0 0-.0148-.0001-.0296.0155l-7.8921 4.7753s-.0891.0623-.1337.1091c0 0-.015.0313-.0297.0312-.0298.0313-.0447.0626-.0746.1095 0 0-.0149.0313-.0298.047-.0298.0469-.045.1096-.06.1566-.0004.0628-.0155.1098-.0158.1727 0 0 0-.0001-.0001.0156l-.118-.0477Zm1.4168.432 6.4827-3.9197-.0453 7.9445-6.4532 3.9199.0453-7.9445-.0295-.0002Zm-.8935 13.5956-.0256 9.6717c-.0015.2669.1301.5189.3511.6458.221.1268.4871.1283.7096.004l7.8921-4.7752c.0445-.0312.089-.0623.1337-.1092.0446-.0468.0744-.0938.1043-.1407 0 0 .0001-.0314.015-.047.0151-.047.03-.0784.0451-.1254.0001-.0157.0001-.0314.0002-.0471.0004-.0628.0302-.1097.0306-.1725l.0256-9.6718s.0001-.0314.0002-.0471l.0005-.0785c.0001-.0157.0002-.0314.0003-.0628l.0002-.0314c.0001-.0157.0002-.0314-.0145-.0472.0001-.0157-.0145-.0471-.0291-.0786 0 0 .0002-.0314-.0146-.0315.0001-.0157-.0293-.0473-.044-.0631.0001-.0157-.0294-.0315-.044-.063l-.0294-.0316c-.0147-.0158-.0294-.0316-.0589-.0474 0 0-.0294-.0159-.0441-.0317l-.0148-.0001s-.0296-.0001-.0443-.0159c-.0148-.0001-.0442-.016-.0589-.0318-.0148-.0001-.0296-.0001-.0444-.0002 0 0-.0443-.0003-.0591-.0004-.0296-.0001-.0444-.0002-.0739-.0004l-.0148-.0001s-.0296-.0001-.0443-.0002c-.0296-.0002-.0592-.0004-.074-.0004-.0148-.0001-.0295-.0002-.0443-.0003l-.0296-.0002s-.0295-.0001-.0444.0155c-.0296-.0002-.0445.0154-.0741.031 0 0-.0148-.0001-.0297.0155l-7.8921 4.7753s-.089.0622-.1336.1091c0 0-.015.0313-.0298.0312-.0297.0313-.0447.0626-.0745.1095 0 0-.015.0313-.0299.0469-.0298.047-.0449.1097-.06.1567-.0003.0628-.0154.1098-.0158.1726v.0157l-.118-.0477Zm1.4167.432 6.4828-3.9198-.0453 7.9446-6.4532 3.9198.0453-7.9445-.0296-.0001Zm-27.0912 14.698-.0256 9.6717c-.0015.2669.1301.5189.3512.6458.221.1268.4871.1283.7096.004l7.8921-4.7752c.0445-.0312.089-.0623.1336-.1092.0446-.0468.0745-.0938.1043-.1407 0 0 .0002-.0314.0151-.047.015-.047.03-.0784.045-.1254l.0003-.0471c.0004-.0628.0302-.1097.0305-.1725l.0256-9.6718.0003-.0471c.0002-.0314.0003-.0471.0004-.0785l.0004-.0628.0002-.0314c.0001-.0157.0002-.0314-.0145-.0472.0001-.0157-.0146-.0471-.0292-.0786 0 0 .0002-.0314-.0146-.0315.0001-.0157-.0293-.0473-.0439-.0631 0-.0157-.0294-.0315-.044-.063l-.0294-.0316c-.0147-.0158-.0294-.0316-.0589-.0474 0 0-.0295-.0159-.0442-.0317l-.0147-.0001s-.0296-.0001-.0443-.0159c-.0148-.0001-.0443-.016-.059-.0318-.0147 0-.0295-.0001-.0443-.0002 0 0-.0444-.0003-.0591-.0004-.0296-.0001-.0444-.0002-.074-.0004l-.0147-.0001s-.0296-.0001-.0444-.0002c-.0296-.0002-.0591-.0003-.0739-.0004l-.0444-.0003s-.0147-.0001-.0295-.0002c0 0-.0296-.0001-.0445.0155-.0295-.0002-.0444.0154-.0741.031 0 0-.0147-.0001-.0296.0155l-7.8921 4.7753s-.0891.0623-.1337.1091c0 0-.0149.0313-.0297.0312-.0298.0313-.0447.0626-.0746.1095 0 0-.0149.0313-.0298.0469-.0298.047-.045.1097-.06.1567-.0004.0628-.0154.1098-.0158.1726l-.0001.0157-.118-.0477Zm1.4168.432 6.4828-3.9197-.0453 7.9445-6.4533 3.9199.0453-7.9446-.0295-.0001Z" fill="#393D45" fill-opacity=".76"/>
	  <path d="M20.4167 39.3828v-.7751l11.3478-6.9126c.5936 1.4228.9356 2.8988.9356 4.2367v.0213c0 .5309-.0603 1.0087-.1509 1.4228-.1106.4885-.2917.892-.503 1.2212-.2112.3291-.4728.5733-.7645.7539h-.0202v.0106h-.0201l-.0201.0212h-.0604l-.0201.0212h-.0201v.0106h-.0201v.0107h-.0201l-.0202.0212H31.01l-.0201.0212-.0201.0107h-.0403l-.01.0106h-.0101l-.0201.0106h-.0402l-.0101.0106h-.0503l-.0201.0106h-.0503l-.0201.0107h-1.2676l-.0302-.0107H29.34l-.0301-.0106h-.0805l-.0201-.0106h-.0604l-.0302-.0106h-.1207l-.0302-.0213h-.0905v-.0106h-.0302l-.0201-.0212-.0403-.0213h-.0603v-.0106h-.0201l-.0403-.0212-.0201-.0106h-.0302l-.0302-.0319h-.0302v-.0106l-.0402-.0212-.0402-.0212-.0302-.0107-.0403-.0212h-.0201l-.0503-.0212-.0201-.0106-.0402-.0213h-.0202l-.0402-.0318-.0402-.0213h-.0202l-.0402-.0318-.0402-.0213-.0403-.0212s-.0402-.0212-.0603-.0319c-.0503-.0318-.0906-.053-.1308-.0743-.2314-.138-.5232-.0637-.6539.1805-.1308.2443-.0604.5521.171.6902.0603.0318.1107.0637.161.0956.0301.0106.0503.0318.0804.0424l.0403.0213.0402.0212.0403.0212.0301.0213.0403.0212.0402.0212.0302.0213.0402.0212.0302.0213.0503.0212.0201.0106.0503.0213.0302.0106.0403.0212.0402.0212.0302.0107.0402.0212h.0302v.0212h.0302v.0107l.0402.0212.0302.0106.0402.0212h.0101l.0201.0107h.0403v.0106h.0301l.0101.0106h.0402l.0302.0212h.0101l.0402.0213.0302.0106.0403.0106.0301.0106.0302.0106.0302.0107h.0704l.0302.0106h.1308l.0201.0106h.0302l.0302.0106h1.5794l.0201-.0106h.0101l.0302-.0106h.0503l.01-.0106h.0201l.0302-.0107h.0302l.0302-.0106h.0201l.0201-.0106h.0201L31 40.4765h.0201l.0302-.0212h.0302l.0301-.0107h.0202l.01-.0106h.0201l.0202-.0212h.0201l.0302-.0213.0201-.0106.0302-.0212.0201-.0106.0302-.0106.0201-.0107.0302-.0212h.0201l.01-.0212h.0302v-.0107h.0201v-.0212h.0202v-.0106h.0201v-.0212c.4225-.2549.7847-.6159 1.0764-1.0512.2918-.446.503-.9663.6439-1.5503.1207-.5097.1811-1.0619.1811-1.6671v-.0213c0-.1699 0-.3504-.0202-.5203.0503.0319.0906.0531.1308.085.0201.0106.0503.0318.0805.0425l.0402.0212.0403.0212.0503.0319.0302.0212.0402.0213.0402.0212.0302.0212.0403.0213.0301.0106.0503.0212.0202.0106.0503.0213.0301.0212.0403.0213.0402.0212.0302.0212.0402.0213.0403.0212.0302.0106.0402.0213h.0302v.0106l.0402.0212h.0101l.0201.0106h.0402v.0213h.0302v.0106h.0403v.0106h.0302v.0106h.0402v.0106h.0704v.0107h.0302l.0302.0212.0302.0106h.0301l.0302.0106.0302.0107h.0704l.0403.0106h.0503l.0301.0106h.2717l.0301.0106h1.4588v-.0106h.0503v-.0106h.0201v-.0106h.0302l.0201-.0213h.0201l.0201-.0106h.0202l.0201-.0106h.0302l.0201-.0213.0302-.0106h.0301l.0302-.0212h.0302l.0302-.0213h.0201l.0302-.0212.0201-.0106.0302-.0106.0201-.0106.0302-.0213h.0201V35.9h.0302v-.0106h.0201v-.0107h.0302v-.0212h.0201v-.0212c.4225-.2549.7847-.6159 1.0764-1.0513.2918-.4459.503-.9662.6439-1.5502.1207-.5097.1811-1.0619.1811-1.6671v-.0213c0-1.4122-.322-2.8882-.8753-4.3111l6.3581-3.8757c.4426 1.2317.7042 2.4847.6941 3.6315v.0212c0 .531-.0603 1.0088-.1509 1.4229-.1107.4885-.2817.892-.503 1.2211-.2113.3292-.4728.5734-.7646.7539h-.0201v.0107h-.0201l-.0201.0212h-.0202l-.0201.0212h-.0201v.0107h-.0201v.0106h-.0201l-.0202.0212-.0201.0106h-.0302l-.0201.0213h-.0201l-.0201.0212h-.0302v.0106h-.0201l-.0201.0106h-.0403l-.0201.0107h-.0503l-.0302.0106h-.0503l-.0201.0106h-1.3279l-.0302-.0106h-.0604l-.0302-.0106h-.1207l-.0302-.0213h-.2112l-.0403-.0212h-.0603l-.0302-.0213-.0403-.0106h-.0301l-.0403-.0212h-.0201l-.0402-.0212h-.0604v-.0107h-.0302v-.0106h-.0302l-.0301-.0318-.0403-.0107-.0302-.0106-.0402-.0212-.0201-.0106-.0403-.0213h-.0201l-.0503-.0212-.0201-.0106-.0402-.0213-.0302-.0106-.0302-.0212-.0302-.0213h-.0201v-.0106l-.0402-.0212-.0302-.0212-.0403-.0213-.0603-.0318s-.0906-.0531-.1409-.085c-.2314-.138-.5231-.0531-.6539.1805-.1308.2443-.0503.5522.171.6902.0503.0319.1006.0637.1509.0956 0 0 .0503.0319.0805.0425l.0403.0212.0402.0212.0402.0319.0302.0106.0403.0213.0402.0212.0302.0212.0402.0213.0202.0212.0402.0212.0201.0107.0503.0212h.0101l.0302.0212.0402.0213.0302.0212.0402.0212.0403.0213.0301.0212.0302.0106.0403.0213.0301.0106.0403.0212.0302.0106.0402.0213.0302.0106.0402.0106.0302.0106.0402.0107.0302.0106h.0403v.0106h.0301v.0106h.0302v.0106h.0302v.0106h.0302v.0107h.0603v.0106h.1912l.0302.0106h1.7102l.0201-.0212.0302-.0107h.0201l.0302-.0106h.0201l.0302-.0106h.0101l.0201-.0106h.0302v-.0106h.0201v-.0106h.0302v-.0107h.0201v-.0106h.0201l.0201-.0212h.0201l.0302-.0213h.0201l.0101-.0106h.0302v-.0106h.0201v-.0106h.0302v-.0212h.0201v-.0213h.0302v-.0106h.0201v-.0106h.0302v-.0106h.0201v-.0213c.4225-.2548.7847-.6158 1.0764-1.0512.2918-.446.5031-.9663.6439-1.5503.0905-.3716.1408-.7645.171-1.1786h.0101v.0106h.0302v.0106l.0402.0212h.0101l.0201.0106.0402.0213.0201.0106.0503.0212.0302.0107.0403.0212.0402.0212.0302.0106.0402.0213.0403.0212.0301.0106.0403.0213.0302.0106.0402.0212.0302.0107.0402.0106.0302.0106.0403.0212.0301.0106h.0101l.0402.0213h.0302l.0403.0106.0301.0106.0302.0106h.0604l.01.0107h.0604l.0101.0106h.1408v.0106h.0604l.0301.0106h1.5292l.0302-.0106h.171v-.0106h.0503l.0201-.0106h.0201l.0302-.0213h.0503l.0101-.0212h.0201l.0201-.0213.0201-.0106.0302-.0106h.0302l.0302-.0212h.0201l.0302-.0213.0201-.0106.0302-.0212.0201-.0106.0302-.0213.0201-.0106h.0201l.0302-.0212.0201-.0213h.0302v-.0106h.0201v-.0212c.4225-.2549.7847-.6159 1.0765-1.0513.2917-.4459.503-.9662.6438-1.5502.1207-.5097.1811-1.0619.1811-1.6671v-.0213c0-1.3485-.3018-2.7714-.8149-4.1412l6.4788-3.95c.3319 1.0512.513 2.113.513 3.0899v.0213c0 .5309-.0603 1.0087-.1509 1.4228-.1106.4885-.2817.892-.503 1.2212-.2112.3291-.4728.5734-.7645.7539h-.0202l-.0201.0212h-.0402l-.0202.0213h-.0301v.0106h-.0202l-.0201.0212h-.0201v.0106h-.0201l-.0101.0106-.0201.0107H56.08l-.0202.0212h-.0704l-.0201.0106h-.0704l-.0101.0106h-.0503l-.0302.0107h-.01l-.0302.0106h-.0503l-.0101.0106H54.41l-.0302-.0106h-.0503l-.0302-.0106h-.0503v-.0107h-.0302l-.0301-.0106-.0302-.0106h-.0201l-.0302-.0212h-.0604v-.0107h-.0603l-.0302-.0212-.0403-.0106h-.0302v-.0106l-.0402-.0213h-.0604v-.0106h-.0201l-.0402-.0318h-.0302l-.0302-.0213-.0402-.0106-.0302-.0106-.0302-.0106-.0402-.0213-.0201-.0106-.0403-.0212-.0201-.0106-.0402-.0213-.0202-.0106-.0402-.0212-.0302-.0107-.0302-.0212-.0402-.0212-.0302-.0106-.0402-.0213-.0403-.0212-.0301-.0213c-.0202-.0106-.0403-.0212-.0705-.0424 0 0-.0905-.0531-.1307-.085-.2314-.138-.5232-.0637-.654.1805-.1307.2443-.0603.5522.1711.6902.0603.0319.1106.0637.1609.0956 0 0 .0503.0319.0704.0425l.0403.0212.0402.0212.0403.0319.0302.0212.0402.0213.0402.0212.0302.0213.0403.0212.0301.0212.0503.0213.0202.0106.0503.0212h.01l.0302.0213.0402.0212.0403.0212.0302.0213.0402.0212.0302.0212.0302.0107.0402.0212h.0302v.0106l.0402.0213h.0101l.0302.0106.0402.0106.0302.0106.0402.0212.0302.0107.0402.0106.0302.0106.0403.0106h.01l.0302.0106h.0302l.0302.0107.0301.0106h.0302l.0101.0106h.0302l.0302.0212h.01l.0302.0106h.2314l.0302.0107h.1106l.0302.0106h1.2978l.0301-.0106h.0604l.0101-.0107h.0201l.0302-.0106h.0301l.0302-.0106h.0201l.0101-.0106h.0302l.0201-.0212h.0101l.0301-.0213h.0202l.0301-.0106h.0302l.0201-.0106h.0202l.0201-.0106h.0201l.0201-.0213h.0201l.0302-.0212h.0201l.0302-.0212.0202-.0107.0301-.0212h.0202v-.0106h.0301v-.0213h.0201v-.0106h.0302v-.0212h.0202c.4225-.2655.7846-.6265 1.0764-1.0725.2917-.446.503-.9663.6438-1.5503.1208-.5097.1811-1.0618.1811-1.6671v-.0212c0-1.1787-.2314-2.3998-.6237-3.6103l6.3941-3.5572.0301 10.1194L18.636 48.8545l-.0201-9.3443 1.8008-.1274Z" fill="#fff"/>
	  <path d="M52.1264 23.3597c0 .5309-.0604 1.0087-.1509 1.4228-.1107.4885-.2817.892-.503 1.2211-.2113.3292-.4729.5734-.7646.754h-.0503l-.0201.0318h-.0101l-.0201.0213-.0201.0106h-.0201l-.0202.0212h-.0402l-.0201.0212h-.0604l-.0201.0213h-.0302v.0106h-.0201l-.0201.0106h-.0201l-.0202.0106h-.0503l-.0201.0107h-1.4185l-.0302-.0107h-.0301l-.0302-.0106h-.0302l-.0302-.0106h-.0603l-.0302-.0106h-.0906l-.0301-.0213-.0302-.0106h-.0906l-.0301-.0212-.0302-.0106h-.0302v-.0106h-.0302l-.0302-.0213-.0402-.0212h-.0201l-.0403-.0213h-.0201l-.0402-.0212h-.0302v-.0106h-.0302l-.0302-.0319-.0301-.0106-.0302-.0106-.0403-.0212h-.0301l-.0503-.0319H47.72l-.0402-.0319h-.0101l-.0201-.0106-.0402-.0212-.0202-.0106-.0402-.0213-.0302-.0212h-.0302v-.0106l-.0503-.0213-.0402-.0212-.0402-.0212c-.0202-.0107-.0403-.0213-.0604-.0319 0 0-.0905-.0531-.1308-.0849-.01 0-.0302-.0107-.0402-.0213-.0805-1.1574-.3622-2.3467-.7948-3.5041l5.0905-3.1006c.4426 1.2318.6941 2.4848.6941 3.6316v.0212l.0101.0319ZM33.5552 34.562c-.1509-1.1255-.4829-2.2723-.9557-3.3766l5.694-3.4723c.4829 1.2849.7646 2.6016.7646 3.8014v.0213c0 .5309-.0503 1.0087-.1509 1.4229-.1107.4884-.2817.8919-.503 1.2211-.2113.3291-.4728.5734-.7646.7539h-.0201l-.0201.0212-.0201.0106-.0202.0107h-.0201l-.0201.0212h-.0201l-.0201.0212h-.0403l-.0201.0213h-.0604l-.0201.0212-.0201.0106h-.0402l-.0101.0106h-.0101l-.0201.0107h-.0302l-.0201.0106h-.0503l-.0302.0106h-.0503l-.0201.0106h-1.2474l-.0302-.0106h-.1509l-.0201-.0106h-.0503l-.0302-.0106h-.0604l-.0302-.0213h-.0603l-.0302-.0212h-.0402v-.0106h-.0604l-.0302-.0213-.0402-.0106h-.0302l-.0403-.0106h-.0603l-.0201-.0212-.0403-.0213-.0302-.0106-.0301-.0106h-.0302v-.0106h-.0302v-.0107l-.0402-.0212-.0403-.0212-.0302-.0106-.0402-.0213-.0201-.0106-.0503-.0212-.0302-.0107-.0402-.0212-.0202-.0106-.0402-.0212-.0402-.0213-.0302-.0106-.0403-.0212-.0402-.0213-.0302-.0212s-.0402-.0212-.0704-.0425c-.0503-.0318-.0905-.0531-.1308-.0743-.1811-.1062-.3923-.085-.5432.0425l-.0101-.0107ZM19.4811 49.895l.1107 39.0759-3.1891-1.9538-.1006-39.0759 1.67 1.03 1.509.9238Zm-.0001-1.1786-3.189-1.9538-.0201-10.1088 3.179 1.9538.0301 10.1088Zm38.9229-34.425-6.519 3.9713c-.1609-.3504-.332-.6902-.5131-1.03-.3521-.6477-.7545-1.2636-1.187-1.837l6.6296-4.035c.3119.4354.6036.9026.8652 1.3804.2716.4991.5231 1.0194.7243 1.5503Zm-7.8671 3.4509c.1811.3398.3521.6796.5131 1.03l-5.1005 3.1112c-.161-.3504-.332-.6902-.5131-1.0194-.3521-.6477-.7545-1.2636-1.1972-1.837l5.1005-3.1006c.4427.5628.8451 1.1787 1.1972 1.8264v-.0106Zm7.9677-5.511c-.2616-.4778-.5534-.945-.8652-1.391l2.9677-1.80514 3.1891 1.95384-4.5673 2.782c-.2113-.5203-.4628-1.0406-.7344-1.5397h.0101ZM45.1144 22.3826l-6.3781 3.8864c-.1409-.2867-.2817-.584-.4326-.8601-.3823-.7008-.825-1.3698-1.2978-1.9857l6.3983-3.897c.4426.5628.845 1.1893 1.2072 1.837.1811.3292.3521.6796.5131 1.0194h-.0101Zm-7.2031 4.3959L32.177 30.272c-.0805-.1487-.1509-.2974-.2314-.446-.4627-.8389-.9959-1.6353-1.5895-2.3467l5.8048-3.5359c.4828.6052.9255 1.2742 1.3078 1.975.1509.2867.3018.5734.4326.8601h.01Zm-15.4021 5.9252c.2515-.0849.3923-.3716.3118-.6371l6.68-4.0668c.6036.7008 1.1468 1.4865 1.6096 2.336.0805.1487.161.2973.2314.446l-11.4082 6.9551-3.1891-1.9538 5.2715-3.2068c.1207.1381.3119.2018.503.138l-.01-.0106Z" fill="#fff"/>
	  <path d="M19.9305 38.793v10.3138" stroke="#393D45" stroke-width=".928241"/>
	  <path d="m15.7998 46.9166 1.3769.842 2.7537 1.6838M64.4199 11.297l-4.6216 2.7927-9.2431 5.5854" stroke="#393D45" stroke-width=".859482"/>
	  <path d="M30.3561 26.9272 25.426 30.023l-9.8603 6.1914" stroke="#393D45" stroke-width="1.03138"/>
	</g>
	<defs>
	  <clipPath id="a">
		<path fill="#fff" transform="translate(.0549316 .975708)" d="M0 0h65.3207v89.3862H0z"/>
	  </clipPath>
	</defs>
  </svg>