<svg width="244" height="244" viewBox="0 0 244 244" fill="none" xmlns="http://www.w3.org/2000/svg">
<g clip-path="url(#clip0_87_110)">
<path opacity="0.08" d="M122.256 117.87C120.756 117.844 119.274 118.188 117.94 118.873C116.835 119.476 15.2481 177.798 14.1439 178.4C13.644 178.616 13.2119 178.963 12.8938 179.405C12.5756 179.847 12.3832 180.367 12.337 180.91C12.3963 181.448 12.5938 181.963 12.9104 182.402C13.227 182.842 13.6519 183.192 14.1439 183.419C15.2481 184.022 116.835 242.344 117.94 242.946C119.273 243.639 120.753 244 122.256 244C123.759 244 125.239 243.639 126.572 242.946C127.677 242.344 229.264 184.022 230.368 183.419C230.868 183.204 231.3 182.856 231.618 182.414C231.936 181.972 232.129 181.452 232.175 180.91C232.116 180.371 231.918 179.857 231.602 179.417C231.285 178.978 230.86 178.627 230.368 178.4C229.264 177.798 127.677 119.476 126.572 118.873C125.222 118.235 123.75 117.892 122.256 117.87Z" fill="url(#paint0_linear_87_110)"/>
<path d="M231.673 108.232V137.544C231.614 138.083 231.416 138.597 231.1 139.037C230.783 139.476 230.358 139.827 229.866 140.054C228.762 140.656 127.175 198.978 126.071 199.581C124.737 200.273 123.257 200.635 121.754 200.635C120.252 200.635 118.771 200.273 117.438 199.581C116.333 198.978 14.7462 140.656 13.642 140.054C13.1421 139.838 12.71 139.49 12.3918 139.048C12.0737 138.607 11.8813 138.087 11.8351 137.544V108.333V107.831H11.9355C12.0722 107.4 12.2935 107 12.5865 106.655C12.8796 106.31 13.2384 106.028 13.642 105.823C14.7462 105.221 116.333 45.9951 117.438 45.3929C118.771 44.7004 120.252 44.3389 121.754 44.3389C123.257 44.3389 124.737 44.7004 126.071 45.3929C127.175 45.9951 228.762 105.221 229.866 105.823C230.27 106.028 230.629 106.31 230.922 106.655C231.215 107 231.436 107.4 231.573 107.831H231.673V108.232Z" fill="url(#paint1_linear_87_110)"/>
<path d="M229.866 110.441C228.762 111.043 127.175 169.767 126.071 170.47C124.737 171.162 123.257 171.524 121.754 171.524C120.252 171.524 118.771 171.162 117.438 170.47C116.333 169.867 14.7462 111.143 13.642 110.441C12.9879 110.212 12.4466 109.74 12.1292 109.124C11.8118 108.508 11.7425 107.794 11.9355 107.128C12.079 106.737 12.306 106.382 12.6007 106.087C12.8954 105.792 13.2507 105.565 13.642 105.422C14.7462 104.819 116.333 46.0955 117.438 45.3929C118.771 44.7004 120.252 44.3389 121.754 44.3389C123.257 44.3389 124.737 44.7004 126.071 45.3929C127.175 45.9951 228.762 104.719 229.866 105.422C230.192 105.53 230.492 105.702 230.75 105.928C231.008 106.155 231.218 106.43 231.368 106.739C231.518 107.048 231.604 107.384 231.622 107.726C231.64 108.069 231.589 108.412 231.472 108.734C231.351 109.121 231.143 109.476 230.865 109.772C230.587 110.067 230.245 110.296 229.866 110.441ZM222.639 105.221C221.635 104.619 126.271 49.107 125.167 48.5047C123.908 47.8615 122.515 47.5261 121.102 47.5261C119.688 47.5261 118.295 47.8615 117.036 48.5047C116.032 49.107 20.6688 104.619 19.5646 105.221C19.0801 105.397 18.6615 105.717 18.3657 106.14C18.0699 106.562 17.9112 107.064 17.9112 107.58C17.9112 108.095 18.0699 108.598 18.3657 109.02C18.6615 109.442 19.0801 109.763 19.5646 109.939C20.5684 110.541 116.032 166.053 117.036 166.655C118.295 167.298 119.688 167.634 121.102 167.634C122.515 167.634 123.908 167.298 125.167 166.655C126.171 166.053 221.635 110.541 222.639 109.939C222.952 109.832 223.241 109.664 223.488 109.443C223.735 109.222 223.935 108.954 224.076 108.654C224.216 108.354 224.295 108.028 224.307 107.697C224.319 107.366 224.263 107.036 224.144 106.727C223.834 106.064 223.301 105.531 222.639 105.221Z" fill="white" fill-opacity="0.5"/>
<path d="M117.136 166.454C116.333 166.053 66.1421 136.841 38.035 120.579C68.4509 103.012 116.635 75.2063 117.337 74.7044C118.671 74.0119 120.151 73.6504 121.654 73.6504C123.156 73.6504 124.637 74.0119 125.97 74.7044C126.773 75.1059 174.254 102.611 204.77 120.278C176.764 136.54 125.97 166.053 125.167 166.454C123.926 167.097 122.549 167.433 121.152 167.433C119.754 167.433 118.377 167.097 117.136 166.454Z" fill="#333C5E"/>
<path opacity="0.32" d="M24.8849 128.209L30.2051 131.421" stroke="#142149" stroke-width="2.14819" stroke-linecap="round" stroke-linejoin="round"/>
<path opacity="0.48" d="M24.8849 133.528L30.2051 136.741" stroke="#142149" stroke-width="2.14819" stroke-linecap="round" stroke-linejoin="round"/>
<path opacity="0.48" d="M34.5216 133.528L39.8419 136.741" stroke="#142149" stroke-width="2.14819" stroke-linecap="round" stroke-linejoin="round"/>
<path opacity="0.32" d="M34.5216 138.949L39.8419 142.161" stroke="#142149" stroke-width="2.14819" stroke-linecap="round" stroke-linejoin="round"/>
<path opacity="0.32" d="M210.593 132.927V139.954" stroke="#142149" stroke-width="2.01769" stroke-linecap="round" stroke-linejoin="round"/>
<path opacity="0.32" d="M214.608 130.417V137.444" stroke="#142149" stroke-width="2.01769" stroke-linecap="round" stroke-linejoin="round"/>
<path opacity="0.32" d="M218.623 127.907V135.436" stroke="#142149" stroke-width="2.01769" stroke-linecap="round" stroke-linejoin="round"/>
<path opacity="0.32" d="M222.639 125.799V132.826" stroke="#142149" stroke-width="2.01769" stroke-linecap="round" stroke-linejoin="round"/>
<path opacity="0.32" d="M69.5551 157.319L108.303 179.504" stroke="#142149" stroke-width="2.06788" stroke-linecap="round" stroke-linejoin="round"/>
<mask id="mask0_87_110" style="mask-type:luminance" maskUnits="userSpaceOnUse" x="12" y="-1" width="220" height="158">
<path d="M231.673 64.0645C231.673 63.4622 231.573 62.2576 229.565 61.1534L125.167 1.12461C124.074 0.458927 122.831 0.0791785 121.553 0.0203995C120.187 -0.115546 118.821 0.279891 117.739 1.12461L65.4394 31.3398L56.0035 36.7604L26.5914 53.8255L15.2481 60.25C12.8389 61.6553 12.2366 62.9603 12.2366 63.8637H12.1363V92.4728C12.1363 93.9785 13.1401 95.4843 15.0474 96.5885L116.333 155.312C119.646 157.119 123.661 157.42 126.472 155.915L137.615 149.49L137.715 149.59L168.633 131.321L228.762 96.99C230.77 95.8858 231.673 94.38 231.673 92.8743V64.5664H231.573C231.557 64.3929 231.592 64.2186 231.673 64.0645Z" fill="white"/>
</mask>
<g mask="url(#mask0_87_110)">
<g opacity="0.8">
<path d="M77.0838 109.146V140.064L167.428 191.651V110.441L77.0838 109.146Z" fill="url(#paint2_linear_87_110)"/>
</g>
<g opacity="0.8">
<path d="M26.8925 82.0439V128.923L117.237 180.419V85.3566L26.8925 82.0439Z" fill="url(#paint3_linear_87_110)"/>
</g>
<g opacity="0.8">
<path d="M126.271 79.0322V168.563L216.616 116.164V81.2306L126.271 79.0322Z" fill="url(#paint4_linear_87_110)"/>
</g>
<path d="M76.08 53.2338V46.207H166.424V53.2338C166.424 53.2338 166.424 55.643 165.421 56.2453L123.461 80.5379C122.841 80.8265 122.161 80.9591 121.478 80.9241C120.796 80.8891 120.132 80.6876 119.546 80.3371L77.4853 56.0445C76.2808 55.4422 76.08 53.2338 76.08 53.2338Z" fill="url(#paint5_linear_87_110)"/>
<path d="M76.7827 45.0927L119.445 20.3985C120.065 20.1099 120.745 19.9773 121.428 20.0123C122.11 20.0473 122.774 20.2489 123.36 20.5993L165.421 44.9019C166.625 45.6046 166.725 46.6084 165.722 47.2107L123.059 71.9049C122.44 72.1935 121.759 72.3261 121.077 72.2911C120.394 72.2561 119.731 72.0546 119.144 71.7041L77.0838 47.3111C75.8792 46.6084 75.7788 45.6046 76.7827 45.0927Z" fill="url(#paint6_linear_87_110)"/>
<path d="M125.267 81.3412V74.3145H216.616V81.3412C216.616 81.3412 216.616 83.7504 215.612 84.3527L172.849 108.645C172.229 108.934 171.549 109.067 170.866 109.032C170.184 108.997 169.52 108.795 168.934 108.445L126.673 84.152C125.468 83.5497 125.267 81.3412 125.267 81.3412Z" fill="url(#paint7_linear_87_110)"/>
<path d="M126.974 73.3104L169.637 48.6163C170.256 48.3277 170.937 48.1951 171.619 48.2301C172.301 48.2651 172.965 48.4666 173.552 48.8171L215.612 73.1097C216.816 73.8124 216.917 74.8162 215.913 75.4185L173.25 100.113C172.631 100.401 171.95 100.534 171.268 100.499C170.586 100.464 169.922 100.262 169.335 99.9118L127.275 75.6192C126.071 74.9166 125.97 73.8124 126.974 73.3104Z" fill="url(#paint8_linear_87_110)"/>
<path d="M26.8925 81.3412V74.3145H117.237V81.3412C117.237 81.3412 117.237 83.7504 116.233 84.3527L74.2731 108.645C73.6537 108.934 72.9731 109.067 72.2907 109.032C71.6083 108.997 70.9448 108.795 70.3582 108.445L28.2979 84.152C27.0933 83.5497 26.8925 81.3412 26.8925 81.3412Z" fill="url(#paint9_linear_87_110)"/>
<path d="M27.5952 73.1095L70.1574 48.5157C70.7768 48.2271 71.4574 48.0945 72.1398 48.1295C72.8223 48.1645 73.4857 48.366 74.0723 48.7165L116.032 72.9087C117.237 73.6114 117.337 74.6152 116.333 75.2175L73.7712 99.8112C73.1518 100.1 72.4712 100.232 71.7888 100.197C71.1064 100.162 70.4429 99.9609 69.8563 99.6105L27.8963 75.3179C26.6917 74.7156 26.5914 73.7118 27.5952 73.1095Z" fill="url(#paint10_linear_87_110)"/>
<path d="M76.8831 109.548V102.521H167.428V109.548C167.428 109.548 167.428 111.957 166.424 112.56L124.364 136.852C123.745 137.141 123.064 137.274 122.382 137.239C121.699 137.204 121.036 137.002 120.449 136.652L78.3888 112.349C77.0838 111.757 76.8831 109.548 76.8831 109.548Z" fill="url(#paint11_linear_87_110)"/>
<path d="M77.385 101.919L120.148 77.215C120.767 76.9263 121.448 76.7937 122.13 76.8287C122.813 76.8637 123.476 77.0653 124.063 77.4157L166.224 101.809C167.428 102.511 167.529 103.515 166.525 104.117L123.762 128.812C123.142 129.1 122.462 129.233 121.779 129.198C121.097 129.163 120.433 128.961 119.847 128.611L77.6861 104.218C76.4815 103.525 76.3811 102.521 77.385 101.919Z" fill="url(#paint12_linear_87_110)"/>
<path d="M62.9299 71.1016L70.057 75.2072L70.9605 70.4893L62.9299 71.1016Z" fill="white" stroke="white" stroke-width="2.00765" stroke-linecap="round" stroke-linejoin="round"/>
<path opacity="0.4" d="M70.8601 87.4637L96.0561 72.9082" stroke="#101C4F" stroke-width="2.00765" stroke-linecap="round" stroke-linejoin="round"/>
<path d="M70.8601 87.4644L80.3965 81.9434" stroke="white" stroke-width="2.00765" stroke-linecap="round" stroke-linejoin="round"/>
<path d="M110.812 46.6084V52.1194H120.349" stroke="white" stroke-width="2.00765" stroke-linecap="round" stroke-linejoin="round"/>
<path d="M120.951 39.8828H130.487V45.4039" stroke="white" stroke-width="2.00765" stroke-linecap="round" stroke-linejoin="round"/>
<path d="M116.434 40.3848L124.966 51.0253" stroke="white" stroke-width="2.00765" stroke-linecap="round" stroke-linejoin="round"/>
<path d="M100.573 104.027L126.171 88.9697" stroke="white" stroke-width="2.00765" stroke-linecap="round" stroke-linejoin="round"/>
<path d="M104.087 106.537L129.684 91.4795" stroke="white" stroke-width="2.00765" stroke-linecap="round" stroke-linejoin="round"/>
<path d="M108.604 109.046L134.302 93.9883" stroke="white" stroke-width="2.00765" stroke-linecap="round" stroke-linejoin="round"/>
<path d="M113.121 111.555L138.819 96.498" stroke="white" stroke-width="2.00765" stroke-linecap="round" stroke-linejoin="round"/>
<path d="M117.136 114.065L142.834 99.0078" stroke="white" stroke-width="2.00765" stroke-linecap="round" stroke-linejoin="round"/>
<path d="M121.152 116.675L138.819 106.536" stroke="white" stroke-width="2.00765" stroke-linecap="round" stroke-linejoin="round"/>
<path d="M96.0562 101.517L121.654 86.46" stroke="white" stroke-width="2.00765" stroke-linecap="round" stroke-linejoin="round"/>
<path d="M163.714 82.0428L163.814 74.5141L178.771 75.1164L179.374 70.3984L187.003 71.0007L192.825 73.9118L171.644 86.2489L163.714 82.0428Z" fill="white" stroke="white" stroke-width="3.01148" stroke-linecap="round" stroke-linejoin="round"/>
<path d="M168.833 66.9858C170.441 66.9858 171.745 66.1769 171.745 65.179C171.745 64.181 170.441 63.3721 168.833 63.3721C167.226 63.3721 165.922 64.181 165.922 65.179C165.922 66.1769 167.226 66.9858 168.833 66.9858Z" fill="white" stroke="white" stroke-width="3.01148" stroke-linecap="round" stroke-linejoin="round"/>
</g>
<path opacity="0.8" d="M231.673 64.0645C231.673 63.4622 231.573 62.2576 229.565 61.1534L125.167 1.12461C124.074 0.458927 122.831 0.0791785 121.553 0.0203995C120.187 -0.115546 118.821 0.279891 117.739 1.12461L65.4394 31.3398L56.0034 36.7604L26.5913 53.8255L15.2481 60.25C14.3402 60.7783 13.5624 61.5034 12.9717 62.372C12.3811 63.2406 11.9927 64.2306 11.8351 65.2691V92.4728C12.0411 93.3502 12.435 94.1726 12.9896 94.8831C13.5441 95.5936 14.2462 96.1755 15.0473 96.5885L116.333 155.312C119.646 157.119 123.661 157.42 126.472 155.915L137.614 149.49L137.715 149.59L168.633 131.321L228.762 96.99C230.77 95.8858 231.673 94.38 231.673 92.8743V64.2653H231.573C231.573 64.3656 231.573 64.2653 231.673 64.0645Z" fill="url(#paint13_linear_87_110)"/>
</g>
<defs>
<linearGradient id="paint0_linear_87_110" x1="122.256" y1="117.87" x2="122.256" y2="244" gradientUnits="userSpaceOnUse">
<stop stop-color="#13151E" stop-opacity="0"/>
<stop offset="1" stop-color="#131532"/>
</linearGradient>
<linearGradient id="paint1_linear_87_110" x1="11.8351" y1="122.487" x2="231.673" y2="122.487" gradientUnits="userSpaceOnUse">
<stop offset="0.48" stop-color="#D2D8E6"/>
<stop offset="0.52" stop-color="#E0E4EF"/>
</linearGradient>
<linearGradient id="paint2_linear_87_110" x1="121.498" y1="192.674" x2="121.498" y2="110.375" gradientUnits="userSpaceOnUse">
<stop stop-color="#17BDFF" stop-opacity="0"/>
<stop offset="0.01" stop-color="#17BDFF" stop-opacity="0"/>
<stop offset="0.2" stop-color="#17BDFF" stop-opacity="0"/>
<stop offset="1" stop-color="#17BDFF"/>
</linearGradient>
<linearGradient id="paint3_linear_87_110" x1="71.6995" y1="181.761" x2="71.6995" y2="83.401" gradientUnits="userSpaceOnUse">
<stop stop-color="#17BDFF" stop-opacity="0"/>
<stop offset="0.01" stop-color="#17BDFF" stop-opacity="0"/>
<stop offset="0.2" stop-color="#17BDFF" stop-opacity="0"/>
<stop offset="1" stop-color="#17BDFF"/>
</linearGradient>
<linearGradient id="paint4_linear_87_110" x1="171.095" y1="167.965" x2="171.095" y2="78.4288" gradientUnits="userSpaceOnUse">
<stop stop-color="#17BDFF" stop-opacity="0"/>
<stop offset="0.01" stop-color="#17BDFF" stop-opacity="0"/>
<stop offset="0.2" stop-color="#17BDFF" stop-opacity="0"/>
<stop offset="1" stop-color="#17BDFF"/>
</linearGradient>
<linearGradient id="paint5_linear_87_110" x1="75.4777" y1="64.8041" x2="165.822" y2="64.8041" gradientUnits="userSpaceOnUse">
<stop stop-color="#1E54DB"/>
<stop offset="1" stop-color="#3A5CB7"/>
</linearGradient>
<linearGradient id="paint6_linear_87_110" x1="74.704" y1="46.5573" x2="165.053" y2="46.5573" gradientUnits="userSpaceOnUse">
<stop stop-color="#0399F6"/>
<stop offset="1" stop-color="#00B9FF"/>
</linearGradient>
<linearGradient id="paint7_linear_87_110" x1="125.298" y1="92.6287" x2="216.144" y2="92.6287" gradientUnits="userSpaceOnUse">
<stop stop-color="#1E54DB"/>
<stop offset="1" stop-color="#3A5CB7"/>
</linearGradient>
<linearGradient id="paint8_linear_87_110" x1="125.294" y1="75.6309" x2="215.644" y2="75.6309" gradientUnits="userSpaceOnUse">
<stop stop-color="#0399F6"/>
<stop offset="1" stop-color="#00B9FF"/>
</linearGradient>
<linearGradient id="paint9_linear_87_110" x1="26.6918" y1="92.6287" x2="117.036" y2="92.6287" gradientUnits="userSpaceOnUse">
<stop stop-color="#1E54DB"/>
<stop offset="1" stop-color="#3A5CB7"/>
</linearGradient>
<linearGradient id="paint10_linear_87_110" x1="26.9474" y1="75.4249" x2="117.327" y2="75.4249" gradientUnits="userSpaceOnUse">
<stop stop-color="#0399F6"/>
<stop offset="1" stop-color="#00B9FF"/>
</linearGradient>
<linearGradient id="paint11_linear_87_110" x1="76.4815" y1="121.145" x2="166.826" y2="121.145" gradientUnits="userSpaceOnUse">
<stop stop-color="#1E54DB"/>
<stop offset="1" stop-color="#3A5CB7"/>
</linearGradient>
<linearGradient id="paint12_linear_87_110" x1="76.7175" y1="104.45" x2="167.097" y2="104.45" gradientUnits="userSpaceOnUse">
<stop stop-color="#0399F6"/>
<stop offset="1" stop-color="#00B9FF"/>
</linearGradient>
<linearGradient id="paint13_linear_87_110" x1="11.8351" y1="78.4393" x2="231.673" y2="78.4393" gradientUnits="userSpaceOnUse">
<stop stop-color="#17BDFF"/>
<stop offset="1" stop-color="#17BDFF" stop-opacity="0.2"/>
</linearGradient>
<clipPath id="clip0_87_110">
<rect width="244" height="244" fill="white"/>
</clipPath>
</defs>
</svg>
