<svg width="244" height="244" viewBox="0 0 244 244" fill="none" xmlns="http://www.w3.org/2000/svg">
<g clip-path="url(#clip0_87_614)">
<path d="M231 107.9C231 108 231 108 231 108.1V137.1C230.9 138.2 230.2 139.1 229.2 139.6C228.1 140.2 126.9 198.3 125.8 198.9C123.1 200.3 119.9 200.3 117.2 198.9C116.1 198.3 14.9 140.2 13.8 139.6C12.8 139.2 12.1 138.2 12 137.1V108V107.5H12.1C12.4 106.6 13 105.9 13.8 105.5C14.9 104.9 116.1 45.9 117.2 45.3C119.9 43.9 123.1 43.9 125.8 45.3C126.9 45.9 228.1 104.9 229.2 105.5C230 105.9 230.6 106.6 230.9 107.5H231V107.9Z" fill="url(#paint0_linear_87_614)"/>
<path d="M229.2 110.1C228.1 110.7 126.9 169.2 125.8 169.9C123.1 171.3 119.9 171.3 117.2 169.9C116.1 169.3 14.9 110.8 13.8 110.1C12.4 109.6 11.7 108.1 12.1 106.8C12.4 106 13 105.4 13.8 105.1C14.9 104.5 116.1 46 117.2 45.3C119.9 43.9 123.1 43.9 125.8 45.3C126.9 45.9 228.1 104.4 229.2 105.1C230.6 105.6 231.3 107.1 230.8 108.4C230.6 109.1 230 109.8 229.2 110.1ZM222 104.9C221 104.3 126 49 124.9 48.4C122.4 47.1 119.3 47.1 116.8 48.4C115.8 49 20.8 104.3 19.7 104.9C18.4 105.4 17.7 106.8 18.2 108.1C18.5 108.8 19 109.4 19.7 109.6C20.7 110.2 115.8 165.5 116.8 166.1C119.3 167.4 122.4 167.4 124.9 166.1C125.9 165.5 221 110.2 222 109.6C223.3 109.2 224 107.7 223.5 106.4C223.3 105.8 222.7 105.3 222 104.9Z" fill="url(#paint1_linear_87_614)"/>
<path d="M116.9 165.9C116.1 165.5 66.1 136.4 38.1 120.2C68.4 102.7 116.4 75.0002 117.1 74.5002C119.8 73.1002 123 73.1002 125.7 74.5002C126.5 74.9002 173.8 102.3 204.2 119.9C176.3 136.1 125.7 165.5 124.9 165.9C122.5 167.2 119.5 167.2 116.9 165.9Z" fill="#333C5E"/>
<path d="M25 127.8L30.3 131" stroke="#142149" stroke-width="2.1386"/>
<path d="M25 133.1L30.3 136.3" stroke="#142149" stroke-width="2.1386"/>
<path d="M34.6 133.1L39.9 136.3" stroke="#142149" stroke-width="2.1386"/>
<path d="M34.6 138.5L39.9 141.7" stroke="#142149" stroke-width="2.1386"/>
<path d="M210 132.5V139.5" stroke="#142149" stroke-width="2.1386"/>
<path d="M214 130V137" stroke="#142149" stroke-width="2.1386"/>
<path d="M218 127.5V135" stroke="#142149" stroke-width="2.1386"/>
<path d="M222 125.4V132.4" stroke="#142149" stroke-width="2.1386"/>
<path d="M69.5 156.8L108.1 178.9" stroke="#142149" stroke-width="2.1386"/>
<path d="M232 64.4906L13 64.1006V68.1006C13.1 69.2006 14 71.3006 15 71.7006C16.1 72.3006 117.19 131.231 118.28 131.831C119.608 132.52 121.083 132.881 122.58 132.881C124.077 132.881 125.552 132.52 126.88 131.831C128 131.231 229.1 72.3006 230.2 71.7006C231.3 71.1006 232 69.3106 232 68.2006V64.4906Z" fill="url(#paint2_linear_87_614)"/>
<path d="M122.5 0.000387702C121.006 -0.0255223 119.529 0.317986 118.2 1.00039C117.1 1.70039 15.9 60.7004 14.8 61.3004C14.3099 61.5265 13.8865 61.8756 13.5711 62.3136C13.2557 62.7517 13.059 63.2638 13 63.8004C13.046 64.3409 13.2376 64.8588 13.5546 65.2991C13.8716 65.7393 14.302 66.0854 14.8 66.3004C15.9 66.9004 117.1 125.9 118.2 126.5C119.528 127.19 121.003 127.55 122.5 127.55C123.997 127.55 125.472 127.19 126.8 126.5C127.9 125.9 229.1 66.9004 230.2 66.3004C230.69 66.0743 231.113 65.7252 231.429 65.2872C231.744 64.8491 231.941 64.3369 232 63.8004C231.954 63.2599 231.762 62.7419 231.445 62.3017C231.128 61.8615 230.698 61.5154 230.2 61.3004C229.1 60.7004 127.9 1.70039 126.8 1.10039C125.479 0.386754 124.002 0.00899875 122.5 0.000387702Z" fill="url(#paint3_linear_87_614)"/>
<path d="M35.5 64.4003C34.7256 64.7945 33.869 65.0001 33 65.0001C32.131 65.0001 31.2744 64.7945 30.5 64.4003C29.1 63.6003 29.1 62.4003 30.5 61.6003C31.2744 61.206 32.131 61.0005 33 61.0005C33.869 61.0005 34.7256 61.206 35.5 61.6003C36.9 62.4003 36.9 63.7003 35.5 64.4003ZM125.5 116.4C124.744 116.795 123.903 117.001 123.05 117.001C122.197 117.001 121.356 116.795 120.6 116.4C119.2 115.6 119.2 114.4 120.6 113.6C121.356 113.206 122.197 113 123.05 113C123.903 113 124.744 113.206 125.5 113.6C126.8 114.4 126.8 115.7 125.5 116.4ZM125.5 12.4003C124.744 12.7946 123.903 13.0005 123.05 13.0005C122.197 13.0005 121.356 12.7946 120.6 12.4003C119.2 11.6003 119.2 10.4003 120.6 9.60027C121.356 9.20592 122.197 9 123.05 9C123.903 9 124.744 9.20592 125.5 9.60027C126.8 10.4003 126.8 11.7003 125.5 12.4003ZM221.5 65.4003C220.726 65.7945 219.869 66.0001 219 66.0001C218.131 66.0001 217.274 65.7945 216.5 65.4003C215.1 64.6003 215.1 63.4003 216.5 62.6003C217.274 62.206 218.131 62.0005 219 62.0005C219.869 62.0005 220.726 62.206 221.5 62.6003C222.9 63.4003 222.9 64.7003 221.5 65.4003Z" fill="#E6E6E6"/>
<path opacity="0.8" d="M123 32.1006L163.7 54.0006L177.8 62.1006C177.94 62.1434 178.07 62.2142 178.182 62.3087C178.293 62.4032 178.385 62.5195 178.45 62.6504C178.516 62.7814 178.554 62.9243 178.562 63.0704C178.571 63.2166 178.55 63.3629 178.5 63.5006C178.439 63.66 178.345 63.8048 178.225 63.9254C178.104 64.0461 177.959 64.1399 177.8 64.2006L124.8 94.6006C124.244 94.8853 123.624 95.0231 123 95.0006C122.377 95.0123 121.76 94.8751 121.2 94.6006L68.2 64.2006C68.06 64.1578 67.9301 64.087 67.8184 63.9925C67.7066 63.8979 67.6152 63.7817 67.5497 63.6507C67.4842 63.5198 67.4461 63.3769 67.4375 63.2308C67.429 63.0846 67.4502 62.9383 67.5 62.8006C67.5607 62.6412 67.6545 62.4964 67.7751 62.3757C67.8958 62.2551 68.0406 62.1613 68.2 62.1006L123 32.1006Z" fill="#292E47"/>
<g opacity="0.64">
<mask id="mask0_87_614" style="mask-type:luminance" maskUnits="userSpaceOnUse" x="13" y="-1" width="219" height="129">
<path d="M122.5 0.000387702C121.006 -0.0255223 119.529 0.317986 118.2 1.00039C117.1 1.70039 15.9 60.7004 14.8 61.3004C14.3099 61.5265 13.8865 61.8756 13.5711 62.3136C13.2557 62.7517 13.059 63.2638 13 63.8004C13.046 64.3409 13.2376 64.8588 13.5546 65.2991C13.8716 65.7393 14.302 66.0854 14.8 66.3004C15.9 66.9004 117.1 125.9 118.2 126.5C119.528 127.19 121.003 127.55 122.5 127.55C123.997 127.55 125.472 127.19 126.8 126.5C127.9 125.9 229.1 66.9004 230.2 66.3004C230.69 66.0743 231.113 65.7252 231.429 65.2872C231.744 64.8491 231.941 64.3369 232 63.8004C231.954 63.2599 231.762 62.7419 231.445 62.3017C231.128 61.8615 230.698 61.5154 230.2 61.3004C229.1 60.7004 127.9 1.70039 126.8 1.10039C125.479 0.386754 124.002 0.00899875 122.5 0.000387702Z" fill="white"/>
</mask>
<g mask="url(#mask0_87_614)">
<path d="M72.2 27.9004L80.5 33.1004V45.1004L89.7 50.5004" stroke="#292E47" stroke-width="0.5"/>
</g>
<mask id="mask1_87_614" style="mask-type:luminance" maskUnits="userSpaceOnUse" x="13" y="-1" width="219" height="129">
<path d="M122.5 0.000387702C121.006 -0.0255223 119.529 0.317986 118.2 1.00039C117.1 1.70039 15.9 60.7004 14.8 61.3004C14.3099 61.5265 13.8865 61.8756 13.5711 62.3136C13.2557 62.7517 13.059 63.2638 13 63.8004C13.046 64.3409 13.2376 64.8588 13.5546 65.2991C13.8716 65.7393 14.302 66.0854 14.8 66.3004C15.9 66.9004 117.1 125.9 118.2 126.5C119.528 127.19 121.003 127.55 122.5 127.55C123.997 127.55 125.472 127.19 126.8 126.5C127.9 125.9 229.1 66.9004 230.2 66.3004C230.69 66.0743 231.113 65.7252 231.429 65.2872C231.744 64.8491 231.941 64.3369 232 63.8004C231.954 63.2599 231.762 62.7419 231.445 62.3017C231.128 61.8615 230.698 61.5154 230.2 61.3004C229.1 60.7004 127.9 1.70039 126.8 1.10039C125.479 0.386754 124.002 0.00899875 122.5 0.000387702Z" fill="white"/>
</mask>
<g mask="url(#mask1_87_614)">
<path d="M134.8 88.8008L143.5 95.0008V105.001L153.9 111.901" stroke="#292E47" stroke-width="0.5"/>
</g>
<mask id="mask2_87_614" style="mask-type:luminance" maskUnits="userSpaceOnUse" x="13" y="-1" width="219" height="129">
<path d="M122.5 0.000387702C121.006 -0.0255223 119.529 0.317986 118.2 1.00039C117.1 1.70039 15.9 60.7004 14.8 61.3004C14.3099 61.5265 13.8865 61.8756 13.5711 62.3136C13.2557 62.7517 13.059 63.2638 13 63.8004C13.046 64.3409 13.2376 64.8588 13.5546 65.2991C13.8716 65.7393 14.302 66.0854 14.8 66.3004C15.9 66.9004 117.1 125.9 118.2 126.5C119.528 127.19 121.003 127.55 122.5 127.55C123.997 127.55 125.472 127.19 126.8 126.5C127.9 125.9 229.1 66.9004 230.2 66.3004C230.69 66.0743 231.113 65.7252 231.429 65.2872C231.744 64.8491 231.941 64.3369 232 63.8004C231.954 63.2599 231.762 62.7419 231.445 62.3017C231.128 61.8615 230.698 61.5154 230.2 61.3004C229.1 60.7004 127.9 1.70039 126.8 1.10039C125.479 0.386754 124.002 0.00899875 122.5 0.000387702Z" fill="white"/>
</mask>
<g mask="url(#mask2_87_614)">
<path d="M156.3 76.5L164.6 82V94L174 100.1" stroke="#292E47" stroke-width="0.5"/>
</g>
<mask id="mask3_87_614" style="mask-type:luminance" maskUnits="userSpaceOnUse" x="13" y="-1" width="219" height="129">
<path d="M122.5 0.000387702C121.006 -0.0255223 119.529 0.317986 118.2 1.00039C117.1 1.70039 15.9 60.7004 14.8 61.3004C14.3099 61.5265 13.8865 61.8756 13.5711 62.3136C13.2557 62.7517 13.059 63.2638 13 63.8004C13.046 64.3409 13.2376 64.8588 13.5546 65.2991C13.8716 65.7393 14.302 66.0854 14.8 66.3004C15.9 66.9004 117.1 125.9 118.2 126.5C119.528 127.19 121.003 127.55 122.5 127.55C123.997 127.55 125.472 127.19 126.8 126.5C127.9 125.9 229.1 66.9004 230.2 66.3004C230.69 66.0743 231.113 65.7252 231.429 65.2872C231.744 64.8491 231.941 64.3369 232 63.8004C231.954 63.2599 231.762 62.7419 231.445 62.3017C231.128 61.8615 230.698 61.5154 230.2 61.3004C229.1 60.7004 127.9 1.70039 126.8 1.10039C125.479 0.386754 124.002 0.00899875 122.5 0.000387702Z" fill="white"/>
</mask>
<g mask="url(#mask3_87_614)">
<path d="M93 16.4004L103.5 23.1004V34.1004L112.5 39.1004" stroke="#292E47" stroke-width="0.5"/>
</g>
<mask id="mask4_87_614" style="mask-type:luminance" maskUnits="userSpaceOnUse" x="13" y="-1" width="219" height="129">
<path d="M122.5 0.000387702C121.006 -0.0255223 119.529 0.317986 118.2 1.00039C117.1 1.70039 15.9 60.7004 14.8 61.3004C14.3099 61.5265 13.8865 61.8756 13.5711 62.3136C13.2557 62.7517 13.059 63.2638 13 63.8004C13.046 64.3409 13.2376 64.8588 13.5546 65.2991C13.8716 65.7393 14.302 66.0854 14.8 66.3004C15.9 66.9004 117.1 125.9 118.2 126.5C119.528 127.19 121.003 127.55 122.5 127.55C123.997 127.55 125.472 127.19 126.8 126.5C127.9 125.9 229.1 66.9004 230.2 66.3004C230.69 66.0743 231.113 65.7252 231.429 65.2872C231.744 64.8491 231.941 64.3369 232 63.8004C231.954 63.2599 231.762 62.7419 231.445 62.3017C231.128 61.8615 230.698 61.5154 230.2 61.3004C229.1 60.7004 127.9 1.70039 126.8 1.10039C125.479 0.386754 124.002 0.00899875 122.5 0.000387702Z" fill="white"/>
</mask>
<g mask="url(#mask4_87_614)">
<path d="M166.5 70.2002L174.5 75.6002H197.5L206.1 81.0002" stroke="#292E47" stroke-width="0.5"/>
</g>
<mask id="mask5_87_614" style="mask-type:luminance" maskUnits="userSpaceOnUse" x="13" y="-1" width="219" height="129">
<path d="M122.5 0.000387702C121.006 -0.0255223 119.529 0.317986 118.2 1.00039C117.1 1.70039 15.9 60.7004 14.8 61.3004C14.3099 61.5265 13.8865 61.8756 13.5711 62.3136C13.2557 62.7517 13.059 63.2638 13 63.8004C13.046 64.3409 13.2376 64.8588 13.5546 65.2991C13.8716 65.7393 14.302 66.0854 14.8 66.3004C15.9 66.9004 117.1 125.9 118.2 126.5C119.528 127.19 121.003 127.55 122.5 127.55C123.997 127.55 125.472 127.19 126.8 126.5C127.9 125.9 229.1 66.9004 230.2 66.3004C230.69 66.0743 231.113 65.7252 231.429 65.2872C231.744 64.8491 231.941 64.3369 232 63.8004C231.954 63.2599 231.762 62.7419 231.445 62.3017C231.128 61.8615 230.698 61.5154 230.2 61.3004C229.1 60.7004 127.9 1.70039 126.8 1.10039C125.479 0.386754 124.002 0.00899875 122.5 0.000387702Z" fill="white"/>
</mask>
<g mask="url(#mask5_87_614)">
<path d="M52.8 72.7002L61.2 78.0002" stroke="#292E47" stroke-width="0.5"/>
</g>
<mask id="mask6_87_614" style="mask-type:luminance" maskUnits="userSpaceOnUse" x="13" y="-1" width="219" height="129">
<path d="M122.5 0.000387702C121.006 -0.0255223 119.529 0.317986 118.2 1.00039C117.1 1.70039 15.9 60.7004 14.8 61.3004C14.3099 61.5265 13.8865 61.8756 13.5711 62.3136C13.2557 62.7517 13.059 63.2638 13 63.8004C13.046 64.3409 13.2376 64.8588 13.5546 65.2991C13.8716 65.7393 14.302 66.0854 14.8 66.3004C15.9 66.9004 117.1 125.9 118.2 126.5C119.528 127.19 121.003 127.55 122.5 127.55C123.997 127.55 125.472 127.19 126.8 126.5C127.9 125.9 229.1 66.9004 230.2 66.3004C230.69 66.0743 231.113 65.7252 231.429 65.2872C231.744 64.8491 231.941 64.3369 232 63.8004C231.954 63.2599 231.762 62.7419 231.445 62.3017C231.128 61.8615 230.698 61.5154 230.2 61.3004C229.1 60.7004 127.9 1.70039 126.8 1.10039C125.479 0.386754 124.002 0.00899875 122.5 0.000387702Z" fill="white"/>
</mask>
<g mask="url(#mask6_87_614)">
<path d="M68.6 82.2002L76 86.4002" stroke="#292E47" stroke-width="0.5"/>
</g>
<mask id="mask7_87_614" style="mask-type:luminance" maskUnits="userSpaceOnUse" x="13" y="-1" width="219" height="129">
<path d="M122.5 0.000387702C121.006 -0.0255223 119.529 0.317986 118.2 1.00039C117.1 1.70039 15.9 60.7004 14.8 61.3004C14.3099 61.5265 13.8865 61.8756 13.5711 62.3136C13.2557 62.7517 13.059 63.2638 13 63.8004C13.046 64.3409 13.2376 64.8588 13.5546 65.2991C13.8716 65.7393 14.302 66.0854 14.8 66.3004C15.9 66.9004 117.1 125.9 118.2 126.5C119.528 127.19 121.003 127.55 122.5 127.55C123.997 127.55 125.472 127.19 126.8 126.5C127.9 125.9 229.1 66.9004 230.2 66.3004C230.69 66.0743 231.113 65.7252 231.429 65.2872C231.744 64.8491 231.941 64.3369 232 63.8004C231.954 63.2599 231.762 62.7419 231.445 62.3017C231.128 61.8615 230.698 61.5154 230.2 61.3004C229.1 60.7004 127.9 1.70039 126.8 1.10039C125.479 0.386754 124.002 0.00899875 122.5 0.000387702Z" fill="white"/>
</mask>
<g mask="url(#mask7_87_614)">
<path d="M84.5 90.6006L106.7 104.301" stroke="#292E47" stroke-width="0.5"/>
</g>
<mask id="mask8_87_614" style="mask-type:luminance" maskUnits="userSpaceOnUse" x="13" y="-1" width="219" height="129">
<path d="M122.5 0.000387702C121.006 -0.0255223 119.529 0.317986 118.2 1.00039C117.1 1.70039 15.9 60.7004 14.8 61.3004C14.3099 61.5265 13.8865 61.8756 13.5711 62.3136C13.2557 62.7517 13.059 63.2638 13 63.8004C13.046 64.3409 13.2376 64.8588 13.5546 65.2991C13.8716 65.7393 14.302 66.0854 14.8 66.3004C15.9 66.9004 117.1 125.9 118.2 126.5C119.528 127.19 121.003 127.55 122.5 127.55C123.997 127.55 125.472 127.19 126.8 126.5C127.9 125.9 229.1 66.9004 230.2 66.3004C230.69 66.0743 231.113 65.7252 231.429 65.2872C231.744 64.8491 231.941 64.3369 232 63.8004C231.954 63.2599 231.762 62.7419 231.445 62.3017C231.128 61.8615 230.698 61.5154 230.2 61.3004C229.1 60.7004 127.9 1.70039 126.8 1.10039C125.479 0.386754 124.002 0.00899875 122.5 0.000387702Z" fill="white"/>
</mask>
<g mask="url(#mask8_87_614)">
<path d="M40.4 46.4004L48.4 51.6004H70.4L78.1 56.4004" stroke="#292E47" stroke-width="0.5" stroke-linecap="square"/>
</g>
</g>
<path d="M186.9 47.0008C187.017 46.9213 187.159 46.8859 187.3 46.9008C187.5 46.9008 187.6 46.9008 187.7 47.0008L192.4 49.8008L197.2 52.6008C197.261 52.6484 197.311 52.709 197.345 52.7782C197.38 52.8474 197.399 52.9235 197.4 53.0008C197.4 53.1008 197.3 53.1008 197.2 53.2008L192.4 56.0008L187.7 58.8008C187.577 58.8665 187.44 58.9008 187.3 58.9008C187.16 58.9008 187.023 58.8665 186.9 58.8008L182.1 56.0008L177.3 53.2008C177.239 53.1532 177.189 53.0926 177.155 53.0234C177.12 52.9542 177.101 52.8782 177.1 52.8008C177.1 52.7008 177.2 52.7008 177.3 52.6008L182.1 49.8008L186.9 47.0008Z" fill="#292E47" fill-opacity="0.7"/>
<path d="M141.8 20.7C141.917 20.6205 142.059 20.5851 142.2 20.6C142.4 20.6 142.5 20.6 142.6 20.7L147.3 23.5L152.1 26.3C152.161 26.3476 152.211 26.4082 152.245 26.4774C152.28 26.5466 152.299 26.6227 152.3 26.7C152.3 26.8 152.2 26.8 152.1 26.9L147.3 29.7L142.6 32.5C142.477 32.5657 142.34 32.6 142.2 32.6C142.06 32.6 141.923 32.5657 141.8 32.5L137 29.7L132.2 26.9C132.139 26.8524 132.089 26.7918 132.055 26.7226C132.02 26.6534 132.001 26.5774 132 26.5C132 26.4 132.1 26.4 132.2 26.3L137 23.5L141.8 20.7Z" fill="#292E47" fill-opacity="0.7"/>
<path d="M148.9 23.4004V26.1004C148.9 26.2004 148.8 26.2004 148.8 26.3004L145.6 28.3004L142.4 30.3004C142.313 30.3653 142.208 30.4004 142.1 30.4004C141.992 30.4004 141.887 30.3653 141.8 30.3004L138.6 28.3004L135.4 26.3004C135.3 26.3004 135.3 26.2004 135.3 26.1004V23.4004H148.9Z" fill="url(#paint4_linear_87_614)"/>
<path d="M141.7 19.4005C141.8 19.4005 141.9 19.3005 142 19.3005C142.054 19.294 142.109 19.2995 142.161 19.3168C142.213 19.3341 142.261 19.3627 142.3 19.4005L145.5 21.3005L148.7 23.2005C148.8 23.2005 148.8 23.3005 148.8 23.4005C148.8 23.427 148.789 23.4525 148.771 23.4712C148.752 23.49 148.727 23.5005 148.7 23.5005L145.5 25.4005L142.3 27.3005C142.2 27.3005 142.1 27.4005 142 27.4005C141.946 27.407 141.891 27.4015 141.839 27.3842C141.787 27.3669 141.74 27.3383 141.7 27.3005L138.5 25.4005L135.3 23.5005C135.2 23.5005 135.2 23.4005 135.2 23.3005C135.2 23.2874 135.203 23.2744 135.208 23.2622C135.213 23.2501 135.22 23.2391 135.229 23.2298C135.239 23.2205 135.25 23.2131 135.262 23.2081C135.274 23.2031 135.287 23.2005 135.3 23.2005L138.5 21.3005L141.7 19.4005Z" fill="url(#paint5_linear_87_614)"/>
<path d="M194.3 49.8008V52.5008C194.3 52.6008 194.2 52.6008 194.2 52.7008L191 54.7008L187.8 56.7008C187.713 56.7657 187.608 56.8008 187.5 56.8008C187.392 56.8008 187.287 56.7657 187.2 56.7008L184 54.7008L180.8 52.7008C180.7 52.7008 180.7 52.6008 180.7 52.5008V49.8008H194.3Z" fill="url(#paint6_linear_87_614)"/>
<path d="M187.1 45.8009C187.2 45.8009 187.3 45.7009 187.4 45.7009C187.454 45.6944 187.509 45.6999 187.561 45.7172C187.613 45.7345 187.66 45.7631 187.7 45.8009L190.9 47.7009L194.1 49.6009C194.2 49.6009 194.2 49.7009 194.2 49.8009C194.2 49.8274 194.189 49.8529 194.171 49.8716C194.152 49.8904 194.127 49.9009 194.1 49.9009L190.9 51.8009L187.7 53.7009C187.6 53.7009 187.5 53.8009 187.4 53.8009C187.346 53.8074 187.291 53.8018 187.239 53.7846C187.187 53.7673 187.14 53.7387 187.1 53.7009L183.9 51.8009L180.7 49.9009C180.6 49.9009 180.6 49.8009 180.6 49.7009C180.6 49.6744 180.611 49.6489 180.629 49.6302C180.648 49.6114 180.673 49.6009 180.7 49.6009L183.9 47.7009L187.1 45.8009Z" fill="url(#paint7_linear_87_614)"/>
<path d="M165 54.7102V63.0002C164.98 63.2147 164.904 63.4202 164.78 63.5959C164.655 63.7715 164.486 63.911 164.29 64.0002L144.53 75.3602L124.77 86.7002C124.207 86.9862 123.581 87.1239 122.95 87.1002C122.32 87.112 121.697 86.9749 121.13 86.7002L101.37 75.3602L81.71 64.0002C81.5139 63.911 81.3449 63.7715 81.2202 63.5959C81.0955 63.4202 81.0195 63.2147 81 63.0002V54.7002L165 54.7102Z" fill="url(#paint8_linear_87_614)"/>
<path d="M121.23 30.83C121.772 30.5296 122.381 30.3721 123 30.3721C123.619 30.3721 124.228 30.5296 124.77 30.83L144.5 42.26L164.24 53.7C164.506 53.8162 164.722 54.022 164.852 54.2814C164.982 54.5409 165.016 54.8376 164.95 55.12C164.794 55.423 164.545 55.6682 164.24 55.82L144.5 67.26L124.77 78.7C124.207 78.9847 123.581 79.1223 122.95 79.1C122.32 79.1118 121.697 78.9747 121.13 78.7L101.39 67.26L81.76 55.72C81.495 55.6056 81.2787 55.4016 81.1489 55.1439C81.0191 54.8861 80.9841 54.5909 81.05 54.31C81.1106 54.1477 81.2054 54.0003 81.3279 53.8778C81.4503 53.7553 81.5977 53.6606 81.76 53.6L101.5 42.16L121.23 30.83Z" fill="url(#paint9_linear_87_614)"/>
</g>
<defs>
<linearGradient id="paint0_linear_87_614" x1="12" y1="44.25" x2="21912" y2="44.25" gradientUnits="userSpaceOnUse">
<stop stop-color="#CAD1E0"/>
<stop offset="0.46" stop-color="#BEC5D8"/>
<stop offset="0.54" stop-color="#D4D9E6"/>
<stop offset="1" stop-color="#E4E7F0"/>
</linearGradient>
<linearGradient id="paint1_linear_87_614" x1="11.9884" y1="44.25" x2="21909.3" y2="44.25" gradientUnits="userSpaceOnUse">
<stop stop-color="#EAEDF6"/>
<stop offset="1" stop-color="#F6F8FE"/>
</linearGradient>
<linearGradient id="paint2_linear_87_614" x1="13" y1="98.4906" x2="232" y2="98.4906" gradientUnits="userSpaceOnUse">
<stop stop-color="#373F6E"/>
<stop offset="1" stop-color="#5A6291"/>
</linearGradient>
<linearGradient id="paint3_linear_87_614" x1="13" y1="63.7804" x2="232" y2="63.7804" gradientUnits="userSpaceOnUse">
<stop offset="0.01" stop-color="#3F4B75"/>
<stop offset="1" stop-color="#636F99"/>
</linearGradient>
<linearGradient id="paint4_linear_87_614" x1="135.13" y1="26.9004" x2="148.88" y2="26.9004" gradientUnits="userSpaceOnUse">
<stop stop-color="#1D53DA"/>
<stop offset="1" stop-color="#3F75FC"/>
</linearGradient>
<linearGradient id="paint5_linear_87_614" x1="135.12" y1="23.3505" x2="148.88" y2="23.3505" gradientUnits="userSpaceOnUse">
<stop stop-color="#0397F6"/>
<stop offset="1" stop-color="#00BAFF"/>
</linearGradient>
<linearGradient id="paint6_linear_87_614" x1="180.54" y1="53.3008" x2="194.28" y2="53.3008" gradientUnits="userSpaceOnUse">
<stop stop-color="#1D53DA"/>
<stop offset="1" stop-color="#3F75FC"/>
</linearGradient>
<linearGradient id="paint7_linear_87_614" x1="180.53" y1="49.7509" x2="194.28" y2="49.7509" gradientUnits="userSpaceOnUse">
<stop stop-color="#0397F6"/>
<stop offset="1" stop-color="#00BAFF"/>
</linearGradient>
<linearGradient id="paint8_linear_87_614" x1="81" y1="70.9102" x2="165.09" y2="70.9102" gradientUnits="userSpaceOnUse">
<stop stop-color="#1D53DA"/>
<stop offset="1" stop-color="#3F75FC"/>
</linearGradient>
<linearGradient id="paint9_linear_87_614" x1="81" y1="54.74" x2="165" y2="54.74" gradientUnits="userSpaceOnUse">
<stop stop-color="#0397F6"/>
<stop offset="1" stop-color="#00BAFF"/>
</linearGradient>
<clipPath id="clip0_87_614">
<rect width="244" height="243.1" fill="white"/>
</clipPath>
</defs>
</svg>
