<svg xmlns:xlink="http://www.w3.org/1999/xlink" class="svg-icon " xmlns="http://www.w3.org/2000/svg" viewBox="0 0 63.42 64" x="0px" y="0px" width="64" height="64">
    <path class="svg-icon-outline-s" d="M18.38,59.58A31.17,31.17,0,0,1,1,31.8C1,14.65,15.11,1,32.46,1a32,32,0,0,1,8.19.84" stroke="#FFFFFF" fill="none" stroke-width="2px"></path>
    <path class="svg-icon-outline-s dashed-1" d="M45.23,4A31.17,31.17,0,0,1,31.12,63,32.5,32.5,0,0,1,23,61.71" stroke="#FFFFFF" fill="none" stroke-width="2px"></path>
    <line class="svg-icon-outline-s" x1="44.02" y1="2.97" x2="46.46" y2="10.9" stroke="#FFFFFF" fill="none" stroke-width="2px"></line>
    <line class="svg-icon-outline-s" x1="44.02" y1="2.97" x2="52.26" y2="1.72" stroke="#FFFFFF" fill="none" stroke-width="2px"></line>
    <line class="svg-icon-outline-s" x1="19.21" y1="60.57" x2="11" y2="61.06" stroke="#FFFFFF" fill="none" stroke-width="2px"></line>
    <line class="svg-icon-outline-s" x1="19.21" y1="60.57" x2="17.48" y2="52.35" stroke="#FFFFFF" fill="none" stroke-width="2px"></line>
    <path class="svg-icon-prime-l" d="M49.72,51s-3.1,1.63-3.11,1.63c-1.77-1-5-2.76-5-2.76V29.62C31.83,24,18.71,16,18.71,16l-.53-4.24.23-.16c.67-.42,2.5-1.48,2.5-1.53,9.34,5.39,19.48,10.85,28.81,16.24Z" fill="#1E38A3"></path>
    <path class="svg-icon-prime" d="M46.68,52.66c-1.39-.79-4.58-2.37-4.58-2.37s.13-18.8-.09-20.35c-4.77-3.26-23.78-13.83-23.78-14.33V11.75c9.34,5.39,19.1,10.78,28.45,16.18Z" fill="#021048"></path>
    <polygon class="svg-icon-outline-s" points="40.71 53.92 13.71 38.51 13.71 14.06 40.71 29.63 40.71 53.92" stroke="#FFFFFF" fill="none" stroke-width="2px"></polygon>
    <line class="svg-icon-outline-s" x1="13.71" y1="22" x2="40.02" y2="37.05" stroke="#FFFFFF" fill="none" stroke-width="2px"></line>
</svg>