<svg width="244" height="244" viewBox="0 0 244 244" fill="none" xmlns="http://www.w3.org/2000/svg">
<path d="M231.238 106.817V135.98C231.181 136.516 230.984 137.027 230.669 137.465C230.353 137.902 229.931 138.251 229.441 138.477C228.343 139.076 127.272 197.102 126.174 197.701C124.847 198.389 123.374 198.749 121.879 198.749C120.384 198.749 118.911 198.389 117.585 197.701C116.486 197.102 15.416 139.076 14.3174 138.477C13.82 138.262 13.3901 137.916 13.0736 137.477C12.757 137.037 12.5656 136.52 12.5197 135.98V106.917V106.418H12.6196C12.7556 105.989 12.9758 105.591 13.2673 105.248C13.5588 104.905 13.9158 104.624 14.3174 104.42C15.416 103.821 116.486 44.8968 117.585 44.2976C118.911 43.6086 120.384 43.249 121.879 43.249C123.374 43.249 124.847 43.6086 126.174 44.2976C127.272 44.8968 228.343 103.821 229.441 104.42C229.843 104.624 230.2 104.905 230.491 105.248C230.783 105.591 231.002 105.989 231.138 106.418H231.238V106.817Z" fill="url(#paint0_linear_87_449)"/>
<path d="M231.329 106.787V135.95C231.27 136.486 231.074 136.997 230.758 137.435C230.444 137.872 230.02 138.221 229.532 138.446C228.432 139.046 127.363 197.072 126.264 197.671C124.937 198.359 123.464 198.719 121.969 198.719C120.475 198.719 119.002 198.359 117.675 197.671C116.576 197.072 15.5061 139.046 14.4075 138.446C13.9101 138.232 13.4803 137.886 13.1637 137.447C12.8471 137.007 12.6557 136.489 12.6098 135.95V106.887V106.388H12.7097C12.8457 105.959 13.0659 105.561 13.3574 105.218C13.6489 104.875 14.0059 104.594 14.4075 104.39C15.5061 103.791 116.576 44.8667 117.675 44.2675C119.002 43.5785 120.475 43.2188 121.969 43.2188C123.464 43.2188 124.937 43.5785 126.264 44.2675C127.363 44.8667 228.432 103.791 229.532 104.39C229.932 104.594 230.289 104.875 230.582 105.218C230.872 105.561 231.093 105.959 231.229 106.388H231.329V106.787Z" fill="url(#paint1_linear_87_449)"/>
<path d="M229.441 109.015C228.342 109.614 127.272 168.038 126.174 168.737C124.847 169.427 123.374 169.787 121.879 169.787C120.384 169.787 118.911 169.427 117.585 168.737C116.486 168.138 15.4159 109.714 14.3173 109.015C13.6666 108.786 13.128 108.318 12.8122 107.705C12.4964 107.092 12.4275 106.381 12.6195 105.719C12.7623 105.33 12.9882 104.976 13.2814 104.683C13.5746 104.39 13.9281 104.164 14.3173 104.021C15.4159 103.422 116.486 44.9968 117.585 44.2976C118.911 43.6086 120.384 43.249 121.879 43.249C123.374 43.249 124.847 43.6086 126.174 44.2976C127.272 44.8968 228.342 103.322 229.441 104.021C229.765 104.129 230.064 104.3 230.32 104.525C230.577 104.75 230.786 105.025 230.935 105.332C231.084 105.639 231.17 105.973 231.188 106.314C231.206 106.655 231.156 106.996 231.04 107.317C230.918 107.702 230.711 108.055 230.435 108.349C230.158 108.643 229.818 108.87 229.441 109.015ZM222.25 103.821C221.252 103.222 126.374 47.9928 125.275 47.3936C124.023 46.7537 122.636 46.4199 121.23 46.4199C119.824 46.4199 118.437 46.7537 117.185 47.3936C116.187 47.9928 21.3084 103.222 20.2098 103.821C19.7277 103.996 19.3113 104.315 19.017 104.735C18.7228 105.155 18.5648 105.655 18.5648 106.168C18.5648 106.681 18.7228 107.181 19.017 107.601C19.3113 108.021 19.7277 108.34 20.2098 108.515C21.2084 109.114 116.187 164.344 117.185 164.943C118.437 165.582 119.824 165.917 121.23 165.917C122.636 165.917 124.023 165.582 125.275 164.943C126.274 164.344 221.252 109.114 222.25 108.515C222.562 108.409 222.85 108.242 223.096 108.022C223.341 107.802 223.54 107.535 223.681 107.236C223.82 106.938 223.898 106.614 223.911 106.285C223.922 105.955 223.867 105.627 223.748 105.319C223.44 104.66 222.91 104.13 222.25 103.821Z" fill="white" fill-opacity="0.5"/>
<path d="M117.285 164.742C116.486 164.343 66.5502 135.28 38.5861 119.101C68.8472 101.624 116.786 73.9591 117.485 73.4597C118.811 72.7707 120.284 72.4111 121.779 72.4111C123.274 72.4111 124.747 72.7707 126.074 73.4597C126.873 73.8592 174.113 101.224 204.474 118.801C176.609 134.981 126.074 164.343 125.275 164.742C124.04 165.383 122.67 165.716 121.28 165.716C119.89 165.716 118.519 165.383 117.285 164.742Z" fill="#333C5E"/>
<path d="M38.0859 84.4609H37.5385V97.4899H38.0859V84.4609Z" fill="url(#paint2_linear_87_449)"/>
<path d="M53.7269 114.18H53.1795V127.209H53.7269V114.18Z" fill="url(#paint3_linear_87_449)"/>
<path d="M113.163 143.897H112.615V156.926H113.163V143.897Z" fill="url(#paint4_linear_87_449)"/>
<path d="M83.4449 118.871H82.8974V131.9H83.4449V118.871Z" fill="url(#paint5_linear_87_449)"/>
<path d="M136.624 125.128H136.077V138.157H136.624V125.128Z" fill="url(#paint6_linear_87_449)"/>
<path d="M171.035 103.23H170.487V116.259H171.035V103.23Z" fill="url(#paint7_linear_87_449)"/>
<path d="M202.317 100.103H201.769V113.132H202.317V100.103Z" fill="url(#paint8_linear_87_449)"/>
<path d="M167.906 131.385H167.359V140.769H167.906V131.385Z" fill="url(#paint9_linear_87_449)"/>
<path opacity="0.8" d="M223.667 67.317L18.9031 67.2559V104.82C18.7043 105.317 18.724 106.563 18.9813 107.164C19.2793 107.86 19.7676 108.293 20.4633 108.492C21.457 109.089 116.198 164.227 117.192 164.825C119.677 166.118 122.757 166.118 125.242 164.825C126.235 164.227 220.742 109.167 221.735 108.57C222.145 108.433 222.525 108.249 222.828 107.945C223.276 107.496 223.607 106.854 223.667 106.382C223.527 97.0066 223.667 79.7912 223.667 67.317Z" fill="url(#paint10_linear_87_449)"/>
<path opacity="0.32" fill-rule="evenodd" clip-rule="evenodd" d="M24.5667 126.121C24.8703 125.616 25.5268 125.451 26.0329 125.755L31.376 128.961C31.882 129.265 32.0463 129.921 31.7425 130.427C31.4389 130.933 30.7825 131.097 30.2763 130.794L24.9332 127.588C24.4272 127.284 24.2631 126.628 24.5667 126.121Z" fill="#142149"/>
<path opacity="0.48" fill-rule="evenodd" clip-rule="evenodd" d="M24.5667 131.465C24.8703 130.959 25.5268 130.795 26.0329 131.099L31.376 134.305C31.882 134.608 32.0463 135.265 31.7425 135.771C31.4389 136.277 30.7825 136.441 30.2763 136.137L24.9332 132.931C24.4272 132.628 24.2631 131.971 24.5667 131.465Z" fill="#142149"/>
<path opacity="0.48" fill-rule="evenodd" clip-rule="evenodd" d="M34.1849 131.465C34.4889 130.959 35.1455 130.795 35.6514 131.099L40.9845 134.305C41.4903 134.609 41.6539 135.266 41.3499 135.771C41.0458 136.277 40.3892 136.441 39.8834 136.137L34.5502 132.931C34.0444 132.627 33.8808 131.97 34.1849 131.465Z" fill="#142149"/>
<path opacity="0.32" fill-rule="evenodd" clip-rule="evenodd" d="M34.1849 136.798C34.4889 136.292 35.1455 136.128 35.6514 136.432L40.9845 139.638C41.4903 139.942 41.6539 140.599 41.3499 141.105C41.0458 141.61 40.3892 141.774 39.8834 141.47L34.5502 138.264C34.0444 137.96 33.8808 137.303 34.1849 136.798Z" fill="#142149"/>
<path opacity="0.32" fill-rule="evenodd" clip-rule="evenodd" d="M210.236 130.351C210.791 130.351 211.24 130.8 211.24 131.354V138.345C211.24 138.9 210.791 139.349 210.236 139.349C209.682 139.349 209.233 138.9 209.233 138.345V131.354C209.233 130.8 209.682 130.351 210.236 130.351Z" fill="#142149"/>
<path opacity="0.32" fill-rule="evenodd" clip-rule="evenodd" d="M214.251 127.845C214.806 127.845 215.255 128.294 215.255 128.848V135.839C215.255 136.394 214.806 136.843 214.251 136.843C213.697 136.843 213.248 136.394 213.248 135.839V128.848C213.248 128.294 213.697 127.845 214.251 127.845Z" fill="#142149"/>
<path opacity="0.32" fill-rule="evenodd" clip-rule="evenodd" d="M218.266 125.337C218.82 125.337 219.27 125.786 219.27 126.341V133.871C219.27 134.425 218.82 134.875 218.266 134.875C217.712 134.875 217.262 134.425 217.262 133.871V126.341C217.262 125.786 217.712 125.337 218.266 125.337Z" fill="#142149"/>
<path opacity="0.32" fill-rule="evenodd" clip-rule="evenodd" d="M222.281 123.33C222.835 123.33 223.285 123.779 223.285 124.334V131.325C223.285 131.879 222.835 132.329 222.281 132.329C221.726 132.329 221.277 131.879 221.277 131.325V124.334C221.277 123.779 221.726 123.33 222.281 123.33Z" fill="#142149"/>
<path opacity="0.32" fill-rule="evenodd" clip-rule="evenodd" d="M69.0831 155.132C69.3658 154.64 69.9944 154.469 70.4872 154.752L109.068 176.873C109.561 177.156 109.731 177.785 109.448 178.278C109.166 178.77 108.537 178.941 108.044 178.658L69.4638 156.537C68.971 156.254 68.8007 155.625 69.0831 155.132Z" fill="#142149"/>
<path fill-rule="evenodd" clip-rule="evenodd" d="M127.116 133.217L138.141 139.601C138.469 139.767 138.832 139.854 139.201 139.854C139.569 139.854 139.932 139.767 140.261 139.601L149.801 134.093L142.383 129.818C141.651 129.397 141.652 128.713 142.383 128.29C142.793 128.082 143.247 127.973 143.707 127.973C144.168 127.973 144.622 128.081 145.032 128.288L152.45 132.563L220.556 93.2419L213.139 88.9674C212.407 88.546 212.407 87.8619 213.139 87.4393L213.405 87.2863C213.814 87.078 214.27 86.9693 214.729 86.969C215.189 86.9686 215.643 87.0767 216.054 87.2844L220.556 89.8796C220.556 89.8796 228.698 85.1798 230.893 83.9127C232.25 83.1286 230.893 82.0788 230.628 81.9261C230.198 81.6779 227.979 80.3994 227.979 80.3994C227.979 80.3994 224.319 82.513 223.739 82.8474C223.157 83.1819 222.373 83.2639 221.355 82.6963C221.097 82.558 217.645 80.5593 217.645 80.5593" fill="url(#paint11_linear_87_449)"/>
<path fill-rule="evenodd" clip-rule="evenodd" d="M144.503 131.037L149.801 134.09L140.261 139.598C139.933 139.764 139.57 139.851 139.201 139.851C138.833 139.851 138.47 139.764 138.141 139.598L133.931 137.172L144.503 131.037ZM227.98 80.3965C227.98 80.3965 230.198 81.675 230.63 81.923C230.893 82.076 232.252 83.1257 230.893 83.9096C228.698 85.1768 220.556 89.8767 220.556 89.8767L216.054 87.2815L227.98 80.3965ZM215.26 90.1857L220.556 93.239L152.451 132.56L147.18 129.523L215.26 90.1857Z" fill="url(#paint12_linear_87_449)"/>
<path fill-rule="evenodd" clip-rule="evenodd" d="M139.864 138.91C140.084 138.783 140.056 138.562 139.803 138.415L135.759 136.085L134.963 136.544L139.007 138.874C139.137 138.947 139.283 138.988 139.432 138.994C139.58 139 139.728 138.971 139.864 138.91Z" fill="white"/>
<path fill-rule="evenodd" clip-rule="evenodd" d="M141.454 137.992C141.673 137.865 141.646 137.644 141.393 137.497L137.349 135.167L136.553 135.626L140.597 137.956C140.727 138.029 140.872 138.07 141.021 138.076C141.17 138.082 141.318 138.053 141.454 137.992Z" fill="white"/>
<path fill-rule="evenodd" clip-rule="evenodd" d="M143.044 137.074C143.263 136.947 143.236 136.726 142.983 136.58L138.938 134.249L138.143 134.708L142.187 137.039C142.317 137.111 142.462 137.152 142.611 137.158C142.76 137.164 142.908 137.135 143.044 137.074Z" fill="white"/>
<path fill-rule="evenodd" clip-rule="evenodd" d="M144.635 136.157C144.854 136.03 144.826 135.809 144.573 135.663L140.529 133.332L139.734 133.791L143.778 136.122C143.908 136.194 144.053 136.235 144.202 136.241C144.351 136.247 144.499 136.218 144.635 136.157Z" fill="white"/>
<path fill-rule="evenodd" clip-rule="evenodd" d="M146.225 135.238C146.445 135.111 146.417 134.89 146.164 134.744L142.118 132.413L141.322 132.872L145.366 135.203C145.497 135.275 145.643 135.316 145.792 135.322C145.941 135.329 146.089 135.3 146.225 135.238Z" fill="white"/>
<path fill-rule="evenodd" clip-rule="evenodd" d="M147.815 134.32C148.034 134.193 148.006 133.972 147.753 133.826L143.709 131.495L142.913 131.954L146.957 134.285C147.087 134.357 147.233 134.398 147.382 134.404C147.531 134.41 147.679 134.381 147.815 134.32Z" fill="white"/>
<path fill-rule="evenodd" clip-rule="evenodd" d="M152.85 131.413C153.069 131.286 153.042 131.065 152.789 130.918L148.745 128.588L147.949 129.047L151.993 131.377C152.123 131.45 152.269 131.491 152.418 131.497C152.566 131.503 152.714 131.474 152.85 131.413Z" fill="white"/>
<path fill-rule="evenodd" clip-rule="evenodd" d="M154.44 130.495C154.659 130.368 154.631 130.147 154.378 130L150.334 127.67L149.539 128.129L153.583 130.459C153.713 130.532 153.858 130.573 154.007 130.579C154.156 130.585 154.304 130.556 154.44 130.495Z" fill="white"/>
<path fill-rule="evenodd" clip-rule="evenodd" d="M156.029 129.578C156.249 129.451 156.221 129.23 155.968 129.083L151.924 126.753L151.128 127.212L155.172 129.542C155.303 129.615 155.448 129.656 155.597 129.662C155.746 129.668 155.894 129.639 156.029 129.578Z" fill="white"/>
<path fill-rule="evenodd" clip-rule="evenodd" d="M157.619 128.659C157.838 128.532 157.812 128.311 157.558 128.164L153.514 125.834L152.718 126.293L156.762 128.623C156.892 128.696 157.037 128.737 157.186 128.743C157.336 128.749 157.483 128.72 157.619 128.659Z" fill="white"/>
<path fill-rule="evenodd" clip-rule="evenodd" d="M159.21 127.741C159.429 127.614 159.401 127.393 159.149 127.246L155.104 124.916L154.309 125.375L158.353 127.705C158.483 127.778 158.628 127.819 158.777 127.825C158.925 127.831 159.074 127.802 159.21 127.741Z" fill="white"/>
<path fill-rule="evenodd" clip-rule="evenodd" d="M160.799 126.824C161.018 126.697 160.992 126.476 160.738 126.33L156.693 123.999L155.898 124.458L159.942 126.789C160.073 126.861 160.217 126.902 160.367 126.908C160.516 126.914 160.663 126.885 160.799 126.824Z" fill="white"/>
<path fill-rule="evenodd" clip-rule="evenodd" d="M162.39 125.905C162.609 125.778 162.581 125.557 162.329 125.411L158.284 123.08L157.488 123.539L161.533 125.87C161.663 125.942 161.808 125.983 161.957 125.989C162.105 125.995 162.254 125.966 162.39 125.905Z" fill="white"/>
<path fill-rule="evenodd" clip-rule="evenodd" d="M163.979 124.988C164.199 124.861 164.171 124.64 163.918 124.494L159.873 122.163L159.079 122.622L163.122 124.953C163.252 125.025 163.397 125.066 163.547 125.072C163.696 125.078 163.843 125.049 163.979 124.988Z" fill="white"/>
<path fill-rule="evenodd" clip-rule="evenodd" d="M165.57 124.068C165.789 123.941 165.762 123.72 165.509 123.574L161.464 121.243L160.669 121.702L164.713 124.033C164.842 124.105 164.988 124.146 165.136 124.152C165.287 124.158 165.434 124.129 165.57 124.068Z" fill="white"/>
<path fill-rule="evenodd" clip-rule="evenodd" d="M167.16 123.151C167.381 123.024 167.353 122.803 167.099 122.657L163.053 120.326L162.258 120.785L166.302 123.116C166.433 123.188 166.578 123.229 166.727 123.235C166.876 123.241 167.024 123.212 167.16 123.151Z" fill="white"/>
<path fill-rule="evenodd" clip-rule="evenodd" d="M168.748 122.234C168.968 122.107 168.94 121.886 168.687 121.74L164.644 119.409L163.848 119.868L167.891 122.199C168.021 122.271 168.166 122.312 168.315 122.318C168.463 122.324 168.612 122.295 168.748 122.234Z" fill="white"/>
<path fill-rule="evenodd" clip-rule="evenodd" d="M170.34 121.315C170.561 121.188 170.533 120.967 170.279 120.821L166.234 118.49L165.438 118.949L169.483 121.28C169.613 121.352 169.758 121.393 169.907 121.399C170.055 121.405 170.204 121.376 170.34 121.315Z" fill="white"/>
<path fill-rule="evenodd" clip-rule="evenodd" d="M171.929 120.397C172.147 120.27 172.12 120.049 171.865 119.903L167.824 117.572L167.027 118.031L171.074 120.362C171.204 120.434 171.349 120.475 171.498 120.481C171.646 120.487 171.795 120.459 171.929 120.397Z" fill="white"/>
<path fill-rule="evenodd" clip-rule="evenodd" d="M173.518 119.479C173.739 119.352 173.712 119.131 173.457 118.985L169.413 116.654L168.62 117.113L172.663 119.444C172.793 119.516 172.938 119.557 173.087 119.563C173.235 119.569 173.384 119.541 173.518 119.479Z" fill="white"/>
<path fill-rule="evenodd" clip-rule="evenodd" d="M175.111 118.561C175.33 118.434 175.303 118.213 175.048 118.067L171.003 115.736L170.207 116.195L174.254 118.526C174.383 118.598 174.529 118.639 174.677 118.645C174.826 118.651 174.975 118.623 175.111 118.561Z" fill="white"/>
<path fill-rule="evenodd" clip-rule="evenodd" d="M176.701 117.643C176.919 117.516 176.891 117.295 176.637 117.149L172.594 114.818L171.799 115.277L175.841 117.608C175.972 117.68 176.118 117.721 176.267 117.727C176.417 117.733 176.565 117.705 176.701 117.643Z" fill="white"/>
<path fill-rule="evenodd" clip-rule="evenodd" d="M178.289 116.725C178.509 116.598 178.483 116.377 178.228 116.231L174.183 113.9L173.387 114.359L177.432 116.69C177.563 116.762 177.709 116.803 177.857 116.809C178.006 116.815 178.154 116.787 178.289 116.725Z" fill="white"/>
<path fill-rule="evenodd" clip-rule="evenodd" d="M179.881 115.807C180.099 115.68 180.07 115.459 179.82 115.313L175.774 112.982L174.979 113.441L179.024 115.772C179.154 115.844 179.299 115.885 179.448 115.891C179.597 115.897 179.745 115.869 179.881 115.807Z" fill="white"/>
<path fill-rule="evenodd" clip-rule="evenodd" d="M181.469 114.889C181.689 114.763 181.661 114.541 181.408 114.395L177.365 112.064L176.57 112.524L180.612 114.854C180.741 114.926 180.887 114.967 181.035 114.973C181.184 114.979 181.333 114.951 181.469 114.889Z" fill="white"/>
<path fill-rule="evenodd" clip-rule="evenodd" d="M183.059 113.97C183.28 113.844 183.252 113.622 182.998 113.476L178.954 111.146L178.158 111.605L182.202 113.935C182.334 114.008 182.478 114.048 182.628 114.054C182.776 114.061 182.923 114.032 183.059 113.97Z" fill="white"/>
<path fill-rule="evenodd" clip-rule="evenodd" d="M184.65 113.053C184.868 112.927 184.839 112.705 184.586 112.559L180.544 110.229L179.748 110.688L183.793 113.018C183.924 113.091 184.068 113.131 184.218 113.137C184.367 113.144 184.514 113.115 184.65 113.053Z" fill="white"/>
<path fill-rule="evenodd" clip-rule="evenodd" d="M186.239 112.135C186.46 112.009 186.432 111.787 186.178 111.641L182.133 109.311L181.34 109.77L185.382 112.1C185.514 112.173 185.657 112.213 185.808 112.219C185.956 112.226 186.103 112.197 186.239 112.135Z" fill="white"/>
<path fill-rule="evenodd" clip-rule="evenodd" d="M187.83 111.216C188.05 111.09 188.022 110.868 187.769 110.722L183.724 108.392L182.928 108.851L186.973 111.181C187.104 111.253 187.248 111.294 187.398 111.301C187.547 111.307 187.694 111.278 187.83 111.216Z" fill="white"/>
<path fill-rule="evenodd" clip-rule="evenodd" d="M189.418 110.298C189.638 110.172 189.61 109.95 189.357 109.804L185.315 107.474L184.519 107.933L188.56 110.263C188.692 110.335 188.836 110.376 188.986 110.383C189.134 110.389 189.281 110.36 189.418 110.298Z" fill="white"/>
<path fill-rule="evenodd" clip-rule="evenodd" d="M191.01 109.38C191.23 109.254 191.202 109.032 190.949 108.886L186.904 106.556L186.108 107.015L190.153 109.345C190.284 109.418 190.429 109.458 190.578 109.465C190.727 109.471 190.874 109.442 191.01 109.38Z" fill="white"/>
<path fill-rule="evenodd" clip-rule="evenodd" d="M192.6 108.462C192.818 108.336 192.79 108.114 192.536 107.968L188.495 105.638L187.699 106.097L191.743 108.427C191.873 108.5 192.019 108.541 192.167 108.547C192.317 108.553 192.464 108.524 192.6 108.462Z" fill="white"/>
<path fill-rule="evenodd" clip-rule="evenodd" d="M194.19 107.545C194.41 107.419 194.382 107.197 194.129 107.051L190.082 104.721L189.289 105.18L193.332 107.51C193.462 107.583 193.608 107.624 193.756 107.63C193.905 107.636 194.054 107.607 194.19 107.545Z" fill="white"/>
<path fill-rule="evenodd" clip-rule="evenodd" d="M195.78 106.627C196.001 106.5 195.973 106.279 195.719 106.132L191.675 103.802L190.878 104.261L194.923 106.591C195.055 106.664 195.2 106.705 195.349 106.711C195.497 106.717 195.646 106.688 195.78 106.627Z" fill="white"/>
<path fill-rule="evenodd" clip-rule="evenodd" d="M197.371 105.709C197.588 105.582 197.56 105.361 197.307 105.214L193.264 102.884L192.469 103.343L196.511 105.673C196.642 105.746 196.788 105.787 196.936 105.793C197.086 105.799 197.235 105.77 197.371 105.709Z" fill="white"/>
<path fill-rule="evenodd" clip-rule="evenodd" d="M198.96 104.791C199.181 104.664 199.152 104.443 198.899 104.296L194.853 101.966L194.058 102.425L198.103 104.755C198.233 104.828 198.378 104.869 198.527 104.875C198.675 104.881 198.824 104.852 198.96 104.791Z" fill="white"/>
<path fill-rule="evenodd" clip-rule="evenodd" d="M200.551 103.872C200.768 103.746 200.74 103.525 200.49 103.378L196.443 101.048L195.649 101.507L199.694 103.837C199.823 103.91 199.969 103.951 200.118 103.957C200.266 103.963 200.415 103.934 200.551 103.872Z" fill="white"/>
<path fill-rule="evenodd" clip-rule="evenodd" d="M202.138 102.955C202.359 102.829 202.331 102.608 202.077 102.461L198.034 100.131L197.24 100.59L201.281 102.92C201.411 102.993 201.557 103.034 201.705 103.04C201.855 103.046 202.002 103.017 202.138 102.955Z" fill="white"/>
<path fill-rule="evenodd" clip-rule="evenodd" d="M203.729 102.037C203.95 101.91 203.921 101.689 203.668 101.542L199.622 99.2119L198.827 99.6708L202.872 102.001C203.002 102.074 203.147 102.115 203.296 102.121C203.444 102.127 203.593 102.098 203.729 102.037Z" fill="white"/>
<path fill-rule="evenodd" clip-rule="evenodd" d="M205.321 101.119C205.539 100.992 205.511 100.771 205.257 100.624L201.216 98.2939L200.419 98.7529L204.464 101.083C204.596 101.156 204.739 101.197 204.89 101.203C205.038 101.209 205.185 101.18 205.321 101.119Z" fill="white"/>
<path fill-rule="evenodd" clip-rule="evenodd" d="M206.91 100.202C207.129 100.075 207.103 99.8537 206.848 99.7075L202.803 97.377L202.01 97.836L206.053 100.167C206.183 100.239 206.329 100.28 206.477 100.286C206.626 100.292 206.774 100.263 206.91 100.202Z" fill="white"/>
<path fill-rule="evenodd" clip-rule="evenodd" d="M208.501 99.2828C208.722 99.1561 208.694 98.9348 208.44 98.7885L204.394 96.458L203.599 96.9171L207.644 99.2476C207.774 99.32 207.919 99.3608 208.068 99.3669C208.218 99.373 208.365 99.3442 208.501 99.2828Z" fill="white"/>
<path fill-rule="evenodd" clip-rule="evenodd" d="M210.089 98.3648C210.309 98.2381 210.281 98.0168 210.028 97.8706L205.984 95.54L205.19 95.9991L209.232 98.3296C209.361 98.4019 209.507 98.4429 209.655 98.449C209.804 98.4551 209.953 98.4263 210.089 98.3648Z" fill="white"/>
<path fill-rule="evenodd" clip-rule="evenodd" d="M211.679 97.4477C211.9 97.321 211.872 97.0998 211.618 96.9536L207.574 94.623L206.777 95.082L210.822 97.4125C210.954 97.4849 211.098 97.5259 211.248 97.532C211.396 97.5381 211.543 97.5091 211.679 97.4477Z" fill="white"/>
<path fill-rule="evenodd" clip-rule="evenodd" d="M213.272 96.5287C213.489 96.402 213.461 96.1809 213.208 96.0346L209.164 93.7041L208.37 94.163L212.415 96.4935C212.544 96.5659 212.69 96.6069 212.838 96.613C212.987 96.6191 213.136 96.5902 213.272 96.5287Z" fill="white"/>
<path fill-rule="evenodd" clip-rule="evenodd" d="M214.859 95.6117C215.08 95.485 215.052 95.2639 214.798 95.1175L210.753 92.7871L209.96 93.246L214.002 95.5765C214.133 95.649 214.277 95.6898 214.428 95.6959C214.576 95.702 214.723 95.6732 214.859 95.6117Z" fill="white"/>
<path fill-rule="evenodd" clip-rule="evenodd" d="M216.451 94.6928C216.672 94.5661 216.644 94.3449 216.39 94.1985L212.344 91.8682L211.55 92.3271L215.594 94.6576C215.724 94.73 215.87 94.7708 216.018 94.7771C216.167 94.7832 216.315 94.7542 216.451 94.6928Z" fill="white"/>
<path fill-rule="evenodd" clip-rule="evenodd" d="M218.042 93.775C218.26 93.6483 218.231 93.427 217.978 93.2807L213.935 90.9502L213.14 91.4093L217.182 93.7398C217.313 93.8122 217.459 93.853 217.607 93.8591C217.757 93.8652 217.906 93.8364 218.042 93.775Z" fill="white"/>
<path fill-rule="evenodd" clip-rule="evenodd" d="M21.0043 58.3839L118.183 20.4938C120.479 19.1659 124.491 19.3312 127.146 20.863L223.642 58.6243C223.674 58.6101 223.668 75.2515 223.643 76.2827C223.624 77.1072 223.116 77.8933 222.095 78.4822L126.464 133.777C124.167 135.106 120.154 134.94 117.5 133.409L23.1991 78.987C21.716 78.1312 20.971 77.0304 21.0029 75.9943C21.0284 75.1745 21.0115 58.489 21.0043 58.3839Z" fill="url(#paint13_linear_87_449)"/>
<path fill-rule="evenodd" clip-rule="evenodd" d="M21.0043 58.3839L118.183 20.4938C120.479 19.1659 124.491 19.3312 127.146 20.863L223.642 58.6243C223.674 58.6101 223.668 75.2515 223.643 76.2827C223.624 77.1072 223.116 77.8933 222.095 78.4822L126.464 133.777C124.167 135.106 120.154 134.94 117.5 133.409L23.1991 78.987C21.716 78.1312 20.971 77.0304 21.0029 75.9943C21.0284 75.1745 21.0115 58.489 21.0043 58.3839Z" fill="url(#paint14_linear_87_449)"/>
<path opacity="0.6" d="M213.505 65.9082V73.6482" stroke="#1D2540" stroke-width="0.5" stroke-linejoin="round"/>
<path opacity="0.6" d="M212.006 66.7354V74.4755" stroke="#1D2540" stroke-width="0.5" stroke-linejoin="round"/>
<path opacity="0.6" d="M210.509 67.6396V75.3798" stroke="#1D2540" stroke-width="0.5" stroke-linejoin="round"/>
<path opacity="0.6" d="M209.011 68.4678V76.2079" stroke="#1D2540" stroke-width="0.5" stroke-linejoin="round"/>
<path opacity="0.6" d="M207.513 69.373V77.1132" stroke="#1D2540" stroke-width="0.5" stroke-linejoin="round"/>
<path opacity="0.6" d="M206.014 70.168V77.9081" stroke="#1D2540" stroke-width="0.5" stroke-linejoin="round"/>
<path opacity="0.6" d="M204.516 71.0898V78.8298" stroke="#1D2540" stroke-width="0.5" stroke-linejoin="round"/>
<path opacity="0.6" d="M203.019 71.8857V79.6257" stroke="#1D2540" stroke-width="0.5" stroke-linejoin="round"/>
<path opacity="0.6" d="M201.521 72.7744V80.5145" stroke="#1D2540" stroke-width="0.5" stroke-linejoin="round"/>
<path opacity="0.6" d="M200.022 73.6182V81.3581" stroke="#1D2540" stroke-width="0.5" stroke-linejoin="round"/>
<path opacity="0.6" d="M198.525 74.4844V82.2245" stroke="#1D2540" stroke-width="0.5" stroke-linejoin="round"/>
<path opacity="0.6" d="M197.027 75.3428V83.0829" stroke="#1D2540" stroke-width="0.5" stroke-linejoin="round"/>
<path opacity="0.6" d="M195.528 76.2715V84.0114" stroke="#1D2540" stroke-width="0.5" stroke-linejoin="round"/>
<path opacity="0.6" d="M194.03 77.082V84.8222" stroke="#1D2540" stroke-width="0.5" stroke-linejoin="round"/>
<path opacity="0.6" d="M192.532 77.9727V85.7126" stroke="#1D2540" stroke-width="0.5" stroke-linejoin="round"/>
<path opacity="0.6" d="M191.035 78.8936V86.6337" stroke="#1D2540" stroke-width="0.5" stroke-linejoin="round"/>
<path opacity="0.6" d="M189.536 79.6885V87.4286" stroke="#1D2540" stroke-width="0.5" stroke-linejoin="round"/>
<path opacity="0.6" d="M188.038 80.5781V88.3182" stroke="#1D2540" stroke-width="0.5" stroke-linejoin="round"/>
<path opacity="0.6" d="M186.54 81.498V89.238" stroke="#1D2540" stroke-width="0.5" stroke-linejoin="round"/>
<path opacity="0.6" d="M185.041 82.2793V90.0194" stroke="#1D2540" stroke-width="0.5" stroke-linejoin="round"/>
<path opacity="0.6" d="M183.544 83.1221V90.862" stroke="#1D2540" stroke-width="0.5" stroke-linejoin="round"/>
<path opacity="0.6" d="M182.046 83.9482V91.6882" stroke="#1D2540" stroke-width="0.5" stroke-linejoin="round"/>
<path opacity="0.6" d="M180.547 84.8535V92.5936" stroke="#1D2540" stroke-width="0.5" stroke-linejoin="round"/>
<path opacity="0.6" d="M179.049 85.6494V93.3894" stroke="#1D2540" stroke-width="0.5" stroke-linejoin="round"/>
<path opacity="0.6" d="M177.551 86.5703V94.3104" stroke="#1D2540" stroke-width="0.5" stroke-linejoin="round"/>
<path opacity="0.6" d="M176.054 87.3662V95.1063" stroke="#1D2540" stroke-width="0.5" stroke-linejoin="round"/>
<path opacity="0.6" d="M174.555 88.2549V95.995" stroke="#1D2540" stroke-width="0.5" stroke-linejoin="round"/>
<path opacity="0.6" d="M173.057 89.207V96.9472" stroke="#1D2540" stroke-width="0.5" stroke-linejoin="round"/>
<path opacity="0.6" d="M171.559 90.0957V97.8357" stroke="#1D2540" stroke-width="0.5" stroke-linejoin="round"/>
<path opacity="0.6" d="M170.06 90.916V98.656" stroke="#1D2540" stroke-width="0.5" stroke-linejoin="round"/>
<path opacity="0.6" d="M168.562 91.7734V99.5136" stroke="#1D2540" stroke-width="0.5" stroke-linejoin="round"/>
<path opacity="0.6" d="M167.065 92.6553V100.395" stroke="#1D2540" stroke-width="0.5" stroke-linejoin="round"/>
<path opacity="0.6" d="M165.566 93.5059V101.246" stroke="#1D2540" stroke-width="0.5" stroke-linejoin="round"/>
<path opacity="0.6" d="M164.068 94.3965V102.136" stroke="#1D2540" stroke-width="0.5" stroke-linejoin="round"/>
<path opacity="0.6" d="M162.57 95.2539V102.994" stroke="#1D2540" stroke-width="0.5" stroke-linejoin="round"/>
<path opacity="0.6" d="M161.071 96.1348V103.875" stroke="#1D2540" stroke-width="0.5" stroke-linejoin="round"/>
<path opacity="0.6" d="M159.574 97.041V104.781" stroke="#1D2540" stroke-width="0.5" stroke-linejoin="round"/>
<path opacity="0.6" d="M158.076 97.9072V105.647" stroke="#1D2540" stroke-width="0.5" stroke-linejoin="round"/>
<path opacity="0.6" d="M156.578 98.7578V106.498" stroke="#1D2540" stroke-width="0.5" stroke-linejoin="round"/>
<path opacity="0.6" d="M155.08 99.5996V107.34" stroke="#1D2540" stroke-width="0.5" stroke-linejoin="round"/>
<path opacity="0.6" d="M153.582 100.505V108.245" stroke="#1D2540" stroke-width="0.5" stroke-linejoin="round"/>
<path opacity="0.6" d="M152.084 101.311V109.05" stroke="#1D2540" stroke-width="0.5" stroke-linejoin="round"/>
<path opacity="0.6" d="M150.586 102.222V109.962" stroke="#1D2540" stroke-width="0.5" stroke-linejoin="round"/>
<path opacity="0.6" d="M149.088 103.096V110.836" stroke="#1D2540" stroke-width="0.5" stroke-linejoin="round"/>
<path opacity="0.6" d="M147.59 103.962V111.702" stroke="#1D2540" stroke-width="0.5" stroke-linejoin="round"/>
<path opacity="0.6" d="M146.092 104.796V112.536" stroke="#1D2540" stroke-width="0.5" stroke-linejoin="round"/>
<path opacity="0.6" d="M144.594 105.708V113.448" stroke="#1D2540" stroke-width="0.5" stroke-linejoin="round"/>
<path opacity="0.6" d="M143.096 106.548V114.288" stroke="#1D2540" stroke-width="0.5" stroke-linejoin="round"/>
<path opacity="0.6" d="M141.597 107.413V115.153" stroke="#1D2540" stroke-width="0.5" stroke-linejoin="round"/>
<path opacity="0.6" d="M140.099 108.256V115.996" stroke="#1D2540" stroke-width="0.5" stroke-linejoin="round"/>
<path opacity="0.6" d="M138.601 109.135V116.875" stroke="#1D2540" stroke-width="0.5" stroke-linejoin="round"/>
<path opacity="0.6" d="M137.103 110.031V117.771" stroke="#1D2540" stroke-width="0.5" stroke-linejoin="round"/>
<path opacity="0.6" d="M135.605 110.862V118.602" stroke="#1D2540" stroke-width="0.5" stroke-linejoin="round"/>
<path opacity="0.6" d="M134.107 111.732V119.473" stroke="#1D2540" stroke-width="0.5" stroke-linejoin="round"/>
<path fill-rule="evenodd" clip-rule="evenodd" d="M22.5514 56.1843L118.197 0.896906C120.493 -0.430712 124.507 -0.265342 127.163 1.26612L221.477 55.6795C224.131 57.211 224.421 59.5285 222.126 60.8553L126.478 116.143C124.183 117.472 120.169 117.306 117.514 115.775L23.1992 61.3602C20.5446 59.829 20.2547 57.5119 22.5514 56.1843Z" fill="url(#paint15_linear_87_449)"/>
<path opacity="0.6" fill-rule="evenodd" clip-rule="evenodd" d="M73.9052 26.4996L78.626 59.9955L78.7328 60.7534L79.397 61.1341L118.597 83.6053L118.93 83.7961L119.313 83.8111L178.383 86.1401L180.918 84.6747L119.374 82.2483L80.1748 59.7771L75.3658 25.6553L73.9052 26.4996Z" fill="#1D2540"/>
<path opacity="0.6" d="M21.5013 58.5277L50.9635 55.0322L66.1939 64.0207" stroke="#1D2540" stroke-linejoin="round"/>
<g opacity="0.6">
<path d="M56.4564 49.5396L69.6894 40.8008L72.4359 59.0274L56.4564 49.5396Z" fill="#1D2540"/>
<path d="M112.28 92.0589C111.907 91.8408 111.428 91.9664 111.21 92.3393C110.992 92.712 111.118 93.1911 111.49 93.4092L112.28 92.0589ZM128.114 102.222L128.849 102.491C128.979 102.135 128.836 101.738 128.509 101.547L128.114 102.222ZM121.887 116.933C121.738 117.339 121.947 117.788 122.352 117.937C122.758 118.086 123.207 117.877 123.356 117.472L121.887 116.933ZM69.6894 40.8006L70.4628 40.6841C70.4229 40.4202 70.2513 40.1948 70.0075 40.0861C69.7637 39.9775 69.4812 40.001 69.2585 40.148L69.6894 40.8006ZM56.4564 49.5394L56.0255 48.8868C55.8008 49.0353 55.6681 49.2888 55.6745 49.5581C55.6811 49.8273 55.8256 50.0743 56.0571 50.2119L56.4564 49.5394ZM72.4359 59.0272L72.0366 59.6996C72.2964 59.854 72.6217 59.8448 72.8725 59.676C73.1232 59.5074 73.2543 59.2094 73.2092 58.9107L72.4359 59.0272ZM111.49 93.4092L127.72 102.897L128.509 101.547L112.28 92.0589L111.49 93.4092ZM127.38 101.953L121.887 116.933L123.356 117.472L128.849 102.491L127.38 101.953ZM69.2585 40.148L56.0255 48.8868L56.8873 50.1921L70.1204 41.4533L69.2585 40.148ZM56.0571 50.2119L72.0366 59.6996L72.8352 58.3548L56.8557 48.867L56.0571 50.2119ZM73.2092 58.9107L70.4628 40.6841L68.9161 40.9171L71.6626 59.1437L73.2092 58.9107Z" fill="#1D2540"/>
</g>
<path opacity="0.6" d="M135.355 97.9773L120.874 90.4869L149.087 90.2373L135.355 97.9773Z" fill="#1D2540" stroke="#1D2540" stroke-linejoin="round"/>
<path opacity="0.6" d="M108.97 33.119L109.08 33.0523C116.378 28.6645 125.96 26.4442 135.582 26.4375C145.253 26.4309 154.881 28.6607 162.19 33.0824C169.499 37.5039 173.001 43.2031 172.999 48.7646C172.998 54.3264 169.492 60.0312 162.18 64.4632C154.869 68.8954 145.239 71.138 135.568 71.1446C125.898 71.1511 116.269 68.9215 108.96 64.5003C101.651 60.0793 98.1502 54.3799 98.1518 48.8181C98.1534 43.256 101.658 37.5508 108.97 33.119Z" stroke="#1D2540"/>
<path fill-rule="evenodd" clip-rule="evenodd" d="M111.074 34.4572C124.638 26.6167 146.626 26.6023 160.186 34.4251C173.745 42.2478 173.741 54.9454 160.178 62.7861C146.614 70.6269 124.625 70.6404 111.066 62.8186C97.5069 54.9967 97.5105 42.2976 111.074 34.4572Z" fill="#1D2540"/>
<path d="M134.356 39.3033C134.356 39.3033 134.814 34.0599 133.358 32.3122C132.109 30.8141 131.36 30.5645 131.36 30.5645M140.598 39.8025C140.598 39.8025 142.596 35.558 142.346 33.5607C142.096 31.5632 140.848 30.3148 140.848 30.3148M137.602 38.8039C137.602 38.8039 138.922 35.0588 138.351 33.0613C137.781 31.0639 136.603 29.8154 136.603 29.8154M144.094 40.302C144.094 40.302 146.591 36.8065 146.591 34.5594C146.591 32.3122 145.842 31.0639 145.842 31.0639M146.341 41.5504C146.341 41.5504 150.443 38.3046 151.085 36.0575C151.727 33.8103 151.085 32.0626 151.085 32.0626M148.338 42.2995C148.338 42.2995 151.085 41.9998 154.331 40.0523C157.577 38.1049 156.079 34.0599 156.079 34.0599M150.835 45.2955C150.835 45.2955 156.578 44.2968 159.074 42.7987C161.572 41.3006 162.57 38.0548 162.57 38.0548M151.834 47.7923C151.834 47.7923 157.327 48.0421 161.071 47.293C164.817 46.544 167.314 42.5491 167.314 42.5491M151.834 50.0394C151.834 50.0394 158.076 52.5362 162.321 51.7872C166.564 51.0381 169.311 48.2917 169.311 48.2917M151.085 52.5362C151.085 52.5362 154.331 55.5324 159.574 56.2815C164.817 57.0305 168.812 53.7847 168.812 53.7847M146.591 56.7809C146.591 56.7809 146.715 60.2763 149.836 62.7731C152.957 65.2699 157.577 64.0216 157.577 64.0216M131.111 39.0536C131.111 39.0536 131.61 36.0575 130.112 33.5607C128.614 31.0639 126.866 31.0639 126.866 31.0639M127.865 40.302C127.865 40.302 127.507 36.186 125.618 34.0599C123.728 31.934 121.373 32.0626 121.373 32.0626M143.094 57.7796C143.094 57.7796 140.348 62.2737 142.595 64.7706C144.843 67.2674 147.839 67.0176 147.839 67.0176M138.102 58.5286C138.102 58.5286 134.107 59.5273 134.107 63.7718C134.107 68.0164 139.849 68.2661 139.849 68.2661M131.61 58.0292C131.61 58.0292 130.861 58.0292 128.114 61.7744C125.368 65.5195 130.611 68.2661 130.611 68.2661M124.369 55.782C124.369 55.782 117.378 55.2828 114.132 57.5299C110.886 59.7769 112.884 63.0227 112.884 63.0227M120.874 53.535C120.874 53.535 114.982 51.8222 110.886 52.786C106.791 53.7496 106.392 57.7796 106.392 57.7796M119.376 48.5413C119.376 48.5413 115.88 47.5427 110.138 47.5427C104.395 47.5427 103.396 51.2879 103.396 51.2879M120.374 44.7962C120.374 44.7962 116.879 41.8001 111.635 41.5504C106.392 41.3006 104.645 43.2982 104.645 43.2982M122.621 42.5491C122.621 42.5491 120.624 39.8025 117.128 37.8052C113.633 35.8077 109.888 37.3058 109.888 37.3058M125.118 40.8014C125.118 40.8014 123.62 37.3058 121.373 35.558C119.126 33.8103 116.629 34.0599 116.629 34.0599M148.838 54.7834C148.838 54.7834 152.084 58.8719 156.578 60.2763C161.071 61.6807 164.817 59.2776 164.817 59.2776M128.114 57.2801C128.114 57.2801 123.37 57.2801 120.624 60.0267C117.877 62.7731 121.123 66.5184 121.123 66.5184" stroke="#01B6FE" stroke-width="0.5"/>
<path fill-rule="evenodd" clip-rule="evenodd" d="M115.877 36.6966C127.19 29.8634 145.528 29.8509 156.837 36.6686C168.146 43.4862 168.143 54.5523 156.831 61.3857C145.518 68.2191 127.18 68.2308 115.871 61.414C104.562 54.5971 104.565 43.5296 115.877 36.6966Z" fill="url(#paint16_radial_87_449)"/>
<path fill-rule="evenodd" clip-rule="evenodd" d="M124.287 42.339C130.834 38.6299 141.446 38.623 147.992 42.324C154.537 46.025 154.534 52.0327 147.988 55.742C141.443 59.4511 130.828 59.458 124.283 55.7575C117.738 52.057 117.74 46.0483 124.287 42.339Z" fill="url(#paint17_linear_87_449)"/>
<path fill-rule="evenodd" clip-rule="evenodd" d="M124.287 41.3411C130.834 37.6319 141.446 37.625 147.992 41.326C154.537 45.0271 154.534 51.0347 147.988 54.7439C141.443 58.453 130.828 58.4601 124.283 54.7596C117.738 51.0589 117.74 45.0502 124.287 41.3411Z" fill="url(#paint18_linear_87_449)"/>
<path opacity="0.7" d="M120.276 6.54847C121.122 7.1628 122.531 7.21778 123.422 6.67127C124.313 6.12476 124.35 5.18371 123.504 4.56938C122.658 3.95505 121.25 3.90007 120.358 4.44658C119.467 4.99309 119.43 5.93413 120.276 6.54847Z" fill="#1D2540"/>
<path opacity="0.7" d="M113.985 110.344C114.831 110.959 116.239 111.014 117.131 110.467C118.022 109.921 118.059 108.98 117.213 108.365C116.367 107.751 114.958 107.696 114.067 108.242C113.176 108.789 113.139 109.73 113.985 110.344Z" fill="#1D2540"/>
<path opacity="0.7" d="M36.7225 63.4059C35.8311 63.9524 34.4228 63.8975 33.5767 63.2831C32.7307 62.6687 32.7675 61.7277 33.6589 61.1812C34.5501 60.6346 35.9586 60.6896 36.8046 61.304C37.6505 61.9182 37.6139 62.8594 36.7225 63.4059Z" fill="#1D2540"/>
<path opacity="0.7" d="M212.236 59.1676C213.082 59.7819 214.491 59.8369 215.382 59.2904C216.273 58.7439 216.31 57.8029 215.464 57.1885C214.618 56.5742 213.21 56.5192 212.319 57.0657C211.427 57.6122 211.39 58.5533 212.236 59.1676Z" fill="#1D2540"/>
<path fill-rule="evenodd" clip-rule="evenodd" d="M28.7421 64.5199C29.4746 64.9429 30.4232 67.7705 31.2442 68.2469C31.9637 68.6618 32.9536 67.0668 33.7357 67.5161C52.0685 78.0965 95.9436 103.249 117.381 115.624C119.603 116.908 121.218 123.349 123.121 124.443C125.5 125.692 133.555 131.287 133.555 131.287V140.275C133.555 140.275 133.563 140.496 133.517 140.596C133.471 140.697 133.395 140.78 133.299 140.835C133.203 140.89 133.093 140.914 132.983 140.903C132.873 140.892 132.769 140.847 132.686 140.775C132.686 140.775 127.992 138.063 120.587 133.789C118.684 132.695 116.607 136.49 114.385 135.207C92.9474 122.833 51.8303 99.1037 33.4973 88.5208C32.7152 88.0714 31.9637 85.638 31.2442 85.2251C30.4876 84.7887 29.7671 86.3701 29.085 85.9741L21.002 81.3949V58.7773C21.002 58.7773 21.6098 60.3793 22.5001 60.897C24.3248 61.9583 27.3375 63.7093 28.7421 64.5199Z" fill="url(#paint19_linear_87_449)"/>
<path opacity="0.6" d="M31.2389 73.0098V80.7499" stroke="#1D2540" stroke-width="0.5" stroke-linejoin="round"/>
<path opacity="0.6" d="M32.737 74.0078V81.7479" stroke="#1D2540" stroke-width="0.5" stroke-linejoin="round"/>
<path opacity="0.6" d="M34.2349 74.6328V82.3729" stroke="#1D2540" stroke-width="0.5" stroke-linejoin="round"/>
<path opacity="0.6" d="M35.7332 75.46V83.2001" stroke="#1D2540" stroke-width="0.5" stroke-linejoin="round"/>
<path opacity="0.6" d="M37.2313 76.3643V84.1044" stroke="#1D2540" stroke-width="0.5" stroke-linejoin="round"/>
<path opacity="0.6" d="M38.7294 77.1602V84.9003" stroke="#1D2540" stroke-width="0.5" stroke-linejoin="round"/>
<path opacity="0.6" d="M40.2273 78.0811V85.8212" stroke="#1D2540" stroke-width="0.5" stroke-linejoin="round"/>
<path opacity="0.6" d="M41.7254 78.877V86.6171" stroke="#1D2540" stroke-width="0.5" stroke-linejoin="round"/>
<path opacity="0.6" d="M43.2237 79.7656V87.5057" stroke="#1D2540" stroke-width="0.5" stroke-linejoin="round"/>
<path fill-rule="evenodd" clip-rule="evenodd" d="M12.5128 66.6339V63.168C13.8159 62.3765 21.002 58.4092 21.002 58.4092L21.0018 81.4977L12.5128 85.992V82.9548L15.2988 81.3469C15.4964 81.229 15.6634 81.0661 15.7866 80.8719C15.9099 80.6775 15.9859 80.4569 16.0084 80.2279V78.809C16.0084 78.4169 15.6908 78.2827 15.2988 78.5088L12.5128 80.1167V69.4719L15.2988 67.864C15.4964 67.7459 15.6634 67.5833 15.7866 67.389C15.9099 67.1946 15.9859 66.9741 16.0084 66.7451V65.326C16.0084 64.934 15.6908 64.7998 15.2988 65.026L12.5128 66.6339ZM16.2853 72.343C16.589 71.8171 17.0124 71.3703 17.5212 71.0388C18.4864 70.482 19.2688 70.9336 19.2688 72.048C19.236 72.6542 19.0606 73.2442 18.7569 73.7701C18.4533 74.2958 18.0299 74.7425 17.5212 75.0741C16.5557 75.6312 15.7733 75.1793 15.7733 74.0652C15.8062 73.4588 15.9815 72.8688 16.2853 72.343Z" fill="url(#paint20_linear_87_449)"/>
<path opacity="0.6" fill-rule="evenodd" clip-rule="evenodd" d="M106.648 123.071L97.4902 117.785C96.4189 117.167 95.5501 115.66 95.5501 114.419C95.5501 113.177 96.4189 112.673 97.4902 113.291L106.648 118.577C107.72 119.195 108.588 120.703 108.588 121.943C108.588 123.184 107.72 123.689 106.648 123.071ZM91.2817 114.202L82.1234 108.917C81.0518 108.298 80.1834 106.79 80.1834 105.55C80.1834 104.309 81.0518 103.804 82.1234 104.423L91.2817 109.708C92.3527 110.326 93.2216 111.833 93.2216 113.075C93.2216 114.316 92.3527 114.821 91.2817 114.202ZM76.0701 105.423L66.9125 100.138C65.8407 99.5188 64.9719 98.0118 64.9719 96.7704C64.9719 95.5294 65.8407 95.0245 66.9125 95.6433L76.0701 100.929C77.1417 101.547 78.0101 103.055 78.0101 104.296C78.0101 105.537 77.1417 106.041 76.0701 105.423ZM60.8581 96.6435L51.7 91.3578C50.6283 90.7396 49.7599 89.232 49.7599 87.9911C49.7599 86.7502 50.6283 86.2454 51.7 86.8635L60.8581 92.1492C61.9299 92.7675 62.7982 94.275 62.7982 95.5159C62.7982 96.7574 61.9299 97.2616 60.8581 96.6435Z" fill="#1D2540"/>
<path d="M84.9481 71.7579L77.4953 67.4551L68.8116 72.4687L76.2644 76.7717L79.986 74.6231L75.9145 72.2722" stroke="white" stroke-linecap="round" stroke-linejoin="round"/>
<path d="M80.0013 79.4597C79.6274 79.6757 79.4993 80.154 79.7151 80.528C79.9311 80.9021 80.4094 81.0302 80.7834 80.8142L80.0013 79.4597ZM89.4896 74.8847L89.8808 74.2073C89.6389 74.0676 89.3407 74.0676 89.0986 74.2073L89.4896 74.8847ZM96.9426 79.1876L97.3336 79.865C97.5756 79.7251 97.7246 79.4671 97.7246 79.1876C97.7246 78.9082 97.5756 78.65 97.3336 78.5103L96.9426 79.1876ZM91.9805 82.0527L91.5895 82.7299C91.8314 82.8696 92.1295 82.8696 92.3715 82.7299L91.9805 82.0527ZM80.7834 80.8142L89.8808 75.562L89.0986 74.2073L80.0013 79.4597L80.7834 80.8142ZM89.0986 75.562L96.5516 79.865L97.3336 78.5103L89.8808 74.2073L89.0986 75.562ZM96.5516 78.5103L91.5895 81.3753L92.3715 82.7299L97.3336 79.865L96.5516 78.5103ZM92.3715 81.3753L85.1946 77.2316L84.4126 78.5863L91.5895 82.7299L92.3715 81.3753Z" fill="white"/>
<path d="M101.898 81.1504L92.8004 86.403L100.391 90.7856L109.775 85.1887" stroke="white" stroke-linecap="round" stroke-linejoin="round"/>
<defs>
<linearGradient id="paint0_linear_87_449" x1="12.5197" y1="120.999" x2="231.238" y2="120.999" gradientUnits="userSpaceOnUse">
<stop offset="0.48" stop-color="#D2D8E6"/>
<stop offset="0.52" stop-color="#E0E4EF"/>
</linearGradient>
<linearGradient id="paint1_linear_87_449" x1="12.6098" y1="120.969" x2="231.329" y2="120.969" gradientUnits="userSpaceOnUse">
<stop stop-color="#BBC1D4" stop-opacity="0"/>
<stop offset="0.35" stop-color="#BBC1D4" stop-opacity="0.7"/>
<stop offset="1" stop-color="#BBC1D4" stop-opacity="0"/>
</linearGradient>
<linearGradient id="paint2_linear_87_449" x1="37.5385" y1="84.4609" x2="38.0859" y2="84.4609" gradientUnits="userSpaceOnUse">
<stop stop-color="#00BAFF"/>
<stop offset="1" stop-color="#00BAFF" stop-opacity="0"/>
</linearGradient>
<linearGradient id="paint3_linear_87_449" x1="53.1795" y1="114.18" x2="53.7269" y2="114.18" gradientUnits="userSpaceOnUse">
<stop stop-color="#00BAFF"/>
<stop offset="1" stop-color="#00BAFF" stop-opacity="0"/>
</linearGradient>
<linearGradient id="paint4_linear_87_449" x1="112.615" y1="143.897" x2="113.163" y2="143.897" gradientUnits="userSpaceOnUse">
<stop stop-color="#00BAFF"/>
<stop offset="1" stop-color="#00BAFF" stop-opacity="0"/>
</linearGradient>
<linearGradient id="paint5_linear_87_449" x1="82.8974" y1="118.871" x2="83.4449" y2="118.871" gradientUnits="userSpaceOnUse">
<stop stop-color="#00BAFF"/>
<stop offset="1" stop-color="#00BAFF" stop-opacity="0"/>
</linearGradient>
<linearGradient id="paint6_linear_87_449" x1="136.077" y1="125.128" x2="136.624" y2="125.128" gradientUnits="userSpaceOnUse">
<stop stop-color="#00BAFF"/>
<stop offset="1" stop-color="#00BAFF" stop-opacity="0"/>
</linearGradient>
<linearGradient id="paint7_linear_87_449" x1="170.487" y1="103.23" x2="171.035" y2="103.23" gradientUnits="userSpaceOnUse">
<stop stop-color="#00BAFF"/>
<stop offset="1" stop-color="#00BAFF" stop-opacity="0"/>
</linearGradient>
<linearGradient id="paint8_linear_87_449" x1="201.769" y1="100.103" x2="202.317" y2="100.103" gradientUnits="userSpaceOnUse">
<stop stop-color="#00BAFF"/>
<stop offset="1" stop-color="#00BAFF" stop-opacity="0"/>
</linearGradient>
<linearGradient id="paint9_linear_87_449" x1="167.359" y1="131.385" x2="167.906" y2="131.385" gradientUnits="userSpaceOnUse">
<stop stop-color="#00BAFF"/>
<stop offset="1" stop-color="#00BAFF" stop-opacity="0"/>
</linearGradient>
<linearGradient id="paint10_linear_87_449" x1="122" y1="165.591" x2="122" y2="67.0369" gradientUnits="userSpaceOnUse">
<stop stop-color="#17BDFF"/>
<stop offset="0.8" stop-color="#17BDFF" stop-opacity="0"/>
</linearGradient>
<linearGradient id="paint11_linear_87_449" x1="127.116" y1="110.108" x2="231.475" y2="110.108" gradientUnits="userSpaceOnUse">
<stop stop-color="#1D53DA"/>
<stop offset="1" stop-color="#3F75FC"/>
</linearGradient>
<linearGradient id="paint12_linear_87_449" x1="283.417" y1="67.7997" x2="154.242" y2="106.037" gradientUnits="userSpaceOnUse">
<stop stop-color="#00BAFF"/>
<stop offset="1" stop-color="#0397F6"/>
</linearGradient>
<linearGradient id="paint13_linear_87_449" x1="21.002" y1="77.1358" x2="223.664" y2="77.1358" gradientUnits="userSpaceOnUse">
<stop offset="0.01" stop-color="#353D6C"/>
<stop offset="1" stop-color="#575F8E"/>
</linearGradient>
<linearGradient id="paint14_linear_87_449" x1="21.002" y1="77.1358" x2="223.664" y2="77.1358" gradientUnits="userSpaceOnUse">
<stop offset="0.01" stop-color="#353D6C"/>
<stop offset="1" stop-color="#575F8E"/>
</linearGradient>
<linearGradient id="paint15_linear_87_449" x1="21.002" y1="58.5204" x2="223.674" y2="58.5204" gradientUnits="userSpaceOnUse">
<stop offset="0.00513965" stop-color="#3F4B75"/>
<stop offset="1" stop-color="#636F99"/>
</linearGradient>
<radialGradient id="paint16_radial_87_449" cx="0" cy="0" r="1" gradientUnits="userSpaceOnUse" gradientTransform="translate(136.354 49.0411) rotate(90) scale(17.4776 28.9628)">
<stop offset="0.708333" stop-color="#1D2540"/>
<stop offset="1" stop-color="#1D2540" stop-opacity="0"/>
</radialGradient>
<linearGradient id="paint17_linear_87_449" x1="119.376" y1="49.0406" x2="152.899" y2="49.0406" gradientUnits="userSpaceOnUse">
<stop stop-color="#1D53DA"/>
<stop offset="1" stop-color="#3F75FC"/>
</linearGradient>
<linearGradient id="paint18_linear_87_449" x1="119.376" y1="48.0425" x2="152.846" y2="48.0425" gradientUnits="userSpaceOnUse">
<stop stop-color="#0397F6"/>
<stop offset="1" stop-color="#00BAFF"/>
</linearGradient>
<linearGradient id="paint19_linear_87_449" x1="21.002" y1="99.844" x2="133.556" y2="99.844" gradientUnits="userSpaceOnUse">
<stop stop-color="#5B6791"/>
<stop offset="1" stop-color="#69759F"/>
</linearGradient>
<linearGradient id="paint20_linear_87_449" x1="12.5128" y1="72.2014" x2="21.002" y2="72.2014" gradientUnits="userSpaceOnUse">
<stop stop-color="#5B6791"/>
<stop offset="1" stop-color="#69759F"/>
</linearGradient>
</defs>
</svg>
