<svg width="244" height="244" viewBox="0 0 244 244" fill="none" xmlns="http://www.w3.org/2000/svg">
<path opacity="0.08" d="M122 117.713C120.5 117.713 119.001 118.013 117.701 118.713C116.601 119.313 15.4126 177.406 14.3127 178.006C13.3128 178.406 12.6129 179.405 12.5129 180.506C12.6129 181.605 13.3128 182.505 14.3127 183.005C15.4126 183.605 116.601 241.698 117.701 242.298C120.4 243.698 123.6 243.698 126.3 242.298C127.399 241.698 228.588 183.605 229.687 183.005C230.688 182.606 231.387 181.605 231.487 180.506C231.387 179.405 230.688 178.505 229.687 178.006C228.588 177.406 127.399 119.313 126.3 118.713C125 118.113 123.5 117.713 122 117.713Z" fill="url(#paint0_linear_87_166)"/>
<path d="M231.387 106.706C231.387 106.806 231.387 106.806 231.387 106.906V135.888C231.288 136.987 230.587 137.886 229.588 138.386C228.489 138.986 127.353 197.05 126.253 197.648C123.555 199.048 120.357 199.048 117.659 197.648C116.559 197.05 15.4227 138.986 14.3234 138.386C13.324 137.986 12.6244 136.987 12.5245 135.888V106.806V106.306C12.5129 105.577 13.5239 104.707 14.3234 104.307C15.4227 103.708 116.559 44.7447 117.659 44.145C120.357 42.7459 123.555 42.7459 126.253 44.145C127.353 44.7447 228.489 103.708 229.588 104.307C230.388 104.707 231.088 105.407 231.387 106.306V106.706Z" fill="url(#paint1_linear_87_166)"/>
<path d="M231.375 106.706C231.375 106.806 231.375 106.806 231.375 106.906V135.888C231.276 136.987 230.576 137.886 229.577 138.386C228.477 138.986 127.341 197.05 126.242 197.648C123.543 199.048 120.345 199.048 117.647 197.648C116.548 197.05 15.411 138.986 14.3118 138.386C13.3124 137.986 12.6129 136.987 12.5129 135.888V106.806V106.306H12.6129C12.9127 105.407 13.5123 104.707 14.3118 104.307C15.411 103.708 116.548 44.7447 117.647 44.145C120.345 42.7459 123.543 42.7459 126.242 44.145C127.341 44.7447 228.477 103.708 229.577 104.307C230.376 104.707 231.487 105.577 231.375 106.273V106.306V106.706Z" fill="url(#paint2_linear_87_166)"/>
<path d="M229.588 108.905C228.489 109.504 127.353 167.968 126.253 168.667C123.555 170.066 120.357 170.066 117.659 168.667C116.559 168.067 15.4227 109.604 14.3234 108.905C12.9243 108.405 12.2247 106.906 12.6245 105.607C12.9243 104.807 13.5239 104.208 14.3234 103.908C15.4227 103.308 116.559 44.8446 117.659 44.145C120.357 42.7459 123.555 42.7459 126.253 44.145C127.353 44.7447 228.489 103.208 229.588 103.908C230.988 104.407 231.737 105.906 231.237 107.206C231.038 107.905 230.388 108.605 229.588 108.905ZM222.393 103.708C221.394 103.108 126.453 47.8428 125.354 47.2431C122.855 45.944 119.757 45.944 117.259 47.2431C116.26 47.8428 21.319 103.108 20.2197 103.708C18.9205 104.208 18.2209 105.607 18.7207 106.906C19.0205 107.605 19.5201 108.205 20.2197 108.405C21.2191 109.004 116.26 164.269 117.259 164.869C119.757 166.168 122.855 166.168 125.354 164.869C126.353 164.269 221.394 109.004 222.393 108.405C223.692 108.005 224.392 106.506 223.892 105.207C223.692 104.607 223.092 104.107 222.393 103.708Z" fill="white" fill-opacity="0.5"/>
<path d="M117.359 164.669C116.559 164.27 66.5906 135.188 38.6083 118.998C68.8892 101.509 116.859 73.8265 117.559 73.3267C120.257 71.9276 123.455 71.9276 126.153 73.3267C126.953 73.7264 174.223 101.109 204.604 118.698C176.722 134.888 126.153 164.27 125.354 164.669C122.955 165.968 119.957 165.968 117.359 164.669Z" fill="#333C5E"/>
<path opacity="0.32" fill-rule="evenodd" clip-rule="evenodd" d="M24.3228 125.455C24.6268 124.949 25.2841 124.784 25.7908 125.088L31.1409 128.298C31.6475 128.602 31.8119 129.26 31.5079 129.766C31.2037 130.273 30.5465 130.437 30.0398 130.133L24.6898 126.923C24.183 126.619 24.0188 125.962 24.3228 125.455Z" fill="#142149"/>
<path opacity="0.48" fill-rule="evenodd" clip-rule="evenodd" d="M24.3228 130.805C24.6268 130.298 25.2841 130.134 25.7908 130.438L31.1409 133.648C31.6475 133.952 31.8119 134.609 31.5079 135.116C31.2037 135.623 30.5465 135.787 30.0398 135.483L24.6898 132.273C24.183 131.969 24.0188 131.312 24.3228 130.805Z" fill="#142149"/>
<path opacity="0.48" fill-rule="evenodd" clip-rule="evenodd" d="M33.9533 130.804C34.2577 130.298 34.9151 130.134 35.4216 130.438L40.7616 133.648C41.2682 133.953 41.4319 134.61 41.1274 135.117C40.8229 135.623 40.1656 135.787 39.659 135.482L34.319 132.272C33.8127 131.968 33.6489 131.311 33.9533 130.804Z" fill="#142149"/>
<path opacity="0.32" fill-rule="evenodd" clip-rule="evenodd" d="M33.9533 136.144C34.2577 135.637 34.9151 135.474 35.4216 135.778L40.7616 138.988C41.2682 139.293 41.4319 139.95 41.1274 140.456C40.8229 140.963 40.1656 141.127 39.659 140.822L34.319 137.612C33.8127 137.308 33.6489 136.65 33.9533 136.144Z" fill="#142149"/>
<path opacity="0.32" fill-rule="evenodd" clip-rule="evenodd" d="M210.23 129.691C210.786 129.691 211.235 130.141 211.235 130.696V137.696C211.235 138.251 210.786 138.701 210.23 138.701C209.675 138.701 209.226 138.251 209.226 137.696V130.696C209.226 130.141 209.675 129.691 210.23 129.691Z" fill="#142149"/>
<path opacity="0.32" fill-rule="evenodd" clip-rule="evenodd" d="M214.251 127.181C214.805 127.181 215.255 127.63 215.255 128.186V135.186C215.255 135.741 214.805 136.191 214.251 136.191C213.695 136.191 213.246 135.741 213.246 135.186V128.186C213.246 127.63 213.695 127.181 214.251 127.181Z" fill="#142149"/>
<path opacity="0.32" fill-rule="evenodd" clip-rule="evenodd" d="M218.27 124.671C218.825 124.671 219.276 125.121 219.276 125.676V133.216C219.276 133.771 218.825 134.221 218.27 134.221C217.715 134.221 217.265 133.771 217.265 133.216V125.676C217.265 125.121 217.715 124.671 218.27 124.671Z" fill="#142149"/>
<path opacity="0.32" fill-rule="evenodd" clip-rule="evenodd" d="M222.291 122.661C222.845 122.661 223.296 123.111 223.296 123.666V130.666C223.296 131.221 222.845 131.671 222.291 131.671C221.736 131.671 221.285 131.221 221.285 130.666V123.666C221.285 123.111 221.736 122.661 222.291 122.661Z" fill="#142149"/>
<path opacity="0.32" fill-rule="evenodd" clip-rule="evenodd" d="M68.8966 154.504C69.1795 154.01 69.809 153.84 70.3024 154.123L108.932 176.273C109.426 176.555 109.597 177.185 109.314 177.679C109.031 178.171 108.401 178.342 107.908 178.06L69.2778 155.91C68.7843 155.627 68.6137 154.997 68.8966 154.504Z" fill="#142149"/>
<path d="M38.005 84.1582H37.5068V96.1139H38.005V84.1582Z" fill="url(#paint3_linear_87_166)"/>
<path d="M53.9457 114.047H53.4475V126.003H53.9457V114.047Z" fill="url(#paint4_linear_87_166)"/>
<path d="M113.724 144.933H113.226V159.877H113.724V144.933Z" fill="url(#paint5_linear_87_166)"/>
<path d="M83.835 120.025H83.3368V133.974H83.835V120.025Z" fill="url(#paint6_linear_87_166)"/>
<path d="M135.642 125.007H135.144V136.963H135.642V125.007Z" fill="url(#paint7_linear_87_166)"/>
<path d="M170.513 104.085H170.015V116.041H170.513V104.085Z" fill="url(#paint8_linear_87_166)"/>
<path d="M202.395 101.096H201.897V113.051H202.395V101.096Z" fill="url(#paint9_linear_87_166)"/>
<path d="M167.525 131.514H167.027V143.469H167.525V131.514Z" fill="url(#paint10_linear_87_166)"/>
<path opacity="0.8" d="M224.058 67.2565L18.7692 67.1953V104.795C18.57 105.293 18.5896 106.539 18.8476 107.141C19.1464 107.838 19.636 108.271 20.3334 108.47C21.3296 109.068 116.314 164.258 117.31 164.856C119.801 166.151 122.89 166.151 125.381 164.856C126.377 164.258 221.126 109.147 222.122 108.549C222.532 108.412 222.913 108.228 223.217 107.923C223.666 107.474 223.999 106.831 224.058 106.359C223.919 96.9744 224.058 79.7425 224.058 67.2565Z" fill="url(#paint11_linear_87_166)"/>
<path d="M231.487 64.1279H12.5129C12.5129 64.1279 12.5129 67.472 12.5129 68.965C12.6124 70.06 13.3092 71.0552 14.3045 71.4534C15.3994 72.0506 116.625 131.074 117.72 131.671C120.408 133.065 123.593 133.065 126.28 131.671C127.375 131.074 228.601 72.0506 229.696 71.4534C230.691 70.9558 231.388 70.06 231.487 68.965C231.487 68.0381 231.487 64.1279 231.487 64.1279Z" fill="url(#paint12_linear_87_166)"/>
<path d="M122 0.386719C120.507 0.386719 119.014 0.68532 117.72 1.38206C116.625 2.07879 15.3994 61.1023 14.3045 61.6995C13.3092 62.1972 12.5129 63.3464 12.5129 64.1879C12.6124 65.2827 13.3092 66.2781 14.3045 66.6763C15.3994 67.2735 116.625 126.297 117.72 126.894C120.408 128.288 123.593 128.288 126.28 126.894C127.375 126.297 228.601 67.2735 229.696 66.6763C230.691 66.1785 231.388 65.2827 231.487 64.1879C231.487 63.3464 230.691 62.0977 229.696 61.6995C228.601 61.0028 127.375 2.07879 126.28 1.48159C124.986 0.68532 123.493 0.386719 122 0.386719Z" fill="url(#paint13_linear_87_166)"/>
<path opacity="0.7" fill-rule="evenodd" clip-rule="evenodd" d="M165.255 87.8382L203.875 64.9454C204.571 64.5472 204.472 63.8506 203.776 63.4524L165.455 40.9578C164.757 40.5596 163.862 40.46 163.065 40.8581L124.447 63.7509C123.85 64.0495 123.949 64.7463 124.646 65.1445L162.867 87.7386C163.563 88.1367 164.459 88.2362 165.255 87.8382ZM120.664 62.3574C121.361 62.7556 122.257 62.8552 123.053 62.457L161.673 39.5642C162.27 39.2657 162.17 38.5689 161.473 38.1707L123.252 15.5766C122.556 15.1784 121.66 15.079 120.864 15.4771L82.2445 38.3698C81.6473 38.6685 81.7467 39.3652 82.4436 39.7633L120.664 62.3574ZM80.851 87.8382L119.47 64.9454C120.067 64.5472 119.968 63.8506 119.271 63.4524L81.0501 40.8581C80.3534 40.46 79.4575 40.3605 78.6613 40.7587L40.0421 63.6515C39.4449 63.95 39.5445 64.6467 40.2412 65.0449L59.6159 76.5486L62.4181 74.955L62.4215 74.9569C62.4308 74.9511 62.4406 74.9454 62.4504 74.9396C62.9468 74.653 63.7515 74.6526 64.2476 74.9385C64.7438 75.2244 64.7437 75.6886 64.2474 75.9751C64.2323 75.9838 64.2168 75.9923 64.2011 76.0005L61.3877 77.6007L78.4622 87.7386C79.1589 88.1367 80.0547 88.2362 80.851 87.8382Z" fill="#1D2540"/>
<path d="M85.0314 38.37V33.0947H158.985V38.37C159.085 38.7682 158.886 39.2658 158.587 39.4648L123.053 60.2674C122.357 60.566 121.461 60.566 120.864 60.1678L85.6285 39.6639C85.1309 39.3654 84.9318 38.8676 85.0314 38.37Z" fill="url(#paint14_linear_87_166)"/>
<path d="M86.9333 32.1469C86.9333 32.1469 86.5026 28.3094 90.2138 30.0746L86.9333 32.1469Z" fill="black"/>
<path d="M86.9333 32.1469C86.9333 32.1469 86.5026 28.3094 90.2138 30.0746" stroke="white" stroke-width="0.717647" stroke-linecap="round"/>
<path d="M89.2424 30.8008C89.2424 30.8008 88.8032 26.9593 92.5298 28.732L89.2424 30.8008Z" fill="black"/>
<path d="M89.2424 30.8008C89.2424 30.8008 88.8032 26.9593 92.5298 28.732" stroke="white" stroke-width="0.717647" stroke-linecap="round"/>
<path d="M91.5508 29.4487C91.5508 29.4487 91.1199 25.6111 94.8312 27.3764L91.5508 29.4487Z" fill="black"/>
<path d="M91.5508 29.4487C91.5508 29.4487 91.1199 25.6111 94.8312 27.3764" stroke="white" stroke-width="0.717647" stroke-linecap="round"/>
<path d="M93.8567 28.102C93.8567 28.102 93.426 24.2644 97.1373 26.0297L93.8567 28.102Z" fill="black"/>
<path d="M93.8567 28.102C93.8567 28.102 93.426 24.2644 97.1373 26.0297" stroke="white" stroke-width="0.717647" stroke-linecap="round"/>
<path d="M96.1625 26.7542C96.1625 26.7542 95.7317 22.9168 99.4431 24.6821L96.1625 26.7542Z" fill="black"/>
<path d="M96.1625 26.7542C96.1625 26.7542 95.7317 22.9168 99.4431 24.6821" stroke="white" stroke-width="0.717647" stroke-linecap="round"/>
<path d="M98.4694 25.4067C98.4694 25.4067 98.0385 21.5691 101.75 23.3344L98.4694 25.4067Z" fill="black"/>
<path d="M98.4694 25.4067C98.4694 25.4067 98.0385 21.5691 101.75 23.3344" stroke="white" stroke-width="0.717647" stroke-linecap="round"/>
<path d="M100.776 24.059C100.776 24.059 100.345 20.2215 104.056 21.9867L100.776 24.059Z" fill="black"/>
<path d="M100.776 24.059C100.776 24.059 100.345 20.2215 104.056 21.9867" stroke="white" stroke-width="0.717647" stroke-linecap="round"/>
<path d="M103.081 22.7123C103.081 22.7123 102.65 18.8748 106.362 20.6401L103.081 22.7123Z" fill="black"/>
<path d="M103.081 22.7123C103.081 22.7123 102.65 18.8748 106.362 20.6401" stroke="white" stroke-width="0.717647" stroke-linecap="round"/>
<path d="M105.387 21.3637C105.387 21.3637 104.957 17.5262 108.668 19.2914L105.387 21.3637Z" fill="black"/>
<path d="M105.387 21.3637C105.387 21.3637 104.957 17.5262 108.668 19.2914" stroke="white" stroke-width="0.717647" stroke-linecap="round"/>
<path d="M107.693 20.017C107.693 20.017 107.262 16.1795 110.974 17.9447L107.693 20.017Z" fill="black"/>
<path d="M107.693 20.017C107.693 20.017 107.262 16.1795 110.974 17.9447" stroke="white" stroke-width="0.717647" stroke-linecap="round"/>
<path d="M109.999 18.6692C109.999 18.6692 109.568 14.8318 113.279 16.5971L109.999 18.6692Z" fill="black"/>
<path d="M109.999 18.6692C109.999 18.6692 109.568 14.8318 113.279 16.5971" stroke="white" stroke-width="0.717647" stroke-linecap="round"/>
<path d="M112.305 17.3207C112.305 17.3207 111.874 13.4832 115.586 15.2484L112.305 17.3207Z" fill="black"/>
<path d="M112.305 17.3207C112.305 17.3207 111.874 13.4832 115.586 15.2484" stroke="white" stroke-width="0.717647" stroke-linecap="round"/>
<path d="M114.611 15.974C114.611 15.974 114.18 12.1365 117.892 13.9018L114.611 15.974Z" fill="black"/>
<path d="M114.611 15.974C114.611 15.974 114.18 12.1365 117.892 13.9018" stroke="white" stroke-width="0.717647" stroke-linecap="round"/>
<path d="M157.245 32.1469C157.245 32.1469 157.676 28.3094 153.964 30.0746L157.245 32.1469Z" fill="black"/>
<path d="M157.245 32.1469C157.245 32.1469 157.676 28.3094 153.964 30.0746" stroke="white" stroke-width="0.717647" stroke-linecap="round"/>
<path d="M154.936 30.8008C154.936 30.8008 155.375 26.9593 151.649 28.732L154.936 30.8008Z" fill="black"/>
<path d="M154.936 30.8008C154.936 30.8008 155.375 26.9593 151.649 28.732" stroke="white" stroke-width="0.717647" stroke-linecap="round"/>
<path d="M152.628 29.4496C152.628 29.4496 153.058 25.6121 149.347 27.3774L152.628 29.4496Z" fill="black"/>
<path d="M152.628 29.4496C152.628 29.4496 153.058 25.6121 149.347 27.3774" stroke="white" stroke-width="0.717647" stroke-linecap="round"/>
<path d="M150.321 28.101C150.321 28.101 150.752 24.2635 147.042 26.0287L150.321 28.101Z" fill="black"/>
<path d="M150.321 28.101C150.321 28.101 150.752 24.2635 147.042 26.0287" stroke="white" stroke-width="0.717647" stroke-linecap="round"/>
<path d="M148.016 26.7542C148.016 26.7542 148.447 22.9168 144.735 24.6821L148.016 26.7542Z" fill="black"/>
<path d="M148.016 26.7542C148.016 26.7542 148.447 22.9168 144.735 24.6821" stroke="white" stroke-width="0.717647" stroke-linecap="round"/>
<path d="M145.71 25.4065C145.71 25.4065 146.14 21.5691 142.429 23.3344L145.71 25.4065Z" fill="black"/>
<path d="M145.71 25.4065C145.71 25.4065 146.14 21.5691 142.429 23.3344" stroke="white" stroke-width="0.717647" stroke-linecap="round"/>
<path d="M143.403 24.06C143.403 24.06 143.834 20.2224 140.122 21.9877L143.403 24.06Z" fill="black"/>
<path d="M143.403 24.06C143.403 24.06 143.834 20.2224 140.122 21.9877" stroke="white" stroke-width="0.717647" stroke-linecap="round"/>
<path d="M141.098 22.7112C141.098 22.7112 141.528 18.8738 137.817 20.6391L141.098 22.7112Z" fill="black"/>
<path d="M141.098 22.7112C141.098 22.7112 141.528 18.8738 137.817 20.6391" stroke="white" stroke-width="0.717647" stroke-linecap="round"/>
<path d="M138.791 21.3637C138.791 21.3637 139.222 17.5262 135.51 19.2914L138.791 21.3637Z" fill="black"/>
<path d="M138.791 21.3637C138.791 21.3637 139.222 17.5262 135.51 19.2914" stroke="white" stroke-width="0.717647" stroke-linecap="round"/>
<path d="M136.485 20.017C136.485 20.017 136.916 16.1795 133.205 17.9447L136.485 20.017Z" fill="black"/>
<path d="M136.485 20.017C136.485 20.017 136.916 16.1795 133.205 17.9447" stroke="white" stroke-width="0.717647" stroke-linecap="round"/>
<path d="M134.179 18.6683C134.179 18.6683 134.61 14.8309 130.899 16.5961L134.179 18.6683Z" fill="black"/>
<path d="M134.179 18.6683C134.179 18.6683 134.61 14.8309 130.899 16.5961" stroke="white" stroke-width="0.717647" stroke-linecap="round"/>
<path d="M131.874 17.3207C131.874 17.3207 132.305 13.4832 128.593 15.2484L131.874 17.3207Z" fill="black"/>
<path d="M131.874 17.3207C131.874 17.3207 132.305 13.4832 128.593 15.2484" stroke="white" stroke-width="0.717647" stroke-linecap="round"/>
<path d="M129.567 15.974C129.567 15.974 129.998 12.1365 126.287 13.9018L129.567 15.974Z" fill="black"/>
<path d="M129.567 15.974C129.567 15.974 129.998 12.1365 126.287 13.9018" stroke="white" stroke-width="0.717647" stroke-linecap="round"/>
<path d="M129.465 52.8428C129.465 52.8428 131.866 53.8778 131.921 56.9891L129.465 52.8428Z" fill="black"/>
<path d="M129.465 52.8428C129.465 52.8428 131.866 53.8778 131.921 56.9891" stroke="white" stroke-width="0.717647" stroke-linecap="round"/>
<path d="M127.074 54.2393C127.074 54.2393 129.475 55.2741 129.531 58.3855L127.074 54.2393Z" fill="black"/>
<path d="M127.074 54.2393C127.074 54.2393 129.475 55.2741 129.531 58.3855" stroke="white" stroke-width="0.717647" stroke-linecap="round"/>
<path d="M131.855 51.4453C131.855 51.4453 134.256 52.4802 134.311 55.5916L131.855 51.4453Z" fill="black"/>
<path d="M131.855 51.4453C131.855 51.4453 134.256 52.4802 134.311 55.5916" stroke="white" stroke-width="0.717647" stroke-linecap="round"/>
<path d="M134.245 50.0479C134.245 50.0479 136.646 51.0827 136.701 54.1941L134.245 50.0479Z" fill="black"/>
<path d="M134.245 50.0479C134.245 50.0479 136.646 51.0827 136.701 54.1941" stroke="white" stroke-width="0.717647" stroke-linecap="round"/>
<path d="M136.635 48.6514C136.635 48.6514 139.037 49.6864 139.092 52.7976L136.635 48.6514Z" fill="black"/>
<path d="M136.635 48.6514C136.635 48.6514 139.037 49.6864 139.092 52.7976" stroke="white" stroke-width="0.717647" stroke-linecap="round"/>
<path d="M139.026 47.2549C139.026 47.2549 141.427 48.2899 141.482 51.4012L139.026 47.2549Z" fill="black"/>
<path d="M139.026 47.2549C139.026 47.2549 141.427 48.2899 141.482 51.4012" stroke="white" stroke-width="0.717647" stroke-linecap="round"/>
<path d="M141.416 45.8584C141.416 45.8584 143.816 46.8934 143.872 50.0047L141.416 45.8584Z" fill="black"/>
<path d="M141.416 45.8584C141.416 45.8584 143.816 46.8934 143.872 50.0047" stroke="white" stroke-width="0.717647" stroke-linecap="round"/>
<path d="M143.806 44.4619C143.806 44.4619 146.208 45.4969 146.264 48.6082L143.806 44.4619Z" fill="black"/>
<path d="M143.806 44.4619C143.806 44.4619 146.208 45.4969 146.264 48.6082" stroke="white" stroke-width="0.717647" stroke-linecap="round"/>
<path d="M146.196 43.0645C146.196 43.0645 148.597 44.0994 148.653 47.2107L146.196 43.0645Z" fill="black"/>
<path d="M146.196 43.0645C146.196 43.0645 148.597 44.0994 148.653 47.2107" stroke="white" stroke-width="0.717647" stroke-linecap="round"/>
<path d="M148.586 41.668C148.586 41.668 150.987 42.703 151.043 45.8142L148.586 41.668Z" fill="black"/>
<path d="M148.586 41.668C148.586 41.668 150.987 42.703 151.043 45.8142" stroke="white" stroke-width="0.717647" stroke-linecap="round"/>
<path d="M150.977 40.2705C150.977 40.2705 153.378 41.3054 153.433 44.4168L150.977 40.2705Z" fill="black"/>
<path d="M150.977 40.2705C150.977 40.2705 153.378 41.3054 153.433 44.4168" stroke="white" stroke-width="0.717647" stroke-linecap="round"/>
<path d="M153.367 38.874C153.367 38.874 155.768 39.9089 155.824 43.0203L153.367 38.874Z" fill="black"/>
<path d="M153.367 38.874C153.367 38.874 155.768 39.9089 155.824 43.0203" stroke="white" stroke-width="0.717647" stroke-linecap="round"/>
<path d="M155.758 37.4775C155.758 37.4775 158.158 38.5124 158.214 41.6238L155.758 37.4775Z" fill="black"/>
<path d="M155.758 37.4775C155.758 37.4775 158.158 38.5124 158.214 41.6238" stroke="white" stroke-width="0.717647" stroke-linecap="round"/>
<path d="M115.342 52.8438C115.342 52.8438 112.941 53.8787 112.885 56.99L115.342 52.8438Z" fill="black"/>
<path d="M115.342 52.8438C115.342 52.8438 112.941 53.8787 112.885 56.99" stroke="white" stroke-width="0.717647" stroke-linecap="round"/>
<path d="M117.732 54.2393C117.732 54.2393 115.331 55.2741 115.276 58.3855L117.732 54.2393Z" fill="black"/>
<path d="M117.732 54.2393C117.732 54.2393 115.331 55.2741 115.276 58.3855" stroke="white" stroke-width="0.717647" stroke-linecap="round"/>
<path d="M112.952 51.4453C112.952 51.4453 110.551 52.4803 110.495 55.5916L112.952 51.4453Z" fill="black"/>
<path d="M112.952 51.4453C112.952 51.4453 110.551 52.4803 110.495 55.5916" stroke="white" stroke-width="0.717647" stroke-linecap="round"/>
<path d="M110.562 50.0498C110.562 50.0498 108.161 51.0848 108.105 54.1961L110.562 50.0498Z" fill="black"/>
<path d="M110.562 50.0498C110.562 50.0498 108.161 51.0848 108.105 54.1961" stroke="white" stroke-width="0.717647" stroke-linecap="round"/>
<path d="M108.171 48.6514C108.171 48.6514 105.77 49.6864 105.715 52.7976L108.171 48.6514Z" fill="black"/>
<path d="M108.171 48.6514C108.171 48.6514 105.77 49.6864 105.715 52.7976" stroke="white" stroke-width="0.717647" stroke-linecap="round"/>
<path d="M105.781 47.2559C105.781 47.2559 103.38 48.2909 103.324 51.4021L105.781 47.2559Z" fill="black"/>
<path d="M105.781 47.2559C105.781 47.2559 103.38 48.2909 103.324 51.4021" stroke="white" stroke-width="0.717647" stroke-linecap="round"/>
<path d="M103.391 45.8594C103.391 45.8594 100.989 46.8944 100.934 50.0057L103.391 45.8594Z" fill="black"/>
<path d="M103.391 45.8594C103.391 45.8594 100.989 46.8944 100.934 50.0057" stroke="white" stroke-width="0.717647" stroke-linecap="round"/>
<path d="M101 44.4619C101 44.4619 98.5988 45.4969 98.5436 48.6082L101 44.4619Z" fill="black"/>
<path d="M101 44.4619C101 44.4619 98.5988 45.4969 98.5436 48.6082" stroke="white" stroke-width="0.717647" stroke-linecap="round"/>
<path d="M98.6103 43.0654C98.6103 43.0654 96.2091 44.1003 96.1537 47.2117L98.6103 43.0654Z" fill="black"/>
<path d="M98.6103 43.0654C98.6103 43.0654 96.2091 44.1003 96.1537 47.2117" stroke="white" stroke-width="0.717647" stroke-linecap="round"/>
<path d="M96.2201 41.668C96.2201 41.668 93.8189 42.703 93.7635 45.8142L96.2201 41.668Z" fill="black"/>
<path d="M96.2201 41.668C96.2201 41.668 93.8189 42.703 93.7635 45.8142" stroke="white" stroke-width="0.717647" stroke-linecap="round"/>
<path d="M93.8299 40.2715C93.8299 40.2715 91.4287 41.3065 91.3734 44.4178L93.8299 40.2715Z" fill="black"/>
<path d="M93.8299 40.2715C93.8299 40.2715 91.4287 41.3065 91.3734 44.4178" stroke="white" stroke-width="0.717647" stroke-linecap="round"/>
<path d="M91.4394 38.875C91.4394 38.875 89.0382 39.91 88.9828 43.0213L91.4394 38.875Z" fill="black"/>
<path d="M91.4394 38.875C91.4394 38.875 89.0382 39.91 88.9828 43.0213" stroke="white" stroke-width="0.717647" stroke-linecap="round"/>
<path d="M89.0488 37.4775C89.0488 37.4775 86.6477 38.5124 86.5923 41.6238L89.0488 37.4775Z" fill="black"/>
<path d="M89.0488 37.4775C89.0488 37.4775 86.6477 38.5124 86.5923 41.6238" stroke="white" stroke-width="0.717647" stroke-linecap="round"/>
<path d="M127.433 63.3534V58.0781H201.487V63.3534C201.586 63.7514 201.386 64.2492 201.088 64.4483L165.455 85.1512C164.757 85.4499 163.862 85.4499 163.166 85.0518L127.931 64.6473C127.532 64.3486 127.333 63.851 127.433 63.3534Z" fill="url(#paint15_linear_87_166)"/>
<path fill-rule="evenodd" clip-rule="evenodd" d="M42.829 57.9785V63.7514C42.7296 64.2492 42.9286 64.7468 43.3268 65.0453L60.1329 74.8253L61.3601 74.1167L61.3659 74.1201C61.3821 74.1102 61.3984 74.1003 61.4152 74.0907C62.2593 73.6034 63.6276 73.6024 64.4715 74.0887C65.3154 74.575 65.3151 75.3642 64.471 75.8515C64.4453 75.8664 64.419 75.8808 64.3925 75.8947L63.1769 76.5966L78.5617 85.5494C79.1589 85.9475 80.0547 85.9475 80.7515 85.6488L116.385 64.9459C116.683 64.7468 116.882 64.2492 116.783 63.851V58.078L42.829 57.9785Z" fill="url(#paint16_linear_87_166)"/>
<path fill-rule="evenodd" clip-rule="evenodd" d="M120.963 11.1982L85.4297 32.0007C84.8325 32.3989 84.9321 32.8965 85.5292 33.2947L120.963 53.8982C121.561 54.2963 122.456 54.2963 123.153 53.9978L158.686 33.1952C159.184 32.8965 159.184 32.2994 158.488 31.9013L123.253 11.2977C122.556 10.8996 121.66 10.8996 120.963 11.1982ZM163.166 36.5793L127.632 57.3819C127.035 57.6805 127.134 58.2777 127.831 58.6758L163.067 79.2793C163.664 79.6775 164.559 79.6775 165.255 79.3788L200.89 58.5764C201.386 58.2777 201.386 57.6805 200.69 57.2823L165.455 36.6788C164.757 36.2808 163.862 36.2806 163.166 36.5793ZM78.6614 36.5793L67.5289 43.1149L67.5426 43.1228C69.397 44.1916 69.3966 45.926 67.5415 46.997C65.7007 48.0598 62.7252 48.0699 60.8677 47.0257L43.2273 57.3819C42.6302 57.6805 42.7297 58.2777 43.3269 58.6758L60.6017 68.7773L63.3128 67.212L63.3187 67.2153C63.3348 67.2054 63.3512 67.1956 63.368 67.186C64.212 66.6986 65.5805 66.6977 66.4243 67.184C67.2681 67.6702 67.2679 68.4595 66.4237 68.9468C66.398 68.9616 66.3719 68.9761 66.3452 68.99L63.6382 70.5529L78.5618 79.2793C79.1591 79.6775 80.0548 79.6775 80.7517 79.3788L99.2622 68.5723C98.586 67.5877 98.939 66.422 100.321 65.6242C101.689 64.8342 103.685 64.6258 105.382 64.9999L116.385 58.5764C116.882 58.2777 116.882 57.6805 116.186 57.2823L80.9507 36.6788C80.2539 36.2808 79.3581 36.2806 78.6614 36.5793Z" fill="url(#paint17_linear_87_166)"/>
<path fill-rule="evenodd" clip-rule="evenodd" d="M163.1 41.8375C164.002 41.3614 165.083 41.3614 165.986 41.8375C166.79 42.3136 166.79 43.1171 165.986 43.623C165.083 44.0991 164.002 44.0991 163.1 43.623C162.296 43.127 162.296 42.3534 163.1 41.8375Z" fill="white"/>
<path fill-rule="evenodd" clip-rule="evenodd" d="M163.1 71.3336C164.002 70.8575 165.083 70.8575 165.986 71.3336C166.79 71.8097 166.79 72.6132 165.986 73.1191C165.083 73.5952 164.002 73.5952 163.1 73.1191C162.296 72.6231 162.296 71.8495 163.1 71.3336Z" fill="white"/>
<path fill-rule="evenodd" clip-rule="evenodd" d="M136.103 56.4879C137.006 56.0118 138.087 56.0118 138.99 56.4879C139.793 56.964 139.793 57.7675 138.99 58.2734C138.087 58.7495 137.006 58.7495 136.103 58.2734C135.3 57.7774 135.3 57.0038 136.103 56.4879Z" fill="white"/>
<path fill-rule="evenodd" clip-rule="evenodd" d="M189.496 56.4879C190.397 56.0118 191.48 56.0118 192.383 56.4879C193.185 56.964 193.185 57.7675 192.383 58.2734C191.48 58.7495 190.397 58.7495 189.496 58.2734C188.692 57.7774 188.692 57.0038 189.496 56.4879Z" fill="white"/>
<path fill-rule="evenodd" clip-rule="evenodd" d="M149.476 34.4108C149.179 34.2608 149.179 34.0185 149.476 33.8692C149.645 33.7952 149.829 33.7568 150.014 33.7568C150.201 33.7568 150.383 33.7952 150.554 33.8692C150.851 34.0189 150.851 34.2615 150.554 34.4108C150.383 34.4847 150.201 34.5229 150.014 34.5229C149.829 34.5229 149.645 34.4847 149.476 34.4108ZM147.573 36.6959C147.276 36.5483 147.276 36.3088 147.573 36.1612C147.743 36.0882 147.927 36.0506 148.112 36.0506C148.297 36.0506 148.48 36.0882 148.651 36.1612C148.949 36.3088 148.949 36.5483 148.651 36.6956C148.48 36.7687 148.297 36.8063 148.112 36.8064C147.927 36.8064 147.743 36.7688 147.573 36.6959ZM147.573 35.5524C147.276 35.4044 147.276 35.1649 147.573 35.0176C147.743 34.9444 147.926 34.9068 148.112 34.9068C148.297 34.9068 148.48 34.9444 148.651 35.0176C148.949 35.1653 148.949 35.4047 148.651 35.552C148.48 35.6247 148.297 35.6622 148.112 35.6622C147.926 35.6622 147.743 35.6253 147.573 35.5524ZM145.662 37.843C145.364 37.6933 145.364 37.451 145.662 37.3013C145.832 37.2274 146.015 37.1893 146.2 37.1893C146.386 37.1893 146.569 37.2274 146.739 37.3013C147.037 37.451 147.037 37.6936 146.739 37.8427C146.569 37.9166 146.386 37.9546 146.2 37.9546C146.015 37.9546 145.832 37.917 145.662 37.843ZM145.662 36.6993C145.364 36.5501 145.364 36.3075 145.662 36.1581C145.832 36.0842 146.015 36.0461 146.2 36.0461C146.386 36.0461 146.569 36.0842 146.739 36.1581C147.037 36.3078 147.037 36.5501 146.739 36.6993C146.569 36.773 146.386 36.8109 146.2 36.8106C146.015 36.8103 145.832 36.7718 145.662 36.6976V36.6993ZM143.759 38.9845C143.461 38.8369 143.461 38.5974 143.759 38.4501C143.928 38.377 144.112 38.3394 144.297 38.3394C144.482 38.3394 144.666 38.377 144.837 38.4501C145.134 38.5978 145.134 38.8372 144.837 38.9845C144.666 39.0572 144.482 39.0947 144.297 39.0943C144.112 39.094 143.928 39.0561 143.759 38.9827V38.9845ZM143.759 37.8408C143.461 37.6933 143.461 37.4539 143.759 37.3065C143.928 37.2334 144.112 37.1958 144.297 37.1958C144.482 37.1958 144.666 37.2334 144.837 37.3065C145.134 37.4539 145.134 37.6936 144.837 37.8408C144.666 37.9136 144.482 37.9509 144.297 37.9505C144.112 37.95 143.928 37.912 143.759 37.8385V37.8408ZM141.848 40.1318C141.55 39.9821 141.55 39.7396 141.848 39.5903C142.018 39.5164 142.201 39.4782 142.387 39.4782C142.572 39.4782 142.756 39.5164 142.926 39.5903C143.223 39.7403 143.223 39.9826 142.926 40.1318C142.756 40.2055 142.572 40.2432 142.387 40.2428C142.201 40.2424 142.018 40.2037 141.848 40.1294V40.1318ZM141.848 38.9883C141.55 38.8386 141.55 38.5959 141.848 38.4467C142.018 38.3726 142.201 38.3344 142.387 38.3344C142.572 38.3344 142.756 38.3726 142.926 38.4467C143.223 38.5964 143.223 38.8386 142.926 38.9879C142.755 39.0614 142.572 39.0991 142.387 39.0986C142.201 39.0981 142.018 39.0595 141.848 38.9852V38.9883ZM139.945 41.2733C139.648 41.1255 139.648 40.8864 139.945 40.7387C140.115 40.6656 140.298 40.628 140.484 40.628C140.669 40.628 140.852 40.6656 141.023 40.7387C141.32 40.8867 141.32 41.1258 141.023 41.2738C140.852 41.3461 140.669 41.383 140.483 41.3824C140.298 41.3818 140.115 41.3437 139.945 41.2703V41.2733ZM139.945 40.1298C139.648 39.9819 139.648 39.7423 139.945 39.595C140.115 39.522 140.298 39.4842 140.484 39.4842C140.669 39.4842 140.852 39.522 141.023 39.595C141.32 39.7427 141.32 39.9821 141.023 40.1298C140.852 40.202 140.669 40.2389 140.483 40.2383C140.298 40.2376 140.115 40.1994 139.945 40.126V40.1298ZM138.034 42.4204C137.736 42.2707 137.736 42.0281 138.034 41.8789C138.204 41.8048 138.387 41.7668 138.572 41.7668C138.758 41.7668 138.941 41.8048 139.111 41.8789C139.409 42.0286 139.409 42.2707 139.111 42.4201C138.941 42.4936 138.758 42.5312 138.572 42.5306C138.387 42.5301 138.203 42.4912 138.034 42.4167V42.4204ZM138.034 41.2769C137.736 41.1272 137.736 40.8849 138.034 40.7352C138.204 40.6615 138.387 40.6233 138.572 40.6233C138.758 40.6233 138.941 40.6615 139.111 40.7352C139.409 40.8852 139.409 41.1275 139.111 41.2772C138.941 41.3503 138.757 41.3876 138.572 41.3867C138.387 41.3859 138.203 41.3468 138.034 41.272V41.2769ZM136.131 43.5641C135.833 43.4161 135.833 43.177 136.131 43.0293C136.301 42.9562 136.485 42.9186 136.67 42.9186C136.855 42.9186 137.039 42.9562 137.209 43.0293C137.507 43.177 137.507 43.4164 137.209 43.5638C137.038 43.6358 136.855 43.6724 136.669 43.6713C136.484 43.6703 136.301 43.6315 136.131 43.5575V43.5641ZM136.131 42.4204C135.833 42.2724 135.833 42.033 136.131 41.8858C136.301 41.8127 136.485 41.775 136.67 41.775C136.855 41.775 137.039 41.8127 137.209 41.8858C137.507 42.033 137.507 42.2729 137.209 42.4201C137.038 42.492 136.855 42.5285 136.669 42.5273C136.484 42.5262 136.301 42.4873 136.131 42.4132V42.4204ZM134.22 44.7107C133.922 44.561 133.922 44.3189 134.22 44.1695C134.39 44.0955 134.573 44.0574 134.758 44.0574C134.944 44.0574 135.127 44.0955 135.297 44.1695C135.595 44.3192 135.595 44.5617 135.297 44.7107C135.127 44.7838 134.943 44.8207 134.758 44.8195C134.572 44.8182 134.389 44.7787 134.22 44.7035V44.7107ZM134.22 43.5672C133.922 43.4178 133.922 43.1752 134.22 43.0258C134.39 42.9518 134.573 42.9136 134.758 42.9136C134.944 42.9136 135.127 42.9518 135.297 43.0258C135.595 43.1752 135.595 43.4178 135.297 43.5675C135.127 43.6401 134.943 43.6769 134.758 43.6754C134.572 43.674 134.389 43.6344 134.22 43.5592V43.5672ZM132.317 45.8526C132.019 45.7049 132.019 45.4652 132.317 45.3178C132.487 45.2448 132.67 45.207 132.856 45.207C133.041 45.207 133.224 45.2448 133.395 45.3178C133.692 45.4655 133.692 45.7047 133.395 45.8522C133.224 45.924 133.04 45.9603 132.855 45.959C132.67 45.9577 132.487 45.9188 132.317 45.8446V45.8526ZM132.317 44.709C132.019 44.5614 132.019 44.3219 132.317 44.1746C132.487 44.1016 132.67 44.064 132.856 44.064C133.041 44.064 133.224 44.1016 133.395 44.1746C133.692 44.3226 133.692 44.5617 133.395 44.7097C133.224 44.7812 133.04 44.8172 132.855 44.8155C132.669 44.8139 132.486 44.7746 132.317 44.6999V44.709ZM130.406 47C130.108 46.8503 130.108 46.6077 130.406 46.4583C130.576 46.3844 130.759 46.3462 130.945 46.3462C131.13 46.3462 131.314 46.3844 131.484 46.4583C131.781 46.608 131.781 46.8503 131.484 47C131.313 47.0726 131.129 47.1092 130.944 47.1077C130.758 47.1061 130.575 47.0665 130.406 46.991V47ZM130.406 45.8564C130.108 45.7067 130.108 45.4638 130.406 45.3148C130.576 45.2408 130.759 45.2026 130.945 45.2026C131.13 45.2026 131.314 45.2408 131.484 45.3148C131.781 45.4645 131.781 45.7067 131.484 45.8561C131.313 45.9286 131.129 45.9652 130.944 45.9636C130.758 45.962 130.575 45.9222 130.406 45.8467V45.8564ZM128.503 48.1415C128.205 47.9935 128.205 47.7544 128.503 47.6064C128.673 47.5334 128.857 47.4958 129.042 47.4958C129.227 47.4958 129.411 47.5334 129.581 47.6064C129.878 47.7544 129.878 47.9935 129.581 48.1408C129.41 48.2125 129.226 48.2487 129.041 48.2471C128.856 48.2456 128.673 48.2064 128.503 48.1319V48.1415ZM128.503 46.998C128.205 46.8496 128.205 46.6109 128.503 46.4629C128.673 46.3899 128.857 46.3523 129.042 46.3523C129.227 46.3523 129.411 46.3899 129.581 46.4629C129.878 46.6109 129.878 46.8503 129.581 46.9976C129.41 47.069 129.226 47.1051 129.041 47.1034C128.856 47.1016 128.673 47.0622 128.503 46.9875V46.998ZM150.554 35.0245C150.851 35.1742 150.851 35.4168 150.554 35.5659C150.383 35.6399 150.201 35.6781 150.014 35.6781C149.829 35.6781 149.645 35.6399 149.476 35.5659C149.179 35.4162 149.179 35.1735 149.476 35.0242C149.645 34.9487 149.829 34.9088 150.014 34.9071C150.199 34.9054 150.383 34.9418 150.554 35.0142V35.0245Z" fill="#292E47" fill-opacity="0.5"/>
<path d="M48.4649 61.7324L47.3647 61.0723V67.3359L48.4649 67.996V61.7324Z" fill="#1D2540" fill-opacity="0.5"/>
<path d="M50.265 62.7696L49.1649 62.1094V68.3731L50.265 69.0332V62.7696Z" fill="#1D2540" fill-opacity="0.5"/>
<path d="M50.9639 63.1465L52.064 63.8066V70.0703L50.9639 69.4101V63.1465Z" fill="#1D2540" fill-opacity="0.5"/>
<path d="M53.8402 64.8281L52.74 64.168V70.4316L53.8402 71.0917V64.8281Z" fill="#1D2540" fill-opacity="0.5"/>
<path d="M54.4998 65.2207L55.6 65.8808V72.1444L54.4998 71.4843V65.2207Z" fill="#1D2540" fill-opacity="0.5"/>
<path d="M57.4316 66.9423L56.3314 66.2822V72.5459L57.4316 73.2059V66.9423Z" fill="#1D2540" fill-opacity="0.5"/>
<path d="M58.1228 67.3359L59.223 67.996V74.2597L58.1228 73.5996V67.3359Z" fill="#1D2540" fill-opacity="0.5"/>
<path d="M66.4527 72.2226L65.3525 71.5625V77.8261L66.4527 78.4864V72.2226Z" fill="#1D2540" fill-opacity="0.5"/>
<path d="M67.1523 72.6084L68.2524 73.2685V79.5321L67.1523 78.872V72.6084Z" fill="#1D2540" fill-opacity="0.5"/>
<path d="M70.0207 74.3056L68.952 73.6611V79.9249L70.005 80.5378L70.0207 74.3056Z" fill="#1D2540" fill-opacity="0.5"/>
<path d="M70.7278 74.6836L71.7966 75.3279L71.7809 81.5602L70.7278 80.9472V74.6836Z" fill="#1D2540" fill-opacity="0.5"/>
<path d="M73.5802 76.3884L72.5115 75.7441V82.0078L73.5644 82.6208L73.5802 76.3884Z" fill="#1D2540" fill-opacity="0.5"/>
<path d="M74.3192 76.7969L75.388 77.4412L75.3723 83.6734L74.3192 83.0605V76.7969Z" fill="#1D2540" fill-opacity="0.5"/>
<path d="M77.1643 78.4784L76.0954 77.834V84.0976L77.1485 84.7106L77.1643 78.4784Z" fill="#1D2540" fill-opacity="0.5"/>
<path fill-rule="evenodd" clip-rule="evenodd" d="M48.6315 61.7773L47.5619 61.152L52.0542 58.5898L53.1243 59.2149L48.6315 61.7773ZM50.4137 62.8197L49.3444 62.1943L53.8375 59.6316L54.9072 60.2567L50.4137 62.8197ZM52.1962 63.8618L51.1268 63.2365L55.6204 60.6735L56.6904 61.2985L52.1962 63.8618ZM53.9785 64.904L52.9091 64.2788L57.4036 61.7152L58.4733 62.3403L53.9785 64.904ZM55.7609 65.9463L54.6915 65.3209L59.1865 62.7571L60.2565 63.3821L55.7609 65.9463ZM57.5432 66.9885L56.4738 66.3631L60.9697 63.7988L62.0394 64.424L57.5432 66.9885ZM59.3256 68.0308L58.2561 67.4054L62.7526 64.8407L63.8227 65.4658L59.3256 68.0308ZM66.455 72.1996L65.3855 71.5744L69.8849 69.0079L70.9549 69.633L66.455 72.1996ZM68.2373 73.2419L67.1679 72.6165L71.6681 70.0498L72.7378 70.6749L68.2373 73.2419ZM70.0197 74.2841L68.9502 73.6587L73.451 71.0915L74.521 71.7168L70.0197 74.2841ZM71.802 75.3262L70.7326 74.701L75.2342 72.1334L76.304 72.7585L71.802 75.3262ZM73.5844 76.3685L72.5151 75.7432L77.0172 73.1753L78.0872 73.8004L73.5844 76.3685ZM75.3667 77.4107L74.2973 76.7854L78.8004 74.217L79.8701 74.8421L75.3667 77.4107ZM77.1491 78.453L76.0798 77.8277L80.5833 75.2589L81.6533 75.884L77.1491 78.453Z" fill="#1D2540" fill-opacity="0.5"/>
<path d="M70.8376 54.9439C70.3881 55.2061 69.8318 55.2045 69.3838 54.9396L66.3923 53.1708C65.9221 52.8928 65.9225 52.2125 66.393 51.9349L78.0167 45.0789C78.4634 44.8154 79.0174 44.8134 79.4661 45.0736L82.5555 46.8657C83.0316 47.1419 83.0325 47.8291 82.5571 48.1064L70.8376 54.9439Z" fill="white"/>
<path d="M77.0124 58.57C76.5622 58.8327 76.0048 58.8305 75.5565 58.5644L72.5696 56.7915C72.1003 56.5131 72.1013 55.8335 72.5713 55.5563L84.19 48.7057C84.6367 48.4424 85.1907 48.4404 85.6393 48.7005L88.7289 50.4928C89.205 50.7689 89.2058 51.456 88.7305 51.7334L77.0124 58.57Z" fill="white"/>
<path d="M83.386 62.2669C82.9386 62.5286 82.3849 62.5289 81.9373 62.2675L78.9201 60.5055C78.4471 60.2294 78.4454 59.5465 78.9169 59.2679L90.5412 52.4007C90.9922 52.1343 91.5522 52.1347 92.0028 52.4016L95.0513 54.2074C95.522 54.4862 95.5201 55.1681 95.0479 55.4442L83.386 62.2669Z" fill="white"/>
<path d="M89.6245 65.9261C89.1754 66.1891 88.6192 66.1884 88.1708 65.9244L85.144 64.1421C84.6725 63.8645 84.6726 63.1826 85.1441 62.9051L96.7815 56.0576C97.2299 55.7938 97.7857 55.7932 98.2347 56.0562L101.299 57.8503C101.772 58.1276 101.772 58.8117 101.299 59.089L89.6245 65.9261Z" fill="white"/>
<path fill-rule="evenodd" clip-rule="evenodd" d="M100.907 76.6756C112.794 69.812 132.065 69.7992 143.95 76.6471C155.833 83.4952 155.83 94.6106 143.941 101.474C132.054 108.338 112.783 108.35 100.899 101.502C89.0154 94.6541 89.0187 83.5387 100.907 76.6756Z" fill="#1D2540" fill-opacity="0.7"/>
<path fill-rule="evenodd" clip-rule="evenodd" d="M102.014 76.3936C113.29 69.8832 131.569 69.8712 142.841 76.3666C154.113 82.8622 154.11 93.4054 142.834 99.9156C131.558 106.426 113.279 106.438 102.007 99.9422C90.7347 93.4468 90.7379 82.9035 102.014 76.3936Z" fill="url(#paint18_linear_87_166)"/>
<path fill-rule="evenodd" clip-rule="evenodd" d="M102.014 71.21C113.29 64.6996 131.569 64.6876 142.841 71.1831C154.113 77.6786 154.11 88.2218 142.834 94.7322C131.558 101.242 113.279 101.254 102.007 94.7586C90.7347 88.2631 90.7379 77.7199 102.014 71.21Z" fill="url(#paint19_linear_87_166)"/>
<path fill-rule="evenodd" clip-rule="evenodd" d="M112.004 45.4837C111.704 45.3351 111.704 45.0936 112.004 44.9443C112.176 44.8708 112.361 44.8328 112.547 44.8328C112.734 44.8328 112.919 44.8708 113.091 44.9443C113.391 45.0936 113.391 45.3344 113.091 45.4841C112.919 45.5578 112.734 45.5956 112.547 45.5956C112.361 45.5955 112.176 45.5575 112.004 45.4837ZM110.085 45.4876C109.786 45.3366 109.786 45.0923 110.085 44.9412C110.257 44.8667 110.442 44.8281 110.629 44.8281C110.816 44.8281 111 44.8667 111.172 44.9412C111.472 45.0919 111.472 45.3366 111.172 45.4876C111 45.5622 110.816 45.6007 110.629 45.6007C110.442 45.6007 110.257 45.5622 110.085 45.4876ZM110.085 44.334C109.786 44.1833 109.786 43.939 110.085 43.788C110.257 43.7134 110.442 43.6749 110.629 43.6749C110.816 43.6749 111 43.7134 111.172 43.788C111.472 43.9383 111.472 44.1833 111.172 44.3345C111 44.4087 110.815 44.4468 110.629 44.4466C110.442 44.4464 110.257 44.4087 110.085 44.334ZM108.159 44.332C107.859 44.183 107.859 43.9419 108.159 43.7929C108.33 43.7191 108.515 43.6811 108.702 43.6811C108.889 43.6811 109.074 43.7191 109.245 43.7929C109.545 43.9415 109.545 44.1833 109.245 44.3323C109.073 44.4056 108.889 44.4433 108.702 44.4431C108.515 44.4428 108.33 44.4058 108.159 44.332ZM108.159 43.1785C107.859 43.0292 107.859 42.7879 108.159 42.6387C108.33 42.565 108.515 42.527 108.702 42.527C108.889 42.527 109.073 42.565 109.245 42.6387C109.545 42.7872 109.545 43.0288 109.245 43.1778C109.073 43.2512 108.889 43.2891 108.702 43.289C108.515 43.2888 108.33 43.2508 108.159 43.177V43.1785ZM106.24 43.1816C105.94 43.0312 105.94 42.7866 106.24 42.6355C106.411 42.561 106.596 42.5224 106.783 42.5224C106.97 42.5224 107.155 42.561 107.326 42.6355C107.626 42.7862 107.626 43.0305 107.326 43.1816C107.155 43.256 106.97 43.2943 106.783 43.2942C106.596 43.2939 106.411 43.2566 106.24 43.1816ZM106.24 42.0281C105.94 41.8771 105.94 41.6324 106.24 41.4817C106.411 41.407 106.596 41.3684 106.783 41.3684C106.97 41.3684 107.155 41.407 107.326 41.4817C107.626 41.6324 107.626 41.8771 107.326 42.0277C107.155 42.102 106.97 42.1402 106.783 42.1399C106.596 42.1396 106.411 42.101 106.24 42.0264V42.0281ZM104.314 42.0256C104.014 41.8771 104.014 41.6355 104.314 41.4865C104.485 41.4129 104.67 41.3749 104.857 41.3749C105.044 41.3749 105.228 41.4129 105.4 41.4865C105.7 41.6355 105.7 41.8767 105.4 42.0259C105.228 42.0993 105.043 42.1369 104.857 42.1366C104.67 42.1362 104.485 42.0978 104.314 42.0238V42.0256ZM104.314 40.8721C104.014 40.7235 104.014 40.4816 104.314 40.333C104.485 40.2594 104.67 40.2213 104.857 40.2213C105.044 40.2213 105.228 40.2594 105.4 40.333C105.7 40.4816 105.7 40.7231 105.4 40.8724C105.228 40.9457 105.043 40.9832 104.857 40.9828C104.67 40.9822 104.485 40.9437 104.314 40.8697V40.8721ZM102.395 40.8755C102.095 40.725 102.095 40.4805 102.395 40.3296C102.567 40.2549 102.752 40.2165 102.938 40.2165C103.125 40.2165 103.31 40.2549 103.482 40.3296C103.782 40.4803 103.782 40.7248 103.482 40.876C103.31 40.9502 103.125 40.9882 102.938 40.9878C102.751 40.9872 102.566 40.9483 102.395 40.8731V40.8755ZM102.395 39.722C102.095 39.571 102.095 39.3267 102.395 39.1753C102.567 39.1008 102.752 39.0625 102.938 39.0625C103.125 39.0625 103.31 39.1008 103.482 39.1753C103.782 39.3263 103.782 39.5707 103.482 39.7217C103.31 39.7959 103.125 39.834 102.938 39.8335C102.751 39.8332 102.567 39.7942 102.395 39.7193V39.722ZM100.469 39.72C100.169 39.5707 100.169 39.3294 100.469 39.1802C100.64 39.1065 100.825 39.0685 101.012 39.0685C101.199 39.0685 101.384 39.1065 101.555 39.1802C101.855 39.3292 101.855 39.5703 101.555 39.7196C101.383 39.7928 101.198 39.8302 101.012 39.8298C100.825 39.8294 100.64 39.791 100.469 39.7171V39.72ZM100.469 38.5664C100.169 38.4175 100.169 38.1759 100.469 38.0271C100.64 37.9533 100.825 37.9152 101.012 37.9152C101.199 37.9152 101.384 37.9533 101.555 38.0271C101.855 38.1756 101.855 38.4172 101.555 38.5664C101.383 38.6394 101.198 38.6767 101.012 38.6761C100.825 38.6755 100.64 38.6369 100.469 38.5629V38.5664ZM98.5502 38.5699C98.2503 38.4192 98.2503 38.1749 98.5502 38.0236C98.7215 37.949 98.9065 37.9104 99.0934 37.9104C99.2803 37.9104 99.4653 37.949 99.6367 38.0236C99.9369 38.1742 99.9365 38.4189 99.6367 38.5699C99.465 38.6438 99.2799 38.6817 99.093 38.6811C98.9061 38.6804 98.7214 38.6414 98.5502 38.5664V38.5699ZM98.5502 37.4163C98.2503 37.2658 98.2503 37.0213 98.5502 36.8704C98.7215 36.7957 98.9065 36.7571 99.0934 36.7571C99.2803 36.7571 99.4653 36.7957 99.6367 36.8704C99.9369 37.0211 99.9365 37.2658 99.6367 37.4168C99.4649 37.4904 99.2797 37.528 99.0929 37.5271C98.906 37.5263 98.7213 37.4871 98.5502 37.4119V37.4163ZM96.6234 37.4143C96.3236 37.2658 96.3236 37.0242 96.6234 36.8752C96.7951 36.8016 96.98 36.7636 97.1667 36.7636C97.3534 36.7636 97.5383 36.8016 97.7098 36.8752C98.0098 37.0238 98.0098 37.2653 97.7098 37.4143C97.538 37.4872 97.353 37.5244 97.1663 37.5237C96.9794 37.5228 96.7948 37.4841 96.6234 37.4097V37.4143ZM96.6234 36.2608C96.3236 36.1122 96.3236 35.8702 96.6234 35.7217C96.7951 35.6481 96.98 35.61 97.1667 35.61C97.3534 35.61 97.5383 35.6481 97.7098 35.7217C98.0098 35.8702 98.0098 36.1118 97.7098 36.2608C97.5379 36.3337 97.3528 36.3709 97.1661 36.37C96.9794 36.369 96.7947 36.3301 96.6234 36.2555V36.2608ZM94.7052 36.2642C94.4052 36.114 94.4052 35.8692 94.7052 35.7182C94.8765 35.6438 95.0614 35.6053 95.2483 35.6053C95.4352 35.6053 95.6202 35.6438 95.7915 35.7182C96.0915 35.8692 96.0915 36.1135 95.7915 36.2647C95.6197 36.3384 95.4347 36.3759 95.2477 36.375C95.0608 36.374 94.8761 36.3346 94.7052 36.2591V36.2642ZM94.7052 35.1107C94.4052 34.9601 94.4052 34.7157 94.7052 34.5647C94.8765 34.4901 95.0614 34.4516 95.2483 34.4516C95.4353 34.4516 95.6202 34.4901 95.7915 34.5647C96.0915 34.7154 96.0915 34.9601 95.7915 35.1107C95.6197 35.1843 95.4346 35.2216 95.2477 35.2206C95.0608 35.2196 94.8761 35.1802 94.7052 35.1048V35.1107ZM92.7784 35.1087C92.4784 34.9601 92.4784 34.7186 92.7784 34.5696C92.9501 34.4959 93.1349 34.4581 93.3218 34.4581C93.5086 34.4581 93.6934 34.4959 93.8651 34.5696C94.1651 34.7186 94.1648 34.9601 93.8651 35.109C93.693 35.1817 93.508 35.2186 93.3211 35.2175C93.1342 35.2165 92.9497 35.1774 92.7784 35.1026V35.1087ZM92.7784 33.9551C92.4784 33.8066 92.4784 33.565 92.7784 33.416C92.9501 33.3423 93.1349 33.3042 93.3218 33.3042C93.5086 33.3042 93.6934 33.3423 93.8651 33.416C94.1651 33.5646 94.1648 33.8061 93.8651 33.9554C93.693 34.0279 93.5078 34.0646 93.3211 34.0633C93.1342 34.0622 92.9497 34.023 92.7784 33.9484V33.9551ZM90.8604 33.9586C90.5602 33.8083 90.5602 33.5636 90.8604 33.4126C91.0318 33.338 91.2167 33.2995 91.4036 33.2995C91.5906 33.2995 91.7754 33.338 91.9468 33.4126C92.2466 33.5633 92.2466 33.8079 91.9468 33.959C91.775 34.0326 91.5899 34.07 91.4028 34.0688C91.216 34.0677 91.0312 34.0278 90.8604 33.952V33.9586ZM90.8604 32.805C90.5602 32.6545 90.5602 32.4097 90.8604 32.2588C91.0318 32.184 91.2167 32.1455 91.4036 32.1455C91.5906 32.1455 91.7754 32.184 91.9468 32.2588C92.2466 32.4093 92.2466 32.6537 91.9468 32.805C91.7749 32.8785 91.5897 32.9158 91.4028 32.9145C91.216 32.9134 91.0312 32.8735 90.8604 32.7977V32.805ZM113.092 46.1052C113.392 46.2544 113.392 46.4957 113.092 46.645C112.92 46.7186 112.735 46.7567 112.549 46.7567C112.362 46.7567 112.177 46.7186 112.006 46.645C111.705 46.4964 111.705 46.2552 112.006 46.1059C112.176 46.0311 112.361 45.9919 112.547 45.9905C112.734 45.9892 112.919 46.0257 113.091 46.0979L113.092 46.1052Z" fill="#292E47" fill-opacity="0.5"/>
<path d="M123.799 40.7758C122.452 41.5622 120.784 41.5577 119.44 40.7643L106.569 33.1633C105.628 32.6078 105.628 31.2469 106.569 30.6914L119.44 23.0904C120.784 22.2969 122.452 22.2925 123.799 23.0789L136.841 30.6875C137.791 31.2414 137.791 32.6131 136.841 33.167L123.799 40.7758Z" fill="white"/>
<path d="M122.005 16.1458H118.695C118.329 16.1458 118.197 15.6636 118.512 15.4779L121.57 13.6724C121.838 13.5137 122.172 13.5128 122.442 13.6701L125.539 15.4771C125.855 15.6616 125.724 16.1458 125.358 16.1458H122.005Z" fill="#1D2540" fill-opacity="0.4"/>
<path d="M129.961 87.3103C132.123 86.1308 132.123 84.1652 130.158 82.9857C129.568 82.5925 128.781 82.396 128.192 82.396C129.764 81.2165 129.568 79.4475 127.799 78.268C125.636 77.0886 122.294 77.0886 120.329 78.268C120.132 78.0715 119.935 78.0715 119.739 77.8749C117.97 76.892 115.021 76.892 113.055 77.8749C110.893 78.8578 110.893 80.4303 112.465 81.6098L122.688 87.5068C124.653 88.4897 127.799 88.4897 129.961 87.3103Z" fill="white"/>
<path d="M198.279 63.7661C198.617 63.5595 198.725 63.118 198.518 62.7796C198.312 62.4413 197.87 62.3342 197.531 62.5406L198.279 63.7661ZM193.392 65.0664C193.053 65.2728 192.945 65.7145 193.152 66.0528C193.359 66.3912 193.801 66.4981 194.138 66.2918L193.392 65.0664ZM197.531 62.5406L193.392 65.0664L194.138 66.2918L198.279 63.7661L197.531 62.5406Z" fill="#1D2540" fill-opacity="0.5"/>
<defs>
<linearGradient id="paint0_linear_87_166" x1="122" y1="117.713" x2="122" y2="243.349" gradientUnits="userSpaceOnUse">
<stop stop-color="#13151E" stop-opacity="0"/>
<stop offset="1" stop-color="#131532"/>
</linearGradient>
<linearGradient id="paint1_linear_87_166" x1="12.5245" y1="120.897" x2="231.387" y2="120.897" gradientUnits="userSpaceOnUse">
<stop offset="0.48" stop-color="#D2D8E6"/>
<stop offset="0.52" stop-color="#E0E4EF"/>
</linearGradient>
<linearGradient id="paint2_linear_87_166" x1="12.5129" y1="120.897" x2="231.375" y2="120.897" gradientUnits="userSpaceOnUse">
<stop stop-color="#BBC1D4" stop-opacity="0"/>
<stop offset="0.35" stop-color="#BBC1D4" stop-opacity="0.7"/>
<stop offset="1" stop-color="#BBC1D4" stop-opacity="0"/>
</linearGradient>
<linearGradient id="paint3_linear_87_166" x1="37.756" y1="84.1582" x2="37.756" y2="96.1139" gradientUnits="userSpaceOnUse">
<stop stop-color="#00BAFF"/>
<stop offset="1" stop-color="#00BAFF" stop-opacity="0"/>
</linearGradient>
<linearGradient id="paint4_linear_87_166" x1="53.6966" y1="114.047" x2="53.6966" y2="126.003" gradientUnits="userSpaceOnUse">
<stop stop-color="#01B2FD"/>
<stop offset="1" stop-color="#00BAFF" stop-opacity="0"/>
</linearGradient>
<linearGradient id="paint5_linear_87_166" x1="113.475" y1="144.933" x2="113.475" y2="159.877" gradientUnits="userSpaceOnUse">
<stop stop-color="#01B2FD"/>
<stop offset="1" stop-color="#00BAFF" stop-opacity="0"/>
</linearGradient>
<linearGradient id="paint6_linear_87_166" x1="83.5858" y1="120.025" x2="83.5858" y2="133.974" gradientUnits="userSpaceOnUse">
<stop offset="0.1" stop-color="#01B2FD"/>
<stop offset="1" stop-color="#00BAFF" stop-opacity="0"/>
</linearGradient>
<linearGradient id="paint7_linear_87_166" x1="135.393" y1="125.007" x2="135.393" y2="136.963" gradientUnits="userSpaceOnUse">
<stop offset="0.1" stop-color="#01B2FD"/>
<stop offset="1" stop-color="#00BAFF" stop-opacity="0"/>
</linearGradient>
<linearGradient id="paint8_linear_87_166" x1="170.265" y1="104.085" x2="170.265" y2="116.041" gradientUnits="userSpaceOnUse">
<stop offset="0.1" stop-color="#01B2FD"/>
<stop offset="1" stop-color="#00BAFF" stop-opacity="0"/>
</linearGradient>
<linearGradient id="paint9_linear_87_166" x1="202.145" y1="101.096" x2="202.145" y2="113.051" gradientUnits="userSpaceOnUse">
<stop stop-color="#01B2FD"/>
<stop offset="1" stop-color="#00BAFF" stop-opacity="0"/>
</linearGradient>
<linearGradient id="paint10_linear_87_166" x1="167.275" y1="131.514" x2="167.275" y2="143.469" gradientUnits="userSpaceOnUse">
<stop stop-color="#01B2FD"/>
<stop offset="1" stop-color="#00BAFF" stop-opacity="0"/>
</linearGradient>
<linearGradient id="paint11_linear_87_166" x1="121.38" y1="165.597" x2="121.38" y2="67.0374" gradientUnits="userSpaceOnUse">
<stop stop-color="#17BDFF"/>
<stop offset="0.8" stop-color="#17BDFF" stop-opacity="0"/>
</linearGradient>
<linearGradient id="paint12_linear_87_166" x1="12.5129" y1="98.4221" x2="231.487" y2="98.4221" gradientUnits="userSpaceOnUse">
<stop stop-color="#373F6E"/>
<stop offset="1" stop-color="#5A6291"/>
</linearGradient>
<linearGradient id="paint13_linear_87_166" x1="12.5129" y1="64.1214" x2="231.487" y2="64.1214" gradientUnits="userSpaceOnUse">
<stop offset="0.00513965" stop-color="#3F4B75"/>
<stop offset="1" stop-color="#636F99"/>
</linearGradient>
<linearGradient id="paint14_linear_87_166" x1="85.0064" y1="46.7874" x2="159.01" y2="46.7874" gradientUnits="userSpaceOnUse">
<stop stop-color="#373F6E"/>
<stop offset="0.46" stop-color="#373F6E"/>
<stop offset="1" stop-color="#5A6291"/>
</linearGradient>
<linearGradient id="paint15_linear_87_166" x1="127.408" y1="71.721" x2="201.512" y2="71.721" gradientUnits="userSpaceOnUse">
<stop stop-color="#373F6E"/>
<stop offset="1" stop-color="#5A6291"/>
</linearGradient>
<linearGradient id="paint16_linear_87_166" x1="42.8038" y1="71.9201" x2="116.809" y2="71.9201" gradientUnits="userSpaceOnUse">
<stop stop-color="#373F6E"/>
<stop offset="1" stop-color="#5A6291"/>
</linearGradient>
<linearGradient id="paint17_linear_87_166" x1="42.8262" y1="45.2886" x2="201.24" y2="45.2886" gradientUnits="userSpaceOnUse">
<stop stop-color="#5B6791"/>
<stop offset="1" stop-color="#69759F"/>
</linearGradient>
<linearGradient id="paint18_linear_87_166" x1="93.5548" y1="88.1545" x2="151.293" y2="88.1545" gradientUnits="userSpaceOnUse">
<stop stop-color="#1D53DA"/>
<stop offset="1" stop-color="#3F75FC"/>
</linearGradient>
<linearGradient id="paint19_linear_87_166" x1="93.5548" y1="82.9709" x2="151.201" y2="82.9709" gradientUnits="userSpaceOnUse">
<stop stop-color="#0397F6"/>
<stop offset="1" stop-color="#00BAFF"/>
</linearGradient>
</defs>
</svg>
